<svg width="882" height="345" viewBox="0 0 882 345" fill="none" xmlns="http://www.w3.org/2000/svg">
<g clip-path="url(#clip0_3_69)">
<rect width="345" height="882" transform="translate(0 345) rotate(-90)" fill="white"/>
<line x1="129" y1="274" x2="819" y2="274" stroke="black" stroke-opacity="0.3" stroke-width="6"/>
<circle cx="183" cy="274" r="18" transform="rotate(-90 183 274)" fill="#FFE333" stroke="black" stroke-width="6"/>
<circle cx="309" cy="274" r="18" transform="rotate(-90 309 274)" fill="#FFE333" stroke="black" stroke-width="6"/>
<circle cx="519" cy="274" r="18" transform="rotate(-90 519 274)" fill="#FFE333" stroke="black" stroke-width="6"/>
<circle cx="706" cy="274" r="18" transform="rotate(-90 706 274)" fill="#FFE333" stroke="black" stroke-width="6"/>
<path d="M289.061 275.061C289.646 274.475 289.646 273.525 289.061 272.939L279.515 263.393C278.929 262.808 277.979 262.808 277.393 263.393C276.808 263.979 276.808 264.929 277.393 265.515L285.879 274L277.393 282.485C276.808 283.071 276.808 284.021 277.393 284.607C277.979 285.192 278.929 285.192 279.515 284.607L289.061 275.061ZM202 275.5L288 275.5L288 272.5L202 272.5L202 275.5Z" fill="black"/>
<path d="M499.061 275.061C499.646 274.475 499.646 273.525 499.061 272.939L489.515 263.393C488.929 262.808 487.979 262.808 487.393 263.393C486.808 263.979 486.808 264.929 487.393 265.515L495.879 274L487.393 282.485C486.808 283.071 486.808 284.021 487.393 284.607C487.979 285.192 488.929 285.192 489.515 284.607L499.061 275.061ZM327 275.5L498 275.5L498 272.5L327 272.5L327 275.5Z" fill="black"/>
<path d="M686.061 275.061C686.646 274.475 686.646 273.525 686.061 272.939L676.515 263.393C675.929 262.808 674.979 262.808 674.393 263.393C673.808 263.979 673.808 264.929 674.393 265.515L682.879 274L674.393 282.485C673.808 283.071 673.808 284.021 674.393 284.607C674.979 285.192 675.929 285.192 676.515 284.607L686.061 275.061ZM537 275.5L685 275.5L685 272.5L537 272.5L537 275.5Z" fill="black"/>
<path d="M67.1953 314.187C67.1953 315.098 66.9609 315.924 66.4922 316.663C66.0182 317.397 65.3229 317.981 64.4062 318.413C63.4844 318.84 62.3542 319.054 61.0156 319.054C59.6406 319.054 58.4974 318.832 57.5859 318.39C56.6693 317.947 55.9844 317.358 55.5312 316.624C55.0729 315.884 54.8437 315.075 54.8437 314.194C54.8437 313.522 54.9583 312.963 55.1875 312.515C55.4115 312.062 55.6927 311.697 56.0312 311.421C56.3646 311.14 56.6927 310.926 57.0156 310.78L57.0156 310.679L51 310.679L51 307.358L67 307.358L67 310.64L65.0781 310.64L65.0781 310.78C65.4115 310.937 65.7422 311.158 66.0703 311.444C66.3932 311.726 66.6615 312.093 66.875 312.546C67.0885 312.994 67.1953 313.541 67.1953 314.187ZM64.5469 313.132C64.5469 312.595 64.401 312.142 64.1094 311.772C63.8125 311.397 63.3984 311.111 62.8672 310.913C62.3359 310.71 61.7135 310.608 61 310.608C60.2865 310.608 59.6667 310.707 59.1406 310.905C58.6146 311.103 58.2083 311.39 57.9219 311.765C57.6354 312.14 57.4922 312.595 57.4922 313.132C57.4922 313.679 57.6406 314.14 57.9375 314.515C58.2344 314.89 58.6458 315.174 59.1719 315.366C59.6979 315.559 60.3073 315.655 61 315.655C61.6979 315.655 62.3151 315.559 62.8516 315.366C63.3828 315.168 63.7995 314.884 64.1016 314.515C64.3984 314.14 64.5469 313.679 64.5469 313.132ZM67.2344 299.153C67.2344 300.388 66.9844 301.45 66.4844 302.341C65.9792 303.226 65.2656 303.909 64.3437 304.388C63.4167 304.867 62.3203 305.106 61.0547 305.106C59.8203 305.106 58.737 304.867 57.8047 304.388C56.8724 303.909 56.1458 303.234 55.625 302.364C55.1042 301.489 54.8437 300.463 54.8437 299.286C54.8437 298.494 54.9714 297.757 55.2266 297.075C55.4766 296.388 55.8542 295.789 56.3594 295.278C56.8646 294.763 57.5 294.362 58.2656 294.075C59.026 293.789 59.9167 293.646 60.9375 293.646L61.8516 293.646L61.8516 303.778L59.7891 303.778L59.7891 296.778C59.3099 296.778 58.8854 296.882 58.5156 297.091C58.1458 297.299 57.8568 297.588 57.6484 297.958C57.4349 298.323 57.3281 298.747 57.3281 299.231C57.3281 299.737 57.4453 300.185 57.6797 300.575C57.9089 300.961 58.2187 301.263 58.6094 301.481C58.9948 301.7 59.4245 301.812 59.8984 301.817L61.8594 301.817C62.4531 301.817 62.9661 301.708 63.3984 301.489C63.8307 301.265 64.1641 300.95 64.3984 300.544C64.6328 300.138 64.75 299.656 64.75 299.099C64.75 298.729 64.6979 298.39 64.5937 298.083C64.4896 297.776 64.3333 297.513 64.125 297.294C63.9167 297.075 63.6615 296.909 63.3594 296.794L63.5625 293.716C64.3021 293.872 64.9479 294.192 65.5 294.677C66.0469 295.156 66.474 295.776 66.7812 296.536C67.0833 297.291 67.2344 298.164 67.2344 299.153ZM55 280.608L67 284.804L67 288.554L55 292.749L55 289.233L63.5859 286.741L63.5859 286.616L55 284.132L55 280.608ZM67.2344 273.823C67.2344 275.058 66.9844 276.12 66.4844 277.011C65.9792 277.896 65.2656 278.578 64.3437 279.058C63.4167 279.537 62.3203 279.776 61.0547 279.776C59.8203 279.776 58.737 279.537 57.8047 279.058C56.8724 278.578 56.1458 277.904 55.625 277.034C55.1042 276.159 54.8437 275.133 54.8437 273.956C54.8437 273.164 54.9714 272.427 55.2266 271.745C55.4766 271.058 55.8542 270.459 56.3594 269.948C56.8646 269.433 57.5 269.032 58.2656 268.745C59.026 268.459 59.9167 268.315 60.9375 268.315L61.8516 268.315L61.8516 278.448L59.7891 278.448L59.7891 271.448C59.3099 271.448 58.8854 271.552 58.5156 271.761C58.1458 271.969 57.8568 272.258 57.6484 272.628C57.4349 272.993 57.3281 273.417 57.3281 273.901C57.3281 274.407 57.4453 274.854 57.6797 275.245C57.9089 275.631 58.2187 275.933 58.6094 276.151C58.9948 276.37 59.4245 276.482 59.8984 276.487L61.8594 276.487C62.4531 276.487 62.9661 276.378 63.3984 276.159C63.8307 275.935 64.1641 275.62 64.3984 275.214C64.6328 274.808 64.75 274.326 64.75 273.769C64.75 273.399 64.6979 273.06 64.5937 272.753C64.4896 272.446 64.3333 272.183 64.125 271.964C63.9167 271.745 63.6615 271.578 63.3594 271.464L63.5625 268.386C64.3021 268.542 64.9479 268.862 65.5 269.347C66.0469 269.826 66.474 270.446 66.7812 271.206C67.0833 271.961 67.2344 272.834 67.2344 273.823ZM51 262.815L67 262.815L67 266.144L51 266.144L51 262.815ZM67.2344 254.728C67.2344 255.941 66.9766 256.991 66.4609 257.876C65.9401 258.756 65.2161 259.436 64.2891 259.915C63.3568 260.394 62.276 260.634 61.0469 260.634C59.8073 260.634 58.724 260.394 57.7969 259.915C56.8646 259.436 56.1406 258.756 55.625 257.876C55.1042 256.991 54.8437 255.941 54.8437 254.728C54.8437 253.514 55.1042 252.467 55.625 251.587C56.1406 250.701 56.8646 250.019 57.7969 249.54C58.724 249.061 59.8073 248.821 61.0469 248.821C62.276 248.821 63.3568 249.061 64.2891 249.54C65.2161 250.019 65.9401 250.701 66.4609 251.587C66.9766 252.467 67.2344 253.514 67.2344 254.728ZM64.6562 254.712C64.6562 254.16 64.5 253.699 64.1875 253.329C63.8698 252.959 63.4375 252.681 62.8906 252.493C62.3437 252.3 61.7214 252.204 61.0234 252.204C60.3255 252.204 59.7031 252.3 59.1562 252.493C58.6094 252.681 58.1771 252.959 57.8594 253.329C57.5417 253.699 57.3828 254.16 57.3828 254.712C57.3828 255.269 57.5417 255.738 57.8594 256.118C58.1771 256.493 58.6094 256.777 59.1562 256.97C59.7031 257.157 60.3255 257.251 61.0234 257.251C61.7214 257.251 62.3437 257.157 62.8906 256.97C63.4375 256.777 63.8698 256.493 64.1875 256.118C64.5 255.738 64.6562 255.269 64.6562 254.712ZM71.5 246.657L55 246.657L55 243.376L57.0156 243.376L57.0156 243.228C56.6927 243.082 56.3646 242.871 56.0312 242.595C55.6927 242.313 55.4115 241.949 55.1875 241.501C54.9583 241.048 54.8437 240.485 54.8437 239.813C54.8437 238.938 55.0729 238.131 55.5312 237.392C55.9844 236.652 56.6693 236.061 57.5859 235.618C58.4974 235.175 59.6406 234.954 61.0156 234.954C62.3542 234.954 63.4844 235.17 64.4062 235.603C65.3229 236.03 66.0182 236.613 66.4922 237.353C66.9609 238.087 67.1953 238.91 67.1953 239.821C67.1953 240.467 67.0885 241.017 66.875 241.47C66.6615 241.918 66.3932 242.285 66.0703 242.571C65.7422 242.858 65.4115 243.076 65.0781 243.228L65.0781 243.329L71.5 243.329L71.5 246.657ZM61 243.399C61.7135 243.399 62.3359 243.3 62.8672 243.103C63.3984 242.905 63.8125 242.618 64.1094 242.243C64.401 241.868 64.5469 241.412 64.5469 240.876C64.5469 240.334 64.3984 239.876 64.1016 239.501C63.7995 239.126 63.3828 238.842 62.8516 238.649C62.3151 238.451 61.6979 238.353 61 238.353C60.3073 238.353 59.6979 238.449 59.1719 238.642C58.6458 238.834 58.2344 239.118 57.9375 239.493C57.6406 239.868 57.4922 240.329 57.4922 240.876C57.4922 241.418 57.6354 241.876 57.9219 242.251C58.2083 242.621 58.6146 242.905 59.1406 243.103C59.6667 243.3 60.2865 243.399 61 243.399Z" fill="black"/>
<line x1="129" y1="167" x2="819" y2="167" stroke="black" stroke-opacity="0.3" stroke-width="6"/>
<circle cx="365" cy="167" r="18" transform="rotate(-90 365 167)" fill="#52C322" stroke="black" stroke-width="6"/>
<circle cx="455" cy="167" r="18" transform="rotate(-90 455 167)" fill="#52C322" stroke="black" stroke-width="6"/>
<circle cx="545" cy="167" r="18" transform="rotate(-90 545 167)" fill="#52C322" stroke="black" stroke-width="6"/>
<circle cx="635" cy="167" r="18" transform="rotate(-90 635 167)" fill="#52C322" stroke="black" stroke-width="6"/>
<path d="M435.061 169.061C435.646 168.475 435.646 167.525 435.061 166.939L425.515 157.393C424.929 156.808 423.979 156.808 423.393 157.393C422.808 157.979 422.808 158.929 423.393 159.515L431.879 168L423.393 176.485C422.808 177.071 422.808 178.021 423.393 178.607C423.979 179.192 424.929 179.192 425.515 178.607L435.061 169.061ZM386 169.5L434 169.5V166.5L386 166.5V169.5Z" fill="black"/>
<path d="M525.061 169.061C525.646 168.475 525.646 167.525 525.061 166.939L515.515 157.393C514.929 156.808 513.979 156.808 513.393 157.393C512.808 157.979 512.808 158.929 513.393 159.515L521.879 168L513.393 176.485C512.808 177.071 512.808 178.021 513.393 178.607C513.979 179.192 514.929 179.192 515.515 178.607L525.061 169.061ZM476 169.5L524 169.5V166.5L476 166.5V169.5Z" fill="black"/>
<path d="M615.061 169.061C615.646 168.475 615.646 167.525 615.061 166.939L605.515 157.393C604.929 156.808 603.979 156.808 603.393 157.393C602.808 157.979 602.808 158.929 603.393 159.515L611.879 168L603.393 176.485C602.808 177.071 602.808 178.021 603.393 178.607C603.979 179.192 604.929 179.192 605.515 178.607L615.061 169.061ZM566 169.5L614 169.5L614 166.5L566 166.5L566 169.5Z" fill="black"/>
<path d="M695.656 254.46C696.462 254.65 697.27 254.151 697.46 253.344L700.558 240.204C700.748 239.398 700.249 238.59 699.442 238.4C698.636 238.21 697.828 238.71 697.638 239.516L694.884 251.196L683.204 248.442C682.398 248.252 681.59 248.751 681.4 249.558C681.21 250.364 681.71 251.172 682.516 251.362L695.656 254.46ZM647.724 177.789L694.724 253.789L697.276 252.211L650.276 176.211L647.724 177.789Z" fill="black"/>
<path d="M697.481 88.762C697.35 87.9441 696.58 87.3876 695.762 87.519L682.433 89.6612C681.615 89.7926 681.059 90.5622 681.19 91.3802C681.321 92.1981 682.091 92.7546 682.909 92.6232L694.757 90.719L696.661 102.567C696.793 103.385 697.562 103.941 698.38 103.81C699.198 103.679 699.755 102.909 699.623 102.091L697.481 88.762ZM650.216 154.879L697.216 89.8789L694.784 88.1211L647.784 153.121L650.216 154.879Z" fill="black"/>
<path d="M357.476 187.731C357.327 186.916 356.545 186.376 355.731 186.524L342.45 188.95C341.635 189.098 341.095 189.88 341.244 190.695C341.393 191.51 342.174 192.05 342.989 191.901L354.794 189.745L356.949 201.55C357.098 202.365 357.88 202.905 358.695 202.756C359.51 202.607 360.05 201.826 359.901 201.011L357.476 187.731ZM310.234 256.853L357.234 188.853L354.766 187.147L307.766 255.147L310.234 256.853Z" fill="black"/>
<path d="M515.656 254.46C516.462 254.65 517.27 254.151 517.46 253.344L520.558 240.205C520.748 239.398 520.249 238.59 519.442 238.4C518.636 238.21 517.828 238.71 517.638 239.516L514.884 251.196L503.204 248.442C502.398 248.252 501.59 248.752 501.4 249.558C501.21 250.364 501.71 251.172 502.516 251.362L515.656 254.46ZM467.724 177.789L514.724 253.789L517.276 252.211L470.276 176.211L467.724 177.789Z" fill="black"/>
<path d="M36 207.485L24 207.485L24 205.704L25.8125 205.704L25.8125 205.579C25.2187 205.36 24.737 204.964 24.3672 204.392C23.9974 203.819 23.8125 203.173 23.8125 202.454C23.8125 202.319 23.8151 202.149 23.8203 201.946C23.8255 201.743 23.8333 201.589 23.8437 201.485L25.7187 201.485C25.7031 201.548 25.6797 201.691 25.6484 201.915C25.612 202.134 25.5937 202.365 25.5937 202.61C25.5937 203.194 25.7161 203.714 25.9609 204.173C26.2005 204.626 26.5339 204.985 26.9609 205.251C27.3828 205.511 27.8646 205.642 28.4062 205.642L36 205.642L36 207.485ZM36.25 194.634C36.25 195.79 35.9948 196.787 35.4844 197.626C34.9687 198.459 34.25 199.102 33.3281 199.556C32.401 200.004 31.3229 200.227 30.0937 200.227C28.8646 200.227 27.7812 200.004 26.8437 199.556C25.901 199.102 25.1667 198.472 24.6406 197.665C24.1094 196.852 23.8437 195.905 23.8437 194.821C23.8437 194.196 23.9479 193.579 24.1562 192.97C24.3646 192.36 24.7031 191.806 25.1719 191.306C25.6354 190.806 26.25 190.407 27.0156 190.11C27.7812 189.813 28.724 189.665 29.8437 189.665L30.625 189.665L30.625 198.915L29.0312 198.915L29.0312 191.54C28.3542 191.54 27.75 191.675 27.2187 191.946C26.6875 192.212 26.2682 192.592 25.9609 193.087C25.6536 193.576 25.5 194.155 25.5 194.821C25.5 195.556 25.6823 196.191 26.0469 196.727C26.4062 197.259 26.875 197.668 27.4531 197.954C28.0312 198.24 28.651 198.384 29.3125 198.384L30.375 198.384C31.2812 198.384 32.0495 198.227 32.6797 197.915C33.3047 197.597 33.7812 197.157 34.1094 196.595C34.4323 196.032 34.5937 195.379 34.5937 194.634C34.5937 194.149 34.526 193.712 34.3906 193.321C34.25 192.925 34.0417 192.584 33.7656 192.298C33.4844 192.011 33.1354 191.79 32.7187 191.634L33.2187 189.852C33.8229 190.04 34.3542 190.355 34.8125 190.798C35.2656 191.24 35.6198 191.787 35.875 192.438C36.125 193.089 36.25 193.821 36.25 194.634ZM20 185.017L36 185.017L36 186.86L20 186.86L20 185.017ZM36.25 176.608C36.25 177.765 35.9948 178.762 35.4844 179.601C34.9687 180.434 34.25 181.077 33.3281 181.53C32.401 181.978 31.3229 182.202 30.0937 182.202C28.8646 182.202 27.7812 181.978 26.8437 181.53C25.901 181.077 25.1667 180.447 24.6406 179.64C24.1094 178.827 23.8437 177.879 23.8437 176.796C23.8437 176.171 23.9479 175.554 24.1562 174.944C24.3646 174.335 24.7031 173.78 25.1719 173.28C25.6354 172.78 26.25 172.382 27.0156 172.085C27.7812 171.788 28.724 171.64 29.8437 171.64L30.625 171.64L30.625 180.89L29.0312 180.89L29.0312 173.515C28.3542 173.515 27.75 173.65 27.2187 173.921C26.6875 174.186 26.2682 174.567 25.9609 175.061C25.6536 175.551 25.5 176.129 25.5 176.796C25.5 177.53 25.6823 178.166 26.0469 178.702C26.4062 179.233 26.875 179.642 27.4531 179.929C28.0312 180.215 28.651 180.358 29.3125 180.358L30.375 180.358C31.2812 180.358 32.0495 180.202 32.6797 179.89C33.3047 179.572 33.7812 179.132 34.1094 178.569C34.4323 178.007 34.5937 177.353 34.5937 176.608C34.5937 176.124 34.526 175.686 34.3906 175.296C34.25 174.9 34.0417 174.559 33.7656 174.272C33.4844 173.986 33.1354 173.765 32.7187 173.608L33.2187 171.827C33.8229 172.015 34.3542 172.33 34.8125 172.772C35.2656 173.215 35.6198 173.762 35.875 174.413C36.125 175.064 36.25 175.796 36.25 176.608ZM36.2812 165.304C36.2812 166.064 36.138 166.754 35.8516 167.374C35.5599 167.994 35.1406 168.486 34.5937 168.851C34.0417 169.215 33.375 169.397 32.5937 169.397C31.9062 169.397 31.349 169.262 30.9219 168.991C30.4896 168.72 30.151 168.358 29.9062 167.905C29.6615 167.452 29.4792 166.952 29.3594 166.405C29.2344 165.853 29.1354 165.298 29.0625 164.741C28.9687 164.012 28.8984 163.421 28.8516 162.968C28.7995 162.509 28.7135 162.176 28.5937 161.968C28.474 161.754 28.2656 161.647 27.9687 161.647L27.9062 161.647C27.1354 161.647 26.5365 161.858 26.1094 162.28C25.6823 162.697 25.4687 163.33 25.4687 164.179C25.4687 165.059 25.6615 165.749 26.0469 166.249C26.4323 166.749 26.8437 167.101 27.2812 167.304L26.6562 169.054C25.9271 168.741 25.3594 168.324 24.9531 167.804C24.5417 167.278 24.2552 166.705 24.0937 166.085C23.9271 165.46 23.8437 164.845 23.8437 164.241C23.8437 163.856 23.8906 163.413 23.9844 162.913C24.0729 162.408 24.2578 161.921 24.5391 161.452C24.8203 160.978 25.2448 160.585 25.8125 160.272C26.3802 159.96 27.1406 159.804 28.0937 159.804L36 159.804L36 161.647L34.375 161.647L34.375 161.741C34.6354 161.866 34.9141 162.074 35.2109 162.366C35.5078 162.658 35.7604 163.046 35.9687 163.53C36.1771 164.015 36.2812 164.606 36.2812 165.304ZM34.625 165.022C34.625 164.293 34.4818 163.679 34.1953 163.179C33.9089 162.673 33.5391 162.293 33.0859 162.038C32.6328 161.778 32.1562 161.647 31.6562 161.647L29.9687 161.647C30.0625 161.726 30.1484 161.897 30.2266 162.163C30.2995 162.423 30.3646 162.726 30.4219 163.069C30.474 163.408 30.5208 163.739 30.5625 164.061C30.599 164.379 30.6302 164.637 30.6562 164.835C30.7187 165.314 30.8203 165.762 30.9609 166.179C31.0964 166.59 31.3021 166.923 31.5781 167.179C31.849 167.429 32.2187 167.554 32.6875 167.554C33.3281 167.554 33.8125 167.317 34.1406 166.843C34.4635 166.364 34.625 165.757 34.625 165.022ZM26.6875 147.938L27.1562 149.595C26.8802 149.699 26.612 149.852 26.3516 150.056C26.0859 150.254 25.8672 150.524 25.6953 150.868C25.5234 151.212 25.4375 151.652 25.4375 152.188C25.4375 152.923 25.6068 153.535 25.9453 154.024C26.2786 154.509 26.7031 154.751 27.2187 154.751C27.6771 154.751 28.0391 154.584 28.3047 154.251C28.5703 153.918 28.7917 153.397 28.9687 152.688L29.4062 150.907C29.6667 149.834 30.0651 149.035 30.6016 148.509C31.1328 147.983 31.8177 147.72 32.6562 147.72C33.3437 147.72 33.9583 147.918 34.5 148.313C35.0417 148.704 35.4687 149.251 35.7812 149.954C36.0937 150.657 36.25 151.475 36.25 152.407C36.25 153.631 35.9844 154.644 35.4531 155.446C34.9219 156.248 34.1458 156.756 33.125 156.97L32.6875 155.22C33.3333 155.053 33.8177 154.738 34.1406 154.274C34.4635 153.806 34.625 153.194 34.625 152.438C34.625 151.579 34.4427 150.897 34.0781 150.392C33.7083 149.881 33.2656 149.626 32.75 149.626C32.3333 149.626 31.9844 149.772 31.7031 150.063C31.4167 150.355 31.2031 150.803 31.0625 151.407L30.5937 153.407C30.3333 154.506 29.9297 155.313 29.3828 155.829C28.8307 156.339 28.1406 156.595 27.3125 156.595C26.6354 156.595 26.0365 156.405 25.5156 156.024C24.9948 155.639 24.5859 155.115 24.2891 154.454C23.9922 153.787 23.8437 153.032 23.8437 152.188C23.8437 151.001 24.1042 150.069 24.625 149.392C25.1458 148.709 25.8333 148.225 26.6875 147.938ZM36.25 139.913C36.25 141.069 35.9948 142.067 35.4844 142.905C34.9687 143.739 34.25 144.382 33.3281 144.835C32.401 145.283 31.3229 145.507 30.0937 145.507C28.8646 145.507 27.7812 145.283 26.8437 144.835C25.901 144.382 25.1667 143.752 24.6406 142.944C24.1094 142.132 23.8437 141.184 23.8437 140.101C23.8437 139.476 23.9479 138.858 24.1562 138.249C24.3646 137.64 24.7031 137.085 25.1719 136.585C25.6354 136.085 26.25 135.686 27.0156 135.39C27.7812 135.093 28.724 134.944 29.8437 134.944L30.625 134.944L30.625 144.194L29.0312 144.194L29.0312 136.819C28.3542 136.819 27.75 136.955 27.2187 137.226C26.6875 137.491 26.2682 137.871 25.9609 138.366C25.6536 138.856 25.5 139.434 25.5 140.101C25.5 140.835 25.6823 141.47 26.0469 142.007C26.4062 142.538 26.875 142.947 27.4531 143.233C28.0312 143.52 28.651 143.663 29.3125 143.663L30.375 143.663C31.2812 143.663 32.0495 143.507 32.6797 143.194C33.3047 142.877 33.7812 142.436 34.1094 141.874C34.4323 141.311 34.5937 140.658 34.5937 139.913C34.5937 139.429 34.526 138.991 34.3906 138.601C34.25 138.205 34.0417 137.864 33.7656 137.577C33.4844 137.291 33.1354 137.069 32.7187 136.913L33.2187 135.132C33.8229 135.319 34.3542 135.634 34.8125 136.077C35.2656 136.52 35.6198 137.067 35.875 137.718C36.125 138.369 36.25 139.101 36.25 139.913ZM67 217.913L51 217.913L51 216.069L56.9062 216.069L56.9062 215.913C56.6979 215.778 56.4323 215.59 56.1094 215.351C55.7812 215.106 55.4896 214.757 55.2344 214.304C54.974 213.845 54.8437 213.226 54.8437 212.444C54.8437 211.434 55.0964 210.543 55.6016 209.772C56.1068 209.002 56.8229 208.4 57.75 207.968C58.6771 207.535 59.7708 207.319 61.0312 207.319C62.3021 207.319 63.4036 207.535 64.3359 207.968C65.263 208.4 65.9818 208.999 66.4922 209.765C66.9974 210.53 67.25 211.413 67.25 212.413C67.25 213.184 67.1224 213.801 66.8672 214.265C66.6068 214.728 66.3125 215.085 65.9844 215.335C65.651 215.585 65.375 215.778 65.1562 215.913L65.1562 216.132L67 216.132L67 217.913ZM61 216.101C61.9062 216.101 62.7057 215.968 63.3984 215.702C64.0859 215.436 64.625 215.048 65.0156 214.538C65.401 214.028 65.5937 213.403 65.5937 212.663C65.5937 211.892 65.3906 211.249 64.9844 210.733C64.5729 210.213 64.0208 209.822 63.3281 209.561C62.6302 209.296 61.8542 209.163 61 209.163C60.1562 209.163 59.3958 209.293 58.7187 209.554C58.0365 209.809 57.4974 210.197 57.1016 210.718C56.7005 211.233 56.5 211.882 56.5 212.663C56.5 213.413 56.6901 214.043 57.0703 214.554C57.4453 215.064 57.9714 215.449 58.6484 215.71C59.3203 215.97 60.1042 216.101 61 216.101ZM67 204.499L55 204.499L55 202.718L56.8125 202.718L56.8125 202.593C56.2187 202.374 55.737 201.978 55.3672 201.405C54.9974 200.832 54.8125 200.186 54.8125 199.468C54.8125 199.332 54.8151 199.163 54.8203 198.96C54.8255 198.757 54.8333 198.603 54.8437 198.499L56.7187 198.499C56.7031 198.561 56.6797 198.705 56.6484 198.929C56.612 199.147 56.5937 199.379 56.5937 199.624C56.5937 200.207 56.7161 200.728 56.9609 201.186C57.2005 201.64 57.5339 201.999 57.9609 202.265C58.3828 202.525 58.8646 202.655 59.4062 202.655L67 202.655L67 204.499ZM67.2812 192.782C67.2812 193.543 67.138 194.233 66.8516 194.852C66.5599 195.472 66.1406 195.964 65.5937 196.329C65.0417 196.694 64.375 196.876 63.5937 196.876C62.9062 196.876 62.349 196.74 61.9219 196.47C61.4896 196.199 61.151 195.837 60.9062 195.384C60.6615 194.931 60.4792 194.431 60.3594 193.884C60.2344 193.332 60.1354 192.777 60.0625 192.22C59.9687 191.49 59.8984 190.899 59.8516 190.446C59.7995 189.988 59.7135 189.655 59.5937 189.446C59.474 189.233 59.2656 189.126 58.9687 189.126L58.9062 189.126C58.1354 189.126 57.5365 189.337 57.1094 189.759C56.6823 190.175 56.4687 190.808 56.4687 191.657C56.4687 192.537 56.6615 193.227 57.0469 193.727C57.4323 194.227 57.8437 194.579 58.2812 194.782L57.6562 196.532C56.9271 196.22 56.3594 195.803 55.9531 195.282C55.5417 194.756 55.2552 194.183 55.0937 193.563C54.9271 192.938 54.8437 192.324 54.8437 191.72C54.8437 191.334 54.8906 190.892 54.9844 190.392C55.0729 189.886 55.2578 189.399 55.5391 188.931C55.8203 188.457 56.2448 188.063 56.8125 187.751C57.3802 187.438 58.1406 187.282 59.0937 187.282L67 187.282L67 189.126L65.375 189.126L65.375 189.22C65.6354 189.345 65.9141 189.553 66.2109 189.845C66.5078 190.136 66.7604 190.524 66.9687 191.009C67.1771 191.493 67.2812 192.084 67.2812 192.782ZM65.625 192.501C65.625 191.772 65.4818 191.157 65.1953 190.657C64.9089 190.152 64.5391 189.772 64.0859 189.517C63.6328 189.256 63.1562 189.126 62.6562 189.126L60.9687 189.126C61.0625 189.204 61.1484 189.376 61.2266 189.642C61.2995 189.902 61.3646 190.204 61.4219 190.548C61.474 190.886 61.5208 191.217 61.5625 191.54C61.599 191.858 61.6302 192.115 61.6562 192.313C61.7187 192.793 61.8203 193.24 61.9609 193.657C62.0964 194.069 62.3021 194.402 62.5781 194.657C62.849 194.907 63.2187 195.032 63.6875 195.032C64.3281 195.032 64.8125 194.795 65.1406 194.321C65.4635 193.842 65.625 193.235 65.625 192.501ZM59.7812 182.073L67 182.073L67 183.917L55 183.917L55 182.136L56.875 182.136L56.875 181.979C56.2656 181.698 55.776 181.271 55.4062 180.698C55.0312 180.125 54.8437 179.386 54.8437 178.479C54.8437 177.667 55.0104 176.956 55.3437 176.347C55.6719 175.737 56.1719 175.263 56.8437 174.925C57.5104 174.586 58.3542 174.417 59.375 174.417L67 174.417L67 176.261L59.5 176.261C58.5573 176.261 57.8229 176.505 57.2969 176.995C56.7656 177.485 56.5 178.157 56.5 179.011C56.5 179.599 56.6276 180.125 56.8828 180.589C57.138 181.047 57.5104 181.409 58 181.675C58.4896 181.94 59.0833 182.073 59.7812 182.073ZM67.25 166.173C67.25 167.298 66.9844 168.267 66.4531 169.079C65.9219 169.892 65.1901 170.517 64.2578 170.954C63.3255 171.392 62.2604 171.61 61.0625 171.61C59.8437 171.61 58.7682 171.386 57.8359 170.938C56.8984 170.485 56.1667 169.855 55.6406 169.048C55.1094 168.235 54.8437 167.287 54.8437 166.204C54.8437 165.36 55 164.6 55.3125 163.923C55.625 163.246 56.0625 162.691 56.625 162.259C57.1875 161.826 57.8437 161.558 58.5937 161.454L58.5937 163.298C58.0469 163.438 57.5625 163.751 57.1406 164.235C56.7135 164.714 56.5 165.36 56.5 166.173C56.5 166.892 56.6875 167.522 57.0625 168.063C57.4323 168.6 57.9557 169.019 58.6328 169.321C59.3047 169.618 60.0937 169.767 61 169.767C61.9271 169.767 62.7344 169.621 63.4219 169.329C64.1094 169.032 64.6432 168.615 65.0234 168.079C65.4036 167.537 65.5937 166.902 65.5937 166.173C65.5937 165.694 65.5104 165.259 65.3437 164.868C65.1771 164.477 64.9375 164.147 64.625 163.876C64.3125 163.605 63.9375 163.412 63.5 163.298L63.5 161.454C64.2083 161.558 64.8464 161.816 65.4141 162.227C65.9766 162.634 66.4245 163.173 66.7578 163.845C67.0859 164.511 67.25 165.287 67.25 166.173ZM59.7812 156.915L67 156.915L67 158.759L51 158.759L51 156.915L56.875 156.915L56.875 156.759C56.2552 156.477 55.763 156.056 55.3984 155.493C55.0286 154.925 54.8437 154.17 54.8437 153.227C54.8437 152.41 55.0078 151.694 55.3359 151.079C55.6589 150.464 56.1562 149.988 56.8281 149.649C57.4948 149.306 58.3437 149.134 59.375 149.134L67 149.134L67 150.977L59.5 150.977C58.5469 150.977 57.8099 151.225 57.2891 151.72C56.763 152.209 56.5 152.889 56.5 153.759C56.5 154.363 56.6276 154.905 56.8828 155.384C57.138 155.858 57.5104 156.233 58 156.509C58.4896 156.78 59.0833 156.915 59.7812 156.915ZM67.25 140.729C67.25 141.886 66.9948 142.883 66.4844 143.722C65.9687 144.555 65.25 145.198 64.3281 145.651C63.401 146.099 62.3229 146.323 61.0937 146.323C59.8646 146.323 58.7812 146.099 57.8437 145.651C56.901 145.198 56.1667 144.568 55.6406 143.761C55.1094 142.948 54.8437 142 54.8437 140.917C54.8437 140.292 54.9479 139.675 55.1562 139.065C55.3646 138.456 55.7031 137.901 56.1719 137.401C56.6354 136.901 57.25 136.503 58.0156 136.206C58.7812 135.909 59.724 135.761 60.8437 135.761L61.625 135.761L61.625 145.011L60.0312 145.011L60.0312 137.636C59.3542 137.636 58.75 137.771 58.2187 138.042C57.6875 138.308 57.2682 138.688 56.9609 139.183C56.6536 139.672 56.5 140.25 56.5 140.917C56.5 141.651 56.6823 142.287 57.0469 142.823C57.4062 143.354 57.875 143.763 58.4531 144.05C59.0312 144.336 59.651 144.479 60.3125 144.479L61.375 144.479C62.2812 144.479 63.0495 144.323 63.6797 144.011C64.3047 143.693 64.7812 143.253 65.1094 142.69C65.4323 142.128 65.5937 141.474 65.5937 140.729C65.5937 140.245 65.526 139.808 65.3906 139.417C65.25 139.021 65.0417 138.68 64.7656 138.393C64.4844 138.107 64.1354 137.886 63.7187 137.729L64.2187 135.948C64.8229 136.136 65.3542 136.451 65.8125 136.893C66.2656 137.336 66.6198 137.883 66.875 138.534C67.125 139.185 67.25 139.917 67.25 140.729ZM57.6875 124.456L58.1562 126.112C57.8802 126.216 57.612 126.37 57.3516 126.573C57.0859 126.771 56.8672 127.042 56.6953 127.386C56.5234 127.729 56.4375 128.17 56.4375 128.706C56.4375 129.44 56.6068 130.052 56.9453 130.542C57.2786 131.026 57.7031 131.268 58.2187 131.268C58.6771 131.268 59.0391 131.102 59.3047 130.768C59.5703 130.435 59.7917 129.914 59.9687 129.206L60.4062 127.425C60.6667 126.352 61.0651 125.552 61.6016 125.026C62.1328 124.5 62.8177 124.237 63.6562 124.237C64.3437 124.237 64.9583 124.435 65.5 124.831C66.0417 125.222 66.4687 125.768 66.7812 126.472C67.0937 127.175 67.25 127.992 67.25 128.925C67.25 130.149 66.9844 131.162 66.4531 131.964C65.9219 132.766 65.1458 133.274 64.125 133.487L63.6875 131.737C64.3333 131.571 64.8177 131.255 65.1406 130.792C65.4635 130.323 65.625 129.711 65.625 128.956C65.625 128.097 65.4427 127.414 65.0781 126.909C64.7083 126.399 64.2656 126.143 63.75 126.143C63.3333 126.143 62.9844 126.289 62.7031 126.581C62.4167 126.873 62.2031 127.321 62.0625 127.925L61.5937 129.925C61.3333 131.024 60.9297 131.831 60.3828 132.347C59.8307 132.857 59.1406 133.112 58.3125 133.112C57.6354 133.112 57.0365 132.922 56.5156 132.542C55.9948 132.157 55.5859 131.633 55.2891 130.972C54.9922 130.305 54.8437 129.55 54.8437 128.706C54.8437 127.518 55.1042 126.586 55.625 125.909C56.1458 125.227 56.8333 124.742 57.6875 124.456Z" fill="black"/>
<line x1="819" y1="66" x2="129" y2="66" stroke="black" stroke-opacity="0.3" stroke-width="6"/>
<circle cx="703.5" cy="65.5" r="18" transform="rotate(90 703.5 65.5)" fill="#27E4F9" stroke="black" stroke-width="6"/>
<circle cx="225.5" cy="65.5" r="18" transform="rotate(90 225.5 65.5)" fill="#27E4F9" stroke="black" stroke-width="6"/>
<path d="M67 99.5488L55 99.5488L55 96.3769L57.1172 96.3769L57.1172 96.2363C56.4141 95.9863 55.8594 95.5696 55.4531 94.9863C55.0469 94.403 54.8438 93.705 54.8438 92.8925C54.8438 92.0696 55.0495 91.3691 55.4609 90.791C55.8672 90.2129 56.4193 89.8274 57.1172 89.6347L57.1172 89.5097C56.4297 89.2649 55.8802 88.8222 55.4687 88.1816C55.0521 87.5358 54.8438 86.7728 54.8438 85.8925C54.8438 84.7728 55.2005 83.8639 55.9141 83.166C56.6224 82.4629 57.6276 82.1113 58.9297 82.1113L67 82.1113L67 85.4316L59.5859 85.4316C58.9193 85.4316 58.4193 85.6087 58.0859 85.9629C57.7526 86.317 57.5859 86.7597 57.5859 87.291C57.5859 87.8952 57.7786 88.3665 58.1641 88.705C58.5443 89.0436 59.0469 89.2129 59.6719 89.2129L67 89.2129L67 92.4394L59.5156 92.4394C58.9271 92.4394 58.4583 92.6087 58.1094 92.9472C57.7604 93.2806 57.5859 93.7207 57.5859 94.2675C57.5859 94.6373 57.6797 94.9707 57.8672 95.2675C58.0495 95.5592 58.3073 95.791 58.6406 95.9629C58.9687 96.1347 59.3542 96.2207 59.7969 96.2207L67 96.2207L67 99.5488ZM67.2266 76.0605C67.2266 76.8261 67.0938 77.5084 66.8281 78.1074C66.5573 78.7063 66.1589 79.1803 65.6328 79.5293C65.1016 79.873 64.4401 80.0449 63.6484 80.0449C62.9818 80.0449 62.4219 79.9225 61.9688 79.6777C61.5156 79.4329 61.151 79.0996 60.875 78.6777C60.599 78.2558 60.3906 77.7767 60.25 77.2402C60.1094 76.6985 60.0104 76.1308 59.9531 75.5371C59.8802 74.8392 59.8125 74.2767 59.75 73.8496C59.6823 73.4225 59.5833 73.1126 59.4531 72.9199C59.3229 72.7272 59.1302 72.6308 58.875 72.6308L58.8281 72.6308C58.3333 72.6308 57.9505 72.7871 57.6797 73.0996C57.4089 73.4069 57.2734 73.8444 57.2734 74.4121C57.2734 75.011 57.4062 75.4876 57.6719 75.8418C57.9323 76.1959 58.2604 76.4303 58.6563 76.5449L58.4063 79.623C57.6771 79.4668 57.0469 79.1595 56.5156 78.7011C55.9792 78.2428 55.5677 77.6517 55.2812 76.9277C54.9896 76.1985 54.8438 75.3548 54.8438 74.3965C54.8438 73.7298 54.9219 73.0918 55.0781 72.4824C55.2344 71.8678 55.4766 71.3235 55.8047 70.8496C56.1328 70.3704 56.5547 69.9928 57.0703 69.7168C57.5807 69.4407 58.1927 69.3027 58.9062 69.3027L67 69.3027L67 72.459L65.3359 72.459L65.3359 72.5527C65.7109 72.7454 66.0417 73.0032 66.3281 73.3261C66.6094 73.6491 66.8307 74.0371 66.9922 74.4902C67.1484 74.9433 67.2266 75.4668 67.2266 76.0605ZM64.9297 75.1074C64.9297 74.6178 64.8333 74.1855 64.6406 73.8105C64.4427 73.4355 64.1771 73.1412 63.8438 72.9277C63.5104 72.7142 63.1328 72.6074 62.7109 72.6074L61.4375 72.6074C61.5052 72.7116 61.5677 72.8548 61.625 73.0371C61.6771 73.2142 61.7266 73.4147 61.7734 73.6386C61.8151 73.8626 61.8542 74.0866 61.8906 74.3105C61.9219 74.5345 61.9505 74.7376 61.9766 74.9199C62.0339 75.3105 62.125 75.6517 62.25 75.9433C62.375 76.235 62.5443 76.4616 62.7578 76.623C62.9661 76.7845 63.2266 76.8652 63.5391 76.8652C63.9922 76.8652 64.3385 76.7011 64.5781 76.373C64.8125 76.0397 64.9297 75.6178 64.9297 75.1074ZM58.4219 56.7363L58.6094 59.7832C58.349 59.8353 58.1146 59.9472 57.9063 60.1191C57.6927 60.291 57.5234 60.5175 57.3984 60.7988C57.2682 61.0748 57.2031 61.4056 57.2031 61.791C57.2031 62.3066 57.3125 62.7415 57.5312 63.0957C57.7448 63.4498 58.0312 63.6269 58.3906 63.6269C58.6771 63.6269 58.9193 63.5123 59.1172 63.2832C59.3151 63.054 59.474 62.6608 59.5937 62.1035L60.0313 59.9316C60.2708 58.7649 60.6563 57.8952 61.1875 57.3222C61.7188 56.7493 62.4167 56.4629 63.2813 56.4629C64.0677 56.4629 64.7578 56.6946 65.3516 57.1582C65.9453 57.6165 66.4089 58.2467 66.7422 59.0488C67.0703 59.8457 67.2344 60.7649 67.2344 61.8066C67.2344 63.3952 66.9036 64.6608 66.2422 65.6035C65.5755 66.541 64.6693 67.0905 63.5234 67.2519L63.3516 63.9785C63.8359 63.8795 64.2057 63.6399 64.4609 63.2597C64.7109 62.8795 64.8359 62.3925 64.8359 61.7988C64.8359 61.2155 64.724 60.7467 64.5 60.3925C64.2708 60.0332 63.9766 59.8509 63.6172 59.8457C63.3151 59.8509 63.0677 59.9785 62.875 60.2285C62.6771 60.4785 62.526 60.8639 62.4219 61.3847L62.0078 63.4629C61.7734 64.6347 61.3672 65.5071 60.7891 66.08C60.2109 66.6478 59.474 66.9316 58.5781 66.9316C57.8073 66.9316 57.1432 66.7233 56.5859 66.3066C56.0286 65.8847 55.599 65.2936 55.2969 64.5332C54.9948 63.7675 54.8438 62.8717 54.8438 61.8457C54.8438 60.33 55.1641 59.1373 55.8047 58.2675C56.4453 57.3925 57.3177 56.8821 58.4219 56.7363ZM55 47.9843L57.5 47.9843L57.5 55.2109L55 55.2109L55 47.9843ZM52.125 53.5703L52.125 50.2422L63.3125 50.2422C63.6198 50.2422 63.8594 50.1953 64.0313 50.1015C64.1979 50.0078 64.3151 49.8776 64.3828 49.7109C64.4505 49.539 64.4844 49.3411 64.4844 49.1172C64.4844 48.9609 64.4714 48.8047 64.4453 48.6484C64.4141 48.4922 64.3906 48.3724 64.375 48.289L66.8516 47.7656C66.9036 47.9323 66.9635 48.1666 67.0313 48.4687C67.1042 48.7708 67.1484 49.138 67.1641 49.5703C67.1953 50.3724 67.0885 51.0755 66.8438 51.6797C66.599 52.2786 66.2188 52.7448 65.7031 53.0781C65.1875 53.4114 64.5365 53.5755 63.75 53.5703L52.125 53.5703ZM67.2344 40.4765C67.2344 41.7109 66.9844 42.7734 66.4844 43.664C65.9792 44.5494 65.2656 45.2317 64.3438 45.7109C63.4167 46.1901 62.3203 46.4297 61.0547 46.4297C59.8203 46.4297 58.737 46.1901 57.8047 45.7109C56.8724 45.2317 56.1458 44.5573 55.625 43.6875C55.1042 42.8125 54.8438 41.7864 54.8438 40.6093C54.8438 39.8177 54.9714 39.0807 55.2266 38.3984C55.4766 37.7109 55.8542 37.1119 56.3594 36.6015C56.8646 36.0859 57.5 35.6849 58.2656 35.3984C59.026 35.1119 59.9167 34.9687 60.9375 34.9687L61.8516 34.9687L61.8516 45.1015L59.7891 45.1015L59.7891 38.1015C59.3099 38.1015 58.8854 38.2057 58.5156 38.414C58.1458 38.6224 57.8568 38.9114 57.6484 39.2812C57.4349 39.6458 57.3281 40.0703 57.3281 40.5547C57.3281 41.0599 57.4453 41.5078 57.6797 41.8984C57.9089 42.2838 58.2188 42.5859 58.6094 42.8047C58.9948 43.0234 59.4245 43.1354 59.8984 43.1406L61.8594 43.1406C62.4531 43.1406 62.9661 43.0312 63.3984 42.8125C63.8307 42.5885 64.1641 42.2734 64.3984 41.8672C64.6328 41.4609 64.75 40.9791 64.75 40.4218C64.75 40.0521 64.6979 39.7135 64.5938 39.4062C64.4896 39.0989 64.3333 38.8359 64.125 38.6172C63.9167 38.3984 63.6615 38.2317 63.3594 38.1172L63.5625 35.039C64.3021 35.1953 64.9479 35.5156 65.5 36C66.0469 36.4791 66.474 37.0989 66.7813 37.8593C67.0833 38.6146 67.2344 39.4869 67.2344 40.4765ZM67 32.7968L55 32.7968L55 29.5703L57.0938 29.5703L57.0938 29.4453C56.349 29.2265 55.7865 28.8593 55.4063 28.3437C55.0208 27.8281 54.8281 27.2343 54.8281 26.5625C54.8281 26.3958 54.8385 26.2161 54.8594 26.0234C54.8802 25.8307 54.9089 25.6614 54.9453 25.5156L57.8984 25.5156C57.8516 25.6718 57.8099 25.888 57.7734 26.164C57.737 26.4401 57.7188 26.6927 57.7188 26.9218C57.7188 27.4114 57.8255 27.8489 58.0391 28.2343C58.2474 28.6146 58.5391 28.9166 58.9141 29.1406C59.2891 29.3593 59.7214 29.4687 60.2109 29.4687L67 29.4687L67 32.7968Z" fill="black"/>
</g>
<defs>
<clipPath id="clip0_3_69">
<rect width="345" height="882" fill="white" transform="translate(0 345) rotate(-90)"/>
</clipPath>
</defs>
</svg>
