<svg width="1524" height="315" viewBox="0 0 1524 315" fill="none" xmlns="http://www.w3.org/2000/svg">
<g clip-path="url(#clip0_120_2)">
<rect width="315" height="1524" transform="translate(0 315) rotate(-90)" fill="white"/>
<line x1="127" y1="192" x2="1219" y2="192.001" stroke="black" stroke-opacity="0.3" stroke-width="6"/>
<path d="M1324.96 81.6389C1324.76 80.8349 1323.94 80.3451 1323.14 80.5449L1310.04 83.7999C1309.23 83.9997 1308.74 84.8134 1308.94 85.6174C1309.14 86.4214 1309.96 86.9112 1310.76 86.7114L1322.41 83.818L1325.3 95.464C1325.5 96.2679 1326.31 96.7578 1327.12 96.558C1327.92 96.3583 1328.41 95.5446 1328.21 94.7406L1324.96 81.6389ZM1264.29 183.274L1324.79 82.7742L1322.21 81.227L1261.71 181.727L1264.29 183.274Z" fill="black"/>
<circle cx="1065" cy="189" r="18" transform="rotate(-90 1065 189)" fill="#FB3DB5" stroke="black" stroke-width="6"/>
<circle cx="1155" cy="189" r="18" transform="rotate(-90 1155 189)" fill="#FB3DB5" stroke="black" stroke-width="6"/>
<circle cx="1247" cy="189" r="18" transform="rotate(-90 1247 189)" fill="#FB3DB5" stroke="black" stroke-width="6"/>
<path d="M1135.06 191.061C1135.65 190.475 1135.65 189.526 1135.06 188.94L1125.51 179.394C1124.93 178.808 1123.98 178.808 1123.39 179.394C1122.81 179.98 1122.81 180.929 1123.39 181.515L1131.88 190L1123.39 198.486C1122.81 199.071 1122.81 200.021 1123.39 200.607C1123.98 201.193 1124.93 201.193 1125.51 200.607L1135.06 191.061ZM1083 191.5L1134 191.5L1134 188.5L1083 188.5L1083 191.5Z" fill="black"/>
<path d="M1227.06 192.061C1227.65 191.475 1227.65 190.526 1227.06 189.94L1217.51 180.394C1216.93 179.808 1215.98 179.808 1215.39 180.394C1214.81 180.98 1214.81 181.929 1215.39 182.515L1223.88 191L1215.39 199.486C1214.81 200.071 1214.81 201.021 1215.39 201.607C1215.98 202.193 1216.93 202.193 1217.51 201.607L1227.06 192.061ZM1175 192.5L1226 192.5L1226 189.5L1175 189.5L1175 192.5Z" fill="black"/>
<path d="M1046.65 177.459C1047.46 177.652 1048.27 177.155 1048.46 176.35L1051.6 163.22C1051.79 162.415 1051.3 161.605 1050.49 161.412C1049.68 161.22 1048.88 161.716 1048.68 162.522L1045.89 174.193L1034.22 171.4C1033.41 171.208 1032.6 171.705 1032.41 172.51C1032.22 173.316 1032.72 174.125 1033.52 174.318L1046.65 177.459ZM983.722 75.7854L1045.72 176.785L1048.28 175.216L986.278 74.2159L983.722 75.7854Z" fill="black"/>
<circle cx="495" cy="193" r="18" transform="rotate(-90 495 193)" fill="#FB3DB5" stroke="black" stroke-width="6"/>
<circle cx="595" cy="193" r="18" transform="rotate(-90 595 193)" fill="#FB3DB5" stroke="black" stroke-width="6"/>
<circle cx="695" cy="193" r="18" transform="rotate(-90 695 193)" fill="#FB3DB5" stroke="black" stroke-width="6"/>
<path d="M480.526 178.424C481.312 178.685 482.161 178.261 482.423 177.475L486.692 164.668C486.954 163.882 486.529 163.032 485.743 162.77C484.958 162.508 484.108 162.933 483.846 163.719L480.051 175.103L468.667 171.308C467.881 171.046 467.032 171.471 466.77 172.257C466.508 173.043 466.933 173.892 467.718 174.154L480.526 178.424ZM430.658 79.6708L479.658 177.671L482.342 176.33L433.342 78.3292L430.658 79.6708Z" fill="black"/>
<path d="M575.043 194.078C575.638 193.503 575.654 192.553 575.078 191.957L565.696 182.251C565.12 181.655 564.17 181.639 563.575 182.215C562.979 182.791 562.963 183.741 563.539 184.336L571.879 192.964L563.251 201.304C562.655 201.88 562.639 202.83 563.215 203.425C563.791 204.021 564.741 204.037 565.336 203.461L575.043 194.078ZM514.975 193.5L573.975 194.5L574.025 191.5L515.025 190.5L514.975 193.5Z" fill="black"/>
<path d="M675.061 195.061C675.646 194.475 675.646 193.525 675.061 192.939L665.515 183.393C664.929 182.808 663.979 182.808 663.393 183.393C662.808 183.979 662.808 184.929 663.393 185.515L671.879 194L663.393 202.485C662.808 203.071 662.808 204.021 663.393 204.607C663.979 205.192 664.929 205.192 665.515 204.607L675.061 195.061ZM616 195.5L674 195.5L674 192.5L616 192.5L616 195.5Z" fill="black"/>
<path d="M755.425 86.5318C755.167 85.7448 754.319 85.3164 753.532 85.5749L740.706 89.7884C739.919 90.047 739.491 90.8946 739.749 91.6817C740.008 92.4687 740.856 92.8971 741.643 92.6386L753.043 88.8932L756.788 100.294C757.047 101.081 757.895 101.509 758.682 101.251C759.469 100.992 759.897 100.144 759.639 99.3574L755.425 86.5318ZM708.839 179.677L755.339 87.6766L752.661 86.3234L706.161 178.324L708.839 179.677Z" fill="black"/>
<path d="M313 136H408C419.598 136 429 145.402 429 157V168.194C429 172.616 431.648 176.608 435.721 178.328L468.505 192.17L436.521 202.831C432.03 204.328 429 208.531 429 213.266V226C429 237.598 419.598 247 408 247H398.5H313C301.402 247 292 237.598 292 226V157C292 145.402 301.402 136 313 136Z" fill="url(#paint0_linear_120_2)" stroke="black" stroke-width="6"/>
<path d="M340.636 165.364H342.317L346.272 175.023H346.408L350.363 165.364H352.045V177H350.727V168.159H350.613L346.977 177H345.704L342.067 168.159H341.954V177H340.636V165.364ZM357.256 177.205C356.703 177.205 356.201 177.1 355.751 176.892C355.3 176.68 354.942 176.375 354.677 175.977C354.412 175.576 354.279 175.091 354.279 174.523C354.279 174.023 354.378 173.617 354.575 173.307C354.772 172.992 355.035 172.746 355.364 172.568C355.694 172.39 356.058 172.258 356.455 172.17C356.857 172.08 357.26 172.008 357.665 171.955C358.196 171.886 358.626 171.835 358.955 171.801C359.289 171.763 359.531 171.701 359.683 171.614C359.838 171.527 359.915 171.375 359.915 171.159V171.114C359.915 170.553 359.762 170.117 359.455 169.807C359.152 169.496 358.692 169.341 358.075 169.341C357.434 169.341 356.933 169.481 356.569 169.761C356.205 170.042 355.95 170.341 355.802 170.659L354.529 170.205C354.756 169.674 355.059 169.261 355.438 168.966C355.821 168.667 356.237 168.458 356.688 168.341C357.143 168.22 357.59 168.159 358.029 168.159C358.309 168.159 358.631 168.193 358.995 168.261C359.362 168.326 359.717 168.46 360.058 168.665C360.402 168.869 360.688 169.178 360.915 169.591C361.143 170.004 361.256 170.557 361.256 171.25V177H359.915V175.818H359.847C359.756 176.008 359.605 176.21 359.393 176.426C359.181 176.642 358.898 176.826 358.546 176.977C358.194 177.129 357.764 177.205 357.256 177.205ZM357.461 176C357.991 176 358.438 175.896 358.802 175.688C359.169 175.479 359.446 175.21 359.631 174.881C359.821 174.551 359.915 174.205 359.915 173.841V172.614C359.859 172.682 359.734 172.744 359.54 172.801C359.351 172.854 359.131 172.902 358.881 172.943C358.635 172.981 358.395 173.015 358.16 173.045C357.929 173.072 357.741 173.095 357.597 173.114C357.249 173.159 356.923 173.233 356.62 173.335C356.321 173.434 356.078 173.583 355.893 173.784C355.711 173.981 355.62 174.25 355.62 174.591C355.62 175.057 355.792 175.409 356.137 175.648C356.486 175.883 356.927 176 357.461 176ZM363.704 168.273H365.045V177.636C365.045 178.174 364.952 178.64 364.766 179.034C364.585 179.428 364.308 179.733 363.937 179.949C363.569 180.165 363.105 180.273 362.545 180.273C362.499 180.273 362.454 180.273 362.408 180.273C362.363 180.273 362.317 180.273 362.272 180.273V179.023C362.317 179.023 362.359 179.023 362.397 179.023C362.435 179.023 362.477 179.023 362.522 179.023C362.931 179.023 363.23 178.902 363.42 178.659C363.609 178.42 363.704 178.08 363.704 177.636V168.273ZM364.363 166.818C364.102 166.818 363.876 166.729 363.687 166.551C363.501 166.373 363.408 166.159 363.408 165.909C363.408 165.659 363.501 165.445 363.687 165.267C363.876 165.089 364.102 165 364.363 165C364.624 165 364.848 165.089 365.033 165.267C365.223 165.445 365.317 165.659 365.317 165.909C365.317 166.159 365.223 166.373 365.033 166.551C364.848 166.729 364.624 166.818 364.363 166.818ZM371.046 177.182C370.258 177.182 369.567 176.994 368.972 176.619C368.381 176.244 367.919 175.72 367.586 175.045C367.256 174.371 367.092 173.583 367.092 172.682C367.092 171.773 367.256 170.979 367.586 170.301C367.919 169.623 368.381 169.097 368.972 168.722C369.567 168.347 370.258 168.159 371.046 168.159C371.834 168.159 372.523 168.347 373.114 168.722C373.709 169.097 374.171 169.623 374.501 170.301C374.834 170.979 375.001 171.773 375.001 172.682C375.001 173.583 374.834 174.371 374.501 175.045C374.171 175.72 373.709 176.244 373.114 176.619C372.523 176.994 371.834 177.182 371.046 177.182ZM371.046 175.977C371.645 175.977 372.137 175.824 372.523 175.517C372.91 175.21 373.196 174.807 373.381 174.307C373.567 173.807 373.66 173.265 373.66 172.682C373.66 172.098 373.567 171.555 373.381 171.051C373.196 170.547 372.91 170.14 372.523 169.83C372.137 169.519 371.645 169.364 371.046 169.364C370.448 169.364 369.955 169.519 369.569 169.83C369.183 170.14 368.897 170.547 368.711 171.051C368.525 171.555 368.433 172.098 368.433 172.682C368.433 173.265 368.525 173.807 368.711 174.307C368.897 174.807 369.183 175.21 369.569 175.517C369.955 175.824 370.448 175.977 371.046 175.977ZM377.048 177V168.273H378.343V169.591H378.434C378.593 169.159 378.881 168.809 379.298 168.54C379.714 168.271 380.184 168.136 380.707 168.136C380.805 168.136 380.928 168.138 381.076 168.142C381.224 168.146 381.335 168.152 381.411 168.159V169.523C381.366 169.511 381.262 169.494 381.099 169.472C380.94 169.445 380.771 169.432 380.593 169.432C380.169 169.432 379.79 169.521 379.457 169.699C379.127 169.873 378.866 170.116 378.673 170.426C378.483 170.733 378.388 171.083 378.388 171.477V177H377.048ZM325.989 187.273V188.409H321.284V187.273H325.989ZM322.693 196V186.068C322.693 185.568 322.811 185.152 323.045 184.818C323.28 184.485 323.585 184.235 323.96 184.068C324.335 183.902 324.731 183.818 325.148 183.818C325.477 183.818 325.746 183.845 325.955 183.898C326.163 183.951 326.318 184 326.42 184.045L326.034 185.205C325.966 185.182 325.871 185.153 325.75 185.119C325.633 185.085 325.477 185.068 325.284 185.068C324.841 185.068 324.521 185.18 324.324 185.403C324.131 185.627 324.034 185.955 324.034 186.386V196H322.693ZM331.168 196.182C330.327 196.182 329.601 195.996 328.991 195.625C328.385 195.25 327.918 194.727 327.588 194.057C327.262 193.383 327.099 192.598 327.099 191.705C327.099 190.811 327.262 190.023 327.588 189.341C327.918 188.655 328.376 188.121 328.963 187.739C329.554 187.352 330.243 187.159 331.031 187.159C331.486 187.159 331.935 187.235 332.378 187.386C332.821 187.538 333.224 187.784 333.588 188.125C333.952 188.462 334.241 188.909 334.457 189.466C334.673 190.023 334.781 190.708 334.781 191.523V192.091H328.054V190.932H333.418C333.418 190.439 333.319 190 333.122 189.614C332.929 189.227 332.652 188.922 332.293 188.699C331.937 188.475 331.516 188.364 331.031 188.364C330.497 188.364 330.035 188.496 329.645 188.761C329.259 189.023 328.961 189.364 328.753 189.784C328.545 190.205 328.44 190.655 328.44 191.136V191.909C328.44 192.568 328.554 193.127 328.781 193.585C329.012 194.04 329.332 194.386 329.741 194.625C330.151 194.86 330.626 194.977 331.168 194.977C331.52 194.977 331.838 194.928 332.122 194.83C332.41 194.727 332.658 194.576 332.866 194.375C333.075 194.17 333.236 193.917 333.349 193.614L334.645 193.977C334.509 194.417 334.279 194.803 333.957 195.136C333.635 195.466 333.238 195.723 332.764 195.909C332.291 196.091 331.759 196.182 331.168 196.182ZM339.389 196.205C338.836 196.205 338.334 196.1 337.884 195.892C337.433 195.68 337.075 195.375 336.81 194.977C336.545 194.576 336.412 194.091 336.412 193.523C336.412 193.023 336.51 192.617 336.707 192.307C336.904 191.992 337.168 191.746 337.497 191.568C337.827 191.39 338.19 191.258 338.588 191.17C338.99 191.08 339.393 191.008 339.798 190.955C340.329 190.886 340.759 190.835 341.088 190.801C341.421 190.763 341.664 190.701 341.815 190.614C341.971 190.527 342.048 190.375 342.048 190.159V190.114C342.048 189.553 341.895 189.117 341.588 188.807C341.285 188.496 340.825 188.341 340.207 188.341C339.567 188.341 339.065 188.481 338.702 188.761C338.338 189.042 338.082 189.341 337.935 189.659L336.662 189.205C336.889 188.674 337.192 188.261 337.571 187.966C337.954 187.667 338.37 187.458 338.821 187.341C339.276 187.22 339.723 187.159 340.162 187.159C340.442 187.159 340.764 187.193 341.128 187.261C341.495 187.326 341.849 187.46 342.19 187.665C342.535 187.869 342.821 188.178 343.048 188.591C343.276 189.004 343.389 189.557 343.389 190.25V196H342.048V194.818H341.98C341.889 195.008 341.738 195.21 341.526 195.426C341.313 195.642 341.031 195.826 340.679 195.977C340.327 196.129 339.897 196.205 339.389 196.205ZM339.594 195C340.124 195 340.571 194.896 340.935 194.688C341.302 194.479 341.579 194.21 341.764 193.881C341.954 193.551 342.048 193.205 342.048 192.841V191.614C341.991 191.682 341.866 191.744 341.673 191.801C341.484 191.854 341.264 191.902 341.014 191.943C340.768 191.981 340.527 192.015 340.293 192.045C340.062 192.072 339.874 192.095 339.73 192.114C339.382 192.159 339.056 192.233 338.753 192.335C338.454 192.434 338.211 192.583 338.026 192.784C337.844 192.981 337.753 193.25 337.753 193.591C337.753 194.057 337.925 194.409 338.27 194.648C338.618 194.883 339.06 195 339.594 195ZM349.632 187.273V188.409H345.109V187.273H349.632ZM346.428 185.182H347.768V193.5C347.768 193.879 347.823 194.163 347.933 194.352C348.047 194.538 348.191 194.663 348.365 194.727C348.543 194.788 348.731 194.818 348.928 194.818C349.075 194.818 349.196 194.811 349.291 194.795C349.386 194.777 349.462 194.761 349.518 194.75L349.791 195.955C349.7 195.989 349.573 196.023 349.411 196.057C349.248 196.095 349.041 196.114 348.791 196.114C348.412 196.114 348.041 196.032 347.678 195.869C347.318 195.706 347.018 195.458 346.78 195.125C346.545 194.792 346.428 194.371 346.428 193.864V185.182ZM357.149 192.432V187.273H358.49V196H357.149V194.523H357.058C356.854 194.966 356.536 195.343 356.104 195.653C355.672 195.96 355.126 196.114 354.467 196.114C353.922 196.114 353.437 195.994 353.013 195.756C352.589 195.513 352.255 195.15 352.013 194.665C351.77 194.176 351.649 193.561 351.649 192.818V187.273H352.99V192.727C352.99 193.364 353.168 193.871 353.524 194.25C353.884 194.629 354.342 194.818 354.899 194.818C355.232 194.818 355.571 194.733 355.916 194.562C356.265 194.392 356.556 194.131 356.791 193.778C357.03 193.426 357.149 192.977 357.149 192.432ZM360.946 196V187.273H362.241V188.591H362.332C362.491 188.159 362.779 187.809 363.196 187.54C363.613 187.271 364.082 187.136 364.605 187.136C364.704 187.136 364.827 187.138 364.974 187.142C365.122 187.146 365.234 187.152 365.31 187.159V188.523C365.264 188.511 365.16 188.494 364.997 188.472C364.838 188.445 364.67 188.432 364.491 188.432C364.067 188.432 363.688 188.521 363.355 188.699C363.026 188.873 362.764 189.116 362.571 189.426C362.382 189.733 362.287 190.083 362.287 190.477V196H360.946ZM370.293 196.182C369.452 196.182 368.726 195.996 368.116 195.625C367.51 195.25 367.043 194.727 366.713 194.057C366.387 193.383 366.224 192.598 366.224 191.705C366.224 190.811 366.387 190.023 366.713 189.341C367.043 188.655 367.501 188.121 368.088 187.739C368.679 187.352 369.368 187.159 370.156 187.159C370.611 187.159 371.06 187.235 371.503 187.386C371.946 187.538 372.349 187.784 372.713 188.125C373.077 188.462 373.366 188.909 373.582 189.466C373.798 190.023 373.906 190.708 373.906 191.523V192.091H367.179V190.932H372.543C372.543 190.439 372.444 190 372.247 189.614C372.054 189.227 371.777 188.922 371.418 188.699C371.062 188.475 370.641 188.364 370.156 188.364C369.622 188.364 369.16 188.496 368.77 188.761C368.384 189.023 368.086 189.364 367.878 189.784C367.67 190.205 367.565 190.655 367.565 191.136V191.909C367.565 192.568 367.679 193.127 367.906 193.585C368.137 194.04 368.457 194.386 368.866 194.625C369.276 194.86 369.751 194.977 370.293 194.977C370.645 194.977 370.963 194.928 371.247 194.83C371.535 194.727 371.783 194.576 371.991 194.375C372.2 194.17 372.361 193.917 372.474 193.614L373.77 193.977C373.634 194.417 373.404 194.803 373.082 195.136C372.76 195.466 372.363 195.723 371.889 195.909C371.416 196.091 370.884 196.182 370.293 196.182ZM384.332 187.273V188.409H379.628V187.273H384.332ZM381.037 196V186.068C381.037 185.568 381.154 185.152 381.389 184.818C381.624 184.485 381.929 184.235 382.304 184.068C382.679 183.902 383.075 183.818 383.491 183.818C383.821 183.818 384.09 183.845 384.298 183.898C384.507 183.951 384.662 184 384.764 184.045L384.378 185.205C384.31 185.182 384.215 185.153 384.094 185.119C383.976 185.085 383.821 185.068 383.628 185.068C383.185 185.068 382.865 185.18 382.668 185.403C382.474 185.627 382.378 185.955 382.378 186.386V196H381.037ZM389.398 196.182C388.61 196.182 387.919 195.994 387.324 195.619C386.733 195.244 386.271 194.72 385.938 194.045C385.608 193.371 385.443 192.583 385.443 191.682C385.443 190.773 385.608 189.979 385.938 189.301C386.271 188.623 386.733 188.097 387.324 187.722C387.919 187.347 388.61 187.159 389.398 187.159C390.186 187.159 390.875 187.347 391.466 187.722C392.061 188.097 392.523 188.623 392.852 189.301C393.186 189.979 393.352 190.773 393.352 191.682C393.352 192.583 393.186 193.371 392.852 194.045C392.523 194.72 392.061 195.244 391.466 195.619C390.875 195.994 390.186 196.182 389.398 196.182ZM389.398 194.977C389.996 194.977 390.489 194.824 390.875 194.517C391.261 194.21 391.547 193.807 391.733 193.307C391.919 192.807 392.011 192.265 392.011 191.682C392.011 191.098 391.919 190.555 391.733 190.051C391.547 189.547 391.261 189.14 390.875 188.83C390.489 188.519 389.996 188.364 389.398 188.364C388.799 188.364 388.307 188.519 387.92 188.83C387.534 189.14 387.248 189.547 387.062 190.051C386.877 190.555 386.784 191.098 386.784 191.682C386.784 192.265 386.877 192.807 387.062 193.307C387.248 193.807 387.534 194.21 387.92 194.517C388.307 194.824 388.799 194.977 389.398 194.977ZM395.399 196V187.273H396.695V188.591H396.786C396.945 188.159 397.232 187.809 397.649 187.54C398.066 187.271 398.536 187.136 399.058 187.136C399.157 187.136 399.28 187.138 399.428 187.142C399.575 187.146 399.687 187.152 399.763 187.159V188.523C399.717 188.511 399.613 188.494 399.45 188.472C399.291 188.445 399.123 188.432 398.945 188.432C398.52 188.432 398.142 188.521 397.808 188.699C397.479 188.873 397.217 189.116 397.024 189.426C396.835 189.733 396.74 190.083 396.74 190.477V196H395.399ZM316.974 209.75V215H315.634V206.273H316.929V207.636H317.043C317.247 207.193 317.558 206.837 317.974 206.568C318.391 206.295 318.929 206.159 319.588 206.159C320.179 206.159 320.696 206.28 321.139 206.523C321.582 206.761 321.927 207.125 322.173 207.614C322.42 208.098 322.543 208.712 322.543 209.455V215H321.202V209.545C321.202 208.86 321.024 208.326 320.668 207.943C320.312 207.557 319.823 207.364 319.202 207.364C318.774 207.364 318.391 207.456 318.054 207.642C317.721 207.828 317.457 208.098 317.264 208.455C317.071 208.811 316.974 209.242 316.974 209.75ZM328.652 215.182C327.811 215.182 327.086 214.996 326.476 214.625C325.87 214.25 325.402 213.727 325.072 213.057C324.747 212.383 324.584 211.598 324.584 210.705C324.584 209.811 324.747 209.023 325.072 208.341C325.402 207.655 325.86 207.121 326.447 206.739C327.038 206.352 327.728 206.159 328.516 206.159C328.97 206.159 329.419 206.235 329.862 206.386C330.305 206.538 330.709 206.784 331.072 207.125C331.436 207.462 331.726 207.909 331.942 208.466C332.158 209.023 332.266 209.708 332.266 210.523V211.091H325.538V209.932H330.902C330.902 209.439 330.804 209 330.607 208.614C330.413 208.227 330.137 207.922 329.777 207.699C329.421 207.475 329 207.364 328.516 207.364C327.982 207.364 327.519 207.496 327.129 207.761C326.743 208.023 326.446 208.364 326.237 208.784C326.029 209.205 325.925 209.655 325.925 210.136V210.909C325.925 211.568 326.038 212.127 326.266 212.585C326.497 213.04 326.817 213.386 327.226 213.625C327.635 213.86 328.11 213.977 328.652 213.977C329.004 213.977 329.322 213.928 329.607 213.83C329.894 213.727 330.143 213.576 330.351 213.375C330.559 213.17 330.72 212.917 330.834 212.614L332.129 212.977C331.993 213.417 331.764 213.803 331.442 214.136C331.12 214.466 330.722 214.723 330.249 214.909C329.775 215.091 329.243 215.182 328.652 215.182ZM335.071 206.273L337.162 209.841L339.253 206.273H340.798L337.98 210.636L340.798 215H339.253L337.162 211.614L335.071 215H333.526L336.298 210.636L333.526 206.273H335.071ZM346.507 206.273V207.409H341.984V206.273H346.507ZM343.303 204.182H344.643V212.5C344.643 212.879 344.698 213.163 344.808 213.352C344.922 213.538 345.066 213.663 345.24 213.727C345.418 213.788 345.606 213.818 345.803 213.818C345.95 213.818 346.071 213.811 346.166 213.795C346.261 213.777 346.337 213.761 346.393 213.75L346.666 214.955C346.575 214.989 346.448 215.023 346.286 215.057C346.123 215.095 345.916 215.114 345.666 215.114C345.287 215.114 344.916 215.032 344.553 214.869C344.193 214.706 343.893 214.458 343.655 214.125C343.42 213.792 343.303 213.371 343.303 212.864V204.182ZM353.024 215V206.273H354.32V207.591H354.411C354.57 207.159 354.857 206.809 355.274 206.54C355.691 206.271 356.161 206.136 356.683 206.136C356.782 206.136 356.905 206.138 357.053 206.142C357.2 206.146 357.312 206.152 357.388 206.159V207.523C357.342 207.511 357.238 207.494 357.075 207.472C356.916 207.445 356.748 207.432 356.57 207.432C356.145 207.432 355.767 207.521 355.433 207.699C355.104 207.873 354.842 208.116 354.649 208.426C354.46 208.733 354.365 209.083 354.365 209.477V215H353.024ZM362.371 215.182C361.53 215.182 360.804 214.996 360.195 214.625C359.589 214.25 359.121 213.727 358.791 213.057C358.465 212.383 358.303 211.598 358.303 210.705C358.303 209.811 358.465 209.023 358.791 208.341C359.121 207.655 359.579 207.121 360.166 206.739C360.757 206.352 361.446 206.159 362.234 206.159C362.689 206.159 363.138 206.235 363.581 206.386C364.024 206.538 364.428 206.784 364.791 207.125C365.155 207.462 365.445 207.909 365.661 208.466C365.876 209.023 365.984 209.708 365.984 210.523V211.091H359.257V209.932H364.621C364.621 209.439 364.522 209 364.325 208.614C364.132 208.227 363.856 207.922 363.496 207.699C363.14 207.475 362.719 207.364 362.234 207.364C361.7 207.364 361.238 207.496 360.848 207.761C360.462 208.023 360.164 208.364 359.956 208.784C359.748 209.205 359.643 209.655 359.643 210.136V210.909C359.643 211.568 359.757 212.127 359.984 212.585C360.215 213.04 360.536 213.386 360.945 213.625C361.354 213.86 361.829 213.977 362.371 213.977C362.723 213.977 363.041 213.928 363.325 213.83C363.613 213.727 363.861 213.576 364.07 213.375C364.278 213.17 364.439 212.917 364.553 212.614L365.848 212.977C365.712 213.417 365.482 213.803 365.161 214.136C364.839 214.466 364.441 214.723 363.967 214.909C363.494 215.091 362.962 215.182 362.371 215.182ZM369.365 203.364V215H368.024V203.364H369.365ZM375.48 215.182C374.639 215.182 373.914 214.996 373.304 214.625C372.698 214.25 372.23 213.727 371.901 213.057C371.575 212.383 371.412 211.598 371.412 210.705C371.412 209.811 371.575 209.023 371.901 208.341C372.23 207.655 372.688 207.121 373.276 206.739C373.866 206.352 374.556 206.159 375.344 206.159C375.798 206.159 376.247 206.235 376.69 206.386C377.134 206.538 377.537 206.784 377.901 207.125C378.264 207.462 378.554 207.909 378.77 208.466C378.986 209.023 379.094 209.708 379.094 210.523V211.091H372.366V209.932H377.73C377.73 209.439 377.632 209 377.435 208.614C377.241 208.227 376.965 207.922 376.605 207.699C376.249 207.475 375.829 207.364 375.344 207.364C374.81 207.364 374.348 207.496 373.957 207.761C373.571 208.023 373.274 208.364 373.065 208.784C372.857 209.205 372.753 209.655 372.753 210.136V210.909C372.753 211.568 372.866 212.127 373.094 212.585C373.325 213.04 373.645 213.386 374.054 213.625C374.463 213.86 374.938 213.977 375.48 213.977C375.832 213.977 376.151 213.928 376.435 213.83C376.723 213.727 376.971 213.576 377.179 213.375C377.387 213.17 377.548 212.917 377.662 212.614L378.957 212.977C378.821 213.417 378.592 213.803 378.27 214.136C377.948 214.466 377.55 214.723 377.077 214.909C376.603 215.091 376.071 215.182 375.48 215.182ZM383.702 215.205C383.149 215.205 382.647 215.1 382.196 214.892C381.745 214.68 381.387 214.375 381.122 213.977C380.857 213.576 380.724 213.091 380.724 212.523C380.724 212.023 380.823 211.617 381.02 211.307C381.217 210.992 381.48 210.746 381.81 210.568C382.139 210.39 382.503 210.258 382.901 210.17C383.302 210.08 383.705 210.008 384.111 209.955C384.641 209.886 385.071 209.835 385.401 209.801C385.734 209.763 385.976 209.701 386.128 209.614C386.283 209.527 386.361 209.375 386.361 209.159V209.114C386.361 208.553 386.207 208.117 385.901 207.807C385.598 207.496 385.137 207.341 384.52 207.341C383.88 207.341 383.378 207.481 383.014 207.761C382.651 208.042 382.395 208.341 382.247 208.659L380.974 208.205C381.202 207.674 381.505 207.261 381.884 206.966C382.266 206.667 382.683 206.458 383.134 206.341C383.588 206.22 384.035 206.159 384.474 206.159C384.755 206.159 385.077 206.193 385.44 206.261C385.808 206.326 386.162 206.46 386.503 206.665C386.848 206.869 387.134 207.178 387.361 207.591C387.588 208.004 387.702 208.557 387.702 209.25V215H386.361V213.818H386.293C386.202 214.008 386.05 214.21 385.838 214.426C385.626 214.642 385.344 214.826 384.991 214.977C384.639 215.129 384.209 215.205 383.702 215.205ZM383.906 214C384.437 214 384.884 213.896 385.247 213.688C385.615 213.479 385.891 213.21 386.077 212.881C386.266 212.551 386.361 212.205 386.361 211.841V210.614C386.304 210.682 386.179 210.744 385.986 210.801C385.796 210.854 385.577 210.902 385.327 210.943C385.08 210.981 384.84 211.015 384.605 211.045C384.374 211.072 384.187 211.095 384.043 211.114C383.694 211.159 383.368 211.233 383.065 211.335C382.766 211.434 382.524 211.583 382.338 211.784C382.156 211.981 382.065 212.25 382.065 212.591C382.065 213.057 382.238 213.409 382.582 213.648C382.931 213.883 383.372 214 383.906 214ZM396.331 208.227L395.126 208.568C395.051 208.367 394.939 208.172 394.791 207.983C394.647 207.79 394.45 207.631 394.2 207.506C393.95 207.381 393.63 207.318 393.24 207.318C392.706 207.318 392.261 207.441 391.905 207.688C391.553 207.93 391.376 208.239 391.376 208.614C391.376 208.947 391.498 209.21 391.74 209.403C391.982 209.597 392.361 209.758 392.876 209.886L394.172 210.205C394.952 210.394 395.534 210.684 395.916 211.074C396.299 211.46 396.49 211.958 396.49 212.568C396.49 213.068 396.346 213.515 396.058 213.909C395.774 214.303 395.376 214.614 394.865 214.841C394.354 215.068 393.759 215.182 393.081 215.182C392.191 215.182 391.454 214.989 390.871 214.602C390.287 214.216 389.918 213.652 389.763 212.909L391.036 212.591C391.157 213.061 391.386 213.413 391.723 213.648C392.064 213.883 392.509 214 393.058 214C393.683 214 394.179 213.867 394.547 213.602C394.918 213.333 395.104 213.011 395.104 212.636C395.104 212.333 394.998 212.08 394.786 211.875C394.573 211.667 394.248 211.511 393.808 211.409L392.354 211.068C391.554 210.879 390.967 210.585 390.592 210.188C390.221 209.786 390.036 209.284 390.036 208.682C390.036 208.189 390.174 207.754 390.45 207.375C390.731 206.996 391.111 206.699 391.592 206.483C392.077 206.267 392.626 206.159 393.24 206.159C394.104 206.159 394.782 206.348 395.274 206.727C395.77 207.106 396.123 207.606 396.331 208.227ZM402.168 215.182C401.327 215.182 400.601 214.996 399.991 214.625C399.385 214.25 398.918 213.727 398.588 213.057C398.262 212.383 398.099 211.598 398.099 210.705C398.099 209.811 398.262 209.023 398.588 208.341C398.918 207.655 399.376 207.121 399.963 206.739C400.554 206.352 401.243 206.159 402.031 206.159C402.486 206.159 402.935 206.235 403.378 206.386C403.821 206.538 404.224 206.784 404.588 207.125C404.952 207.462 405.241 207.909 405.457 208.466C405.673 209.023 405.781 209.708 405.781 210.523V211.091H399.054V209.932H404.418C404.418 209.439 404.319 209 404.122 208.614C403.929 208.227 403.652 207.922 403.293 207.699C402.937 207.475 402.516 207.364 402.031 207.364C401.497 207.364 401.035 207.496 400.645 207.761C400.259 208.023 399.961 208.364 399.753 208.784C399.545 209.205 399.44 209.655 399.44 210.136V210.909C399.44 211.568 399.554 212.127 399.781 212.585C400.012 213.04 400.332 213.386 400.741 213.625C401.151 213.86 401.626 213.977 402.168 213.977C402.52 213.977 402.838 213.928 403.122 213.83C403.41 213.727 403.658 213.576 403.866 213.375C404.075 213.17 404.236 212.917 404.349 212.614L405.645 212.977C405.509 213.417 405.279 213.803 404.957 214.136C404.635 214.466 404.238 214.723 403.764 214.909C403.291 215.091 402.759 215.182 402.168 215.182Z" fill="black"/>
<path d="M24 223.486L25.5625 223.486L25.5625 229.955L24 229.955L24 223.486ZM36 228.018L22.3438 228.018C21.6562 228.018 21.0833 227.856 20.625 227.533C20.1667 227.21 19.8229 226.791 19.5937 226.275C19.3646 225.76 19.25 225.215 19.25 224.643C19.25 224.189 19.2865 223.82 19.3594 223.533C19.4323 223.247 19.5 223.033 19.5625 222.893L21.1562 223.424C21.125 223.518 21.0859 223.648 21.0391 223.814C20.9922 223.976 20.9687 224.189 20.9687 224.455C20.9687 225.064 21.1224 225.505 21.4297 225.775C21.737 226.041 22.1875 226.174 22.7812 226.174L36 226.174L36 228.018ZM36.25 216.365C36.25 217.521 35.9948 218.519 35.4844 219.357C34.9688 220.191 34.25 220.834 33.3281 221.287C32.401 221.735 31.3229 221.959 30.0938 221.959C28.8646 221.959 27.7812 221.735 26.8438 221.287C25.901 220.834 25.1667 220.204 24.6406 219.396C24.1094 218.584 23.8438 217.636 23.8438 216.553C23.8438 215.928 23.9479 215.311 24.1562 214.701C24.3646 214.092 24.7031 213.537 25.1719 213.037C25.6354 212.537 26.25 212.139 27.0156 211.842C27.7813 211.545 28.724 211.396 29.8438 211.396L30.625 211.396L30.625 220.646L29.0313 220.646L29.0313 213.271C28.3542 213.271 27.75 213.407 27.2187 213.678C26.6875 213.943 26.2682 214.324 25.9609 214.818C25.6536 215.308 25.5 215.886 25.5 216.553C25.5 217.287 25.6823 217.923 26.0469 218.459C26.4063 218.99 26.875 219.399 27.4531 219.686C28.0312 219.972 28.651 220.115 29.3125 220.115L30.375 220.115C31.2813 220.115 32.0495 219.959 32.6797 219.646C33.3047 219.329 33.7813 218.889 34.1094 218.326C34.4323 217.764 34.5938 217.11 34.5938 216.365C34.5938 215.881 34.526 215.443 34.3906 215.053C34.25 214.657 34.0417 214.316 33.7656 214.029C33.4844 213.743 33.1354 213.521 32.7188 213.365L33.2188 211.584C33.8229 211.771 34.3542 212.087 34.8125 212.529C35.2656 212.972 35.6198 213.519 35.875 214.17C36.125 214.821 36.25 215.553 36.25 216.365ZM36.2813 205.061C36.2813 205.821 36.138 206.511 35.8516 207.131C35.5599 207.751 35.1406 208.243 34.5938 208.607C34.0417 208.972 33.375 209.154 32.5938 209.154C31.9063 209.154 31.349 209.019 30.9219 208.748C30.4896 208.477 30.151 208.115 29.9062 207.662C29.6615 207.209 29.4792 206.709 29.3594 206.162C29.2344 205.61 29.1354 205.055 29.0625 204.498C28.9688 203.769 28.8984 203.178 28.8516 202.725C28.7995 202.266 28.7135 201.933 28.5938 201.725C28.474 201.511 28.2656 201.404 27.9687 201.404L27.9063 201.404C27.1354 201.404 26.5365 201.615 26.1094 202.037C25.6823 202.454 25.4688 203.087 25.4688 203.936C25.4688 204.816 25.6615 205.506 26.0469 206.006C26.4323 206.506 26.8438 206.857 27.2812 207.061L26.6562 208.811C25.9271 208.498 25.3594 208.081 24.9531 207.561C24.5417 207.035 24.2552 206.462 24.0938 205.842C23.9271 205.217 23.8438 204.602 23.8438 203.998C23.8438 203.613 23.8906 203.17 23.9844 202.67C24.0729 202.165 24.2578 201.678 24.5391 201.209C24.8203 200.735 25.2448 200.342 25.8125 200.029C26.3802 199.717 27.1406 199.561 28.0938 199.561L36 199.561L36 201.404L34.375 201.404L34.375 201.498C34.6354 201.623 34.9141 201.831 35.2109 202.123C35.5078 202.415 35.7604 202.803 35.9688 203.287C36.1771 203.771 36.2813 204.363 36.2813 205.061ZM34.625 204.779C34.625 204.05 34.4818 203.436 34.1953 202.936C33.9089 202.43 33.5391 202.05 33.0859 201.795C32.6328 201.535 32.1563 201.404 31.6563 201.404L29.9688 201.404C30.0625 201.482 30.1484 201.654 30.2266 201.92C30.2995 202.18 30.3646 202.482 30.4219 202.826C30.474 203.165 30.5208 203.495 30.5625 203.818C30.599 204.136 30.6302 204.394 30.6563 204.592C30.7188 205.071 30.8203 205.519 30.9609 205.936C31.0964 206.347 31.3021 206.68 31.5781 206.936C31.849 207.186 32.2188 207.311 32.6875 207.311C33.3281 207.311 33.8125 207.074 34.1406 206.6C34.4635 206.12 34.625 205.514 34.625 204.779ZM24 190.977L25.5625 190.977L25.5625 197.195L24 197.195L24 190.977ZM21.125 195.383L21.125 193.539L32.5625 193.539C33.0833 193.539 33.474 193.464 33.7344 193.313C33.9896 193.156 34.1615 192.958 34.25 192.719C34.3333 192.474 34.375 192.216 34.375 191.945C34.375 191.742 34.3646 191.576 34.3438 191.445C34.3177 191.315 34.2969 191.211 34.2813 191.133L35.9375 190.758C35.9844 190.883 36.0313 191.057 36.0781 191.281C36.1302 191.505 36.1563 191.789 36.1563 192.133C36.1563 192.654 36.0443 193.164 35.8203 193.664C35.5964 194.159 35.2552 194.57 34.7969 194.898C34.3385 195.221 33.7604 195.383 33.0625 195.383L21.125 195.383ZM31.0938 180.641L24 180.641L24 178.797L36 178.797L36 180.641L33.9688 180.641L33.9688 180.766C34.5781 181.047 35.0964 181.484 35.5234 182.078C35.9453 182.672 36.1563 183.422 36.1563 184.328C36.1563 185.078 35.9922 185.745 35.6641 186.328C35.3307 186.911 34.8307 187.37 34.1641 187.703C33.4922 188.036 32.6458 188.203 31.625 188.203L24 188.203L24 186.359L31.5 186.359C32.375 186.359 33.0729 186.115 33.5938 185.625C34.1146 185.13 34.375 184.5 34.375 183.734C34.375 183.276 34.2578 182.81 34.0234 182.336C33.7891 181.857 33.4297 181.456 32.9453 181.133C32.4609 180.805 31.8438 180.641 31.0938 180.641ZM36 175.42L24 175.42L24 173.639L25.8125 173.639L25.8125 173.514C25.2188 173.295 24.737 172.899 24.3672 172.326C23.9974 171.753 23.8125 171.107 23.8125 170.389C23.8125 170.253 23.8151 170.084 23.8203 169.881C23.8255 169.678 23.8333 169.524 23.8438 169.42L25.7188 169.42C25.7031 169.482 25.6797 169.626 25.6484 169.85C25.612 170.068 25.5938 170.3 25.5938 170.545C25.5938 171.128 25.7161 171.649 25.9609 172.107C26.2005 172.561 26.5339 172.92 26.9609 173.186C27.3828 173.446 27.8646 173.576 28.4063 173.576L36 173.576L36 175.42ZM36.25 162.568C36.25 163.725 35.9948 164.722 35.4844 165.561C34.9688 166.394 34.25 167.037 33.3281 167.49C32.401 167.938 31.3229 168.162 30.0938 168.162C28.8646 168.162 27.7813 167.938 26.8438 167.49C25.901 167.037 25.1667 166.407 24.6406 165.6C24.1094 164.787 23.8438 163.839 23.8438 162.756C23.8438 162.131 23.9479 161.514 24.1563 160.904C24.3646 160.295 24.7031 159.74 25.1719 159.24C25.6354 158.74 26.25 158.342 27.0156 158.045C27.7813 157.748 28.724 157.6 29.8438 157.6L30.625 157.6L30.625 166.85L29.0313 166.85L29.0313 159.475C28.3542 159.475 27.75 159.61 27.2188 159.881C26.6875 160.146 26.2682 160.527 25.9609 161.021C25.6536 161.511 25.5 162.089 25.5 162.756C25.5 163.49 25.6823 164.126 26.0469 164.662C26.4063 165.193 26.875 165.602 27.4531 165.889C28.0313 166.175 28.651 166.318 29.3125 166.318L30.375 166.318C31.2813 166.318 32.0495 166.162 32.6797 165.85C33.3047 165.532 33.7813 165.092 34.1094 164.529C34.4323 163.967 34.5938 163.313 34.5938 162.568C34.5938 162.084 34.526 161.646 34.3906 161.256C34.25 160.86 34.0417 160.519 33.7656 160.232C33.4844 159.946 33.1354 159.725 32.7188 159.568L33.2188 157.787C33.8229 157.975 34.3542 158.29 34.8125 158.732C35.2656 159.175 35.6198 159.722 35.875 160.373C36.125 161.024 36.25 161.756 36.25 162.568ZM67 239.913L51 239.913L51 238.069L56.9062 238.069L56.9062 237.913C56.6979 237.778 56.4323 237.59 56.1094 237.351C55.7812 237.106 55.4896 236.757 55.2344 236.304C54.974 235.845 54.8438 235.226 54.8438 234.444C54.8438 233.434 55.0964 232.543 55.6016 231.772C56.1068 231.002 56.8229 230.4 57.75 229.968C58.6771 229.535 59.7708 229.319 61.0313 229.319C62.3021 229.319 63.4036 229.535 64.3359 229.968C65.263 230.4 65.9818 230.999 66.4922 231.765C66.9974 232.53 67.25 233.413 67.25 234.413C67.25 235.184 67.1224 235.801 66.8672 236.265C66.6068 236.728 66.3125 237.085 65.9844 237.335C65.651 237.585 65.375 237.778 65.1563 237.913L65.1563 238.132L67 238.132L67 239.913ZM61 238.101C61.9062 238.101 62.7057 237.968 63.3984 237.702C64.0859 237.437 64.625 237.049 65.0156 236.538C65.401 236.028 65.5938 235.403 65.5938 234.663C65.5938 233.892 65.3906 233.249 64.9844 232.733C64.5729 232.213 64.0208 231.822 63.3281 231.562C62.6302 231.296 61.8542 231.163 61 231.163C60.1562 231.163 59.3958 231.293 58.7187 231.554C58.0365 231.809 57.4974 232.197 57.1016 232.718C56.7005 233.233 56.5 233.882 56.5 234.663C56.5 235.413 56.6901 236.043 57.0703 236.554C57.4453 237.064 57.9714 237.45 58.6484 237.71C59.3203 237.97 60.1042 238.101 61 238.101ZM67 226.499L55 226.499L55 224.718L56.8125 224.718L56.8125 224.593C56.2188 224.374 55.737 223.978 55.3672 223.405C54.9974 222.832 54.8125 222.187 54.8125 221.468C54.8125 221.332 54.8151 221.163 54.8203 220.96C54.8255 220.757 54.8333 220.603 54.8438 220.499L56.7187 220.499C56.7031 220.562 56.6797 220.705 56.6484 220.929C56.612 221.147 56.5938 221.379 56.5938 221.624C56.5937 222.207 56.7161 222.728 56.9609 223.187C57.2005 223.64 57.5339 223.999 57.9609 224.265C58.3828 224.525 58.8646 224.655 59.4062 224.655L67 224.655L67 226.499ZM67.2813 214.782C67.2813 215.543 67.138 216.233 66.8516 216.853C66.5599 217.472 66.1406 217.965 65.5938 218.329C65.0417 218.694 64.375 218.876 63.5938 218.876C62.9063 218.876 62.349 218.741 61.9219 218.47C61.4896 218.199 61.151 217.837 60.9062 217.384C60.6615 216.931 60.4792 216.431 60.3594 215.884C60.2344 215.332 60.1354 214.777 60.0625 214.22C59.9688 213.491 59.8984 212.899 59.8516 212.446C59.7995 211.988 59.7135 211.655 59.5937 211.446C59.474 211.233 59.2656 211.126 58.9687 211.126L58.9062 211.126C58.1354 211.126 57.5365 211.337 57.1094 211.759C56.6823 212.175 56.4688 212.808 56.4688 213.657C56.4688 214.537 56.6615 215.228 57.0469 215.728C57.4323 216.228 57.8437 216.579 58.2812 216.782L57.6562 218.532C56.9271 218.22 56.3594 217.803 55.9531 217.282C55.5417 216.756 55.2552 216.183 55.0938 215.563C54.9271 214.938 54.8438 214.324 54.8438 213.72C54.8438 213.334 54.8906 212.892 54.9844 212.392C55.0729 211.886 55.2578 211.399 55.5391 210.931C55.8203 210.457 56.2448 210.063 56.8125 209.751C57.3802 209.438 58.1406 209.282 59.0938 209.282L67 209.282L67 211.126L65.375 211.126L65.375 211.22C65.6354 211.345 65.9141 211.553 66.2109 211.845C66.5078 212.136 66.7604 212.524 66.9688 213.009C67.1771 213.493 67.2813 214.084 67.2813 214.782ZM65.625 214.501C65.625 213.772 65.4818 213.157 65.1953 212.657C64.9089 212.152 64.5391 211.772 64.0859 211.517C63.6328 211.256 63.1563 211.126 62.6563 211.126L60.9687 211.126C61.0625 211.204 61.1484 211.376 61.2266 211.642C61.2995 211.902 61.3646 212.204 61.4219 212.548C61.474 212.886 61.5208 213.217 61.5625 213.54C61.599 213.858 61.6302 214.116 61.6563 214.313C61.7188 214.793 61.8203 215.241 61.9609 215.657C62.0964 216.069 62.3021 216.402 62.5781 216.657C62.849 216.907 63.2188 217.032 63.6875 217.032C64.3281 217.032 64.8125 216.795 65.1406 216.321C65.4635 215.842 65.625 215.235 65.625 214.501ZM59.7813 204.073L67 204.073L67 205.917L55 205.917L55 204.136L56.875 204.136L56.875 203.979C56.2656 203.698 55.776 203.271 55.4063 202.698C55.0313 202.125 54.8438 201.386 54.8438 200.479C54.8438 199.667 55.0104 198.956 55.3438 198.347C55.6719 197.737 56.1719 197.263 56.8438 196.925C57.5104 196.586 58.3542 196.417 59.375 196.417L67 196.417L67 198.261L59.5 198.261C58.5573 198.261 57.8229 198.506 57.2969 198.995C56.7656 199.485 56.5 200.157 56.5 201.011C56.5 201.599 56.6276 202.125 56.8828 202.589C57.138 203.047 57.5104 203.409 58 203.675C58.4896 203.94 59.0833 204.073 59.7813 204.073ZM67.25 188.173C67.25 189.298 66.9844 190.267 66.4531 191.079C65.9219 191.892 65.1901 192.517 64.2578 192.954C63.3255 193.392 62.2604 193.61 61.0625 193.61C59.8438 193.61 58.7682 193.386 57.8359 192.938C56.8984 192.485 56.1667 191.855 55.6406 191.048C55.1094 190.235 54.8438 189.287 54.8438 188.204C54.8438 187.36 55 186.6 55.3125 185.923C55.625 185.246 56.0625 184.691 56.625 184.259C57.1875 183.826 57.8438 183.558 58.5938 183.454L58.5938 185.298C58.0469 185.438 57.5625 185.751 57.1406 186.235C56.7135 186.715 56.5 187.36 56.5 188.173C56.5 188.892 56.6875 189.522 57.0625 190.063C57.4323 190.6 57.9557 191.019 58.6328 191.321C59.3047 191.618 60.0938 191.767 61 191.767C61.9271 191.767 62.7344 191.621 63.4219 191.329C64.1094 191.032 64.6432 190.616 65.0234 190.079C65.4036 189.537 65.5938 188.902 65.5938 188.173C65.5938 187.694 65.5104 187.259 65.3438 186.868C65.1771 186.478 64.9375 186.147 64.625 185.876C64.3125 185.605 63.9375 185.412 63.5 185.298L63.5 183.454C64.2083 183.558 64.8464 183.816 65.4141 184.228C65.9766 184.634 66.4245 185.173 66.7578 185.845C67.0859 186.511 67.25 187.287 67.25 188.173ZM59.7813 178.915L67 178.915L67 180.759L51 180.759L51 178.915L56.875 178.915L56.875 178.759C56.2552 178.478 55.763 178.056 55.3984 177.493C55.0286 176.925 54.8438 176.17 54.8438 175.228C54.8438 174.41 55.0078 173.694 55.3359 173.079C55.6589 172.465 56.1563 171.988 56.8281 171.649C57.4948 171.306 58.3438 171.134 59.375 171.134L67 171.134L67 172.978L59.5 172.978C58.5469 172.978 57.8099 173.225 57.2891 173.72C56.763 174.209 56.5 174.889 56.5 175.759C56.5 176.363 56.6276 176.905 56.8828 177.384C57.138 177.858 57.5104 178.233 58 178.509C58.4896 178.78 59.0833 178.915 59.7813 178.915ZM67.25 162.729C67.25 163.886 66.9948 164.883 66.4844 165.722C65.9688 166.555 65.25 167.198 64.3281 167.651C63.401 168.099 62.3229 168.323 61.0938 168.323C59.8646 168.323 58.7813 168.099 57.8438 167.651C56.901 167.198 56.1667 166.568 55.6406 165.761C55.1094 164.948 54.8438 164 54.8438 162.917C54.8438 162.292 54.9479 161.675 55.1563 161.065C55.3646 160.456 55.7031 159.901 56.1719 159.401C56.6354 158.901 57.25 158.503 58.0156 158.206C58.7813 157.909 59.724 157.761 60.8438 157.761L61.625 157.761L61.625 167.011L60.0313 167.011L60.0313 159.636C59.3542 159.636 58.75 159.771 58.2188 160.042C57.6875 160.308 57.2682 160.688 56.9609 161.183C56.6536 161.672 56.5 162.25 56.5 162.917C56.5 163.651 56.6823 164.287 57.0469 164.823C57.4063 165.354 57.875 165.763 58.4531 166.05C59.0313 166.336 59.651 166.479 60.3125 166.479L61.375 166.479C62.2813 166.479 63.0495 166.323 63.6797 166.011C64.3047 165.693 64.7813 165.253 65.1094 164.69C65.4323 164.128 65.5938 163.474 65.5938 162.729C65.5938 162.245 65.526 161.808 65.3906 161.417C65.25 161.021 65.0417 160.68 64.7656 160.394C64.4844 160.107 64.1354 159.886 63.7188 159.729L64.2188 157.948C64.8229 158.136 65.3542 158.451 65.8125 158.894C66.2656 159.336 66.6198 159.883 66.875 160.534C67.125 161.185 67.25 161.917 67.25 162.729ZM57.6875 146.456L58.1563 148.112C57.8802 148.216 57.612 148.37 57.3516 148.573C57.0859 148.771 56.8672 149.042 56.6953 149.386C56.5234 149.729 56.4375 150.17 56.4375 150.706C56.4375 151.44 56.6068 152.052 56.9453 152.542C57.2786 153.026 57.7031 153.269 58.2188 153.269C58.6771 153.269 59.0391 153.102 59.3047 152.769C59.5703 152.435 59.7917 151.914 59.9688 151.206L60.4063 149.425C60.6667 148.352 61.0651 147.552 61.6016 147.026C62.1328 146.5 62.8177 146.237 63.6563 146.237C64.3438 146.237 64.9583 146.435 65.5 146.831C66.0417 147.222 66.4688 147.769 66.7813 148.472C67.0938 149.175 67.25 149.993 67.25 150.925C67.25 152.149 66.9844 153.162 66.4531 153.964C65.9219 154.766 65.1458 155.274 64.125 155.487L63.6875 153.737C64.3333 153.571 64.8177 153.256 65.1406 152.792C65.4635 152.323 65.625 151.711 65.625 150.956C65.625 150.097 65.4427 149.414 65.0781 148.909C64.7083 148.399 64.2656 148.144 63.75 148.144C63.3333 148.144 62.9844 148.289 62.7031 148.581C62.4167 148.873 62.2031 149.321 62.0625 149.925L61.5938 151.925C61.3333 153.024 60.9297 153.831 60.3828 154.347C59.8307 154.857 59.1406 155.112 58.3125 155.112C57.6354 155.112 57.0365 154.922 56.5156 154.542C55.9948 154.157 55.5859 153.633 55.2891 152.972C54.9922 152.305 54.8438 151.55 54.8438 150.706C54.8438 149.519 55.1042 148.586 55.625 147.909C56.1458 147.227 56.8333 146.743 57.6875 146.456Z" fill="black"/>
<line x1="128.993" y1="65.0005" x2="1462.99" y2="61.9244" stroke="black" stroke-opacity="0.3" stroke-width="6"/>
<circle cx="255" cy="65.0005" r="18" transform="rotate(-90 255 65.0005)" fill="#FFE333" stroke="black" stroke-width="6"/>
<circle cx="339" cy="65.0005" r="18" transform="rotate(-90 339 65.0005)" fill="#FFE333" stroke="black" stroke-width="6"/>
<circle cx="423" cy="65.0005" r="18" transform="rotate(-90 423 65.0005)" fill="#FFE333" stroke="black" stroke-width="6"/>
<circle cx="507" cy="65.0005" r="18" transform="rotate(-90 507 65.0005)" fill="#FFE333" stroke="black" stroke-width="6"/>
<circle cx="633" cy="65.0005" r="18" transform="rotate(-90 633 65.0005)" fill="#FFE333" stroke="black" stroke-width="6"/>
<circle cx="759" cy="65.0005" r="18" transform="rotate(-90 759 65.0005)" fill="#FFE333" stroke="black" stroke-width="6"/>
<circle cx="969" cy="65.0005" r="18" transform="rotate(-90 969 65.0005)" fill="#FFE333" stroke="black" stroke-width="6"/>
<circle cx="1156" cy="65.0005" r="18" transform="rotate(-90 1156 65.0005)" fill="#FFE333" stroke="black" stroke-width="6"/>
<circle cx="1337" cy="65.0005" r="18" transform="rotate(-90 1337 65.0005)" fill="#FFE333" stroke="black" stroke-width="6"/>
<circle cx="1463" cy="65.0005" r="18" transform="rotate(-90 1463 65.0005)" fill="#FFE333" stroke="black" stroke-width="6"/>
<path d="M319.086 66.0356C319.657 65.436 319.635 64.4866 319.035 63.9149L309.265 54.5989C308.665 54.0272 307.716 54.0498 307.144 54.6494C306.572 55.2489 306.595 56.1984 307.194 56.7701L315.879 65.051L307.598 73.7358C307.027 74.3354 307.049 75.2849 307.649 75.8566C308.248 76.4282 309.198 76.4056 309.77 75.8061L319.086 66.0356ZM276.036 67.5001L318.036 66.5001L317.964 63.5009L275.964 64.5009L276.036 67.5001Z" fill="black"/>
<path d="M403.086 66.0356C403.657 65.436 403.635 64.4866 403.035 63.9149L393.265 54.5989C392.665 54.0272 391.716 54.0498 391.144 54.6494C390.572 55.2489 390.595 56.1984 391.194 56.7701L399.879 65.051L391.598 73.7358C391.027 74.3354 391.049 75.2849 391.649 75.8566C392.248 76.4282 393.198 76.4056 393.77 75.8061L403.086 66.0356ZM360.036 67.5001L402.036 66.5001L401.964 63.5009L359.964 64.5009L360.036 67.5001Z" fill="black"/>
<path d="M487.061 66.0611C487.646 65.4754 487.646 64.5256 487.061 63.9398L477.515 54.3939C476.929 53.8081 475.979 53.8081 475.393 54.3939C474.808 54.9797 474.808 55.9294 475.393 56.5152L483.879 65.0005L475.393 73.4858C474.808 74.0716 474.808 75.0213 475.393 75.6071C475.979 76.1929 476.929 76.1929 477.515 75.6071L487.061 66.0611ZM442 66.5005L486 66.5005L486 63.5005L442 63.5005L442 66.5005Z" fill="black"/>
<path d="M613.048 66.0737C613.641 65.4949 613.652 64.5452 613.073 63.9525L603.642 54.2936C603.063 53.7009 602.113 53.6896 601.52 54.2684C600.928 54.8472 600.916 55.7968 601.495 56.3895L609.879 64.9752L601.293 73.3589C600.7 73.9377 600.689 74.8874 601.268 75.4801C601.847 76.0728 602.796 76.0841 603.389 75.5053L613.048 66.0737ZM527.982 65.5004L611.982 66.5004L612.018 63.5006L528.018 62.5006L527.982 65.5004Z" fill="black"/>
<path d="M739.061 66.0611C739.646 65.4754 739.646 64.5256 739.061 63.9398L729.515 54.3939C728.929 53.8081 727.979 53.8081 727.393 54.3939C726.808 54.9797 726.808 55.9294 727.393 56.5152L735.879 65.0005L727.393 73.4858C726.808 74.0716 726.808 75.0213 727.393 75.6071C727.979 76.1929 728.929 76.1929 729.515 75.6071L739.061 66.0611ZM652 66.5005L738 66.5005L738 63.5005L652 63.5005L652 66.5005Z" fill="black"/>
<path d="M949.061 66.0612C949.646 65.4754 949.646 64.5256 949.061 63.9398L939.515 54.3939C938.929 53.8081 937.979 53.8081 937.393 54.3939C936.808 54.9797 936.808 55.9294 937.393 56.5152L945.879 65.0005L937.393 73.4858C936.808 74.0716 936.808 75.0213 937.393 75.6071C937.979 76.1929 938.929 76.1929 939.515 75.6071L949.061 66.0612ZM777 66.5005L948 66.5005L948 63.5005L777 63.5005L777 66.5005Z" fill="black"/>
<path d="M1136.06 66.0612C1136.65 65.4754 1136.65 64.5256 1136.06 63.9398L1126.51 54.3939C1125.93 53.8081 1124.98 53.8081 1124.39 54.3939C1123.81 54.9797 1123.81 55.9294 1124.39 56.5152L1132.88 65.0005L1124.39 73.4858C1123.81 74.0716 1123.81 75.0213 1124.39 75.6071C1124.98 76.1929 1125.93 76.1929 1126.51 75.6071L1136.06 66.0612ZM987 66.5005L1135 66.5005L1135 63.5005L987 63.5005L987 66.5005Z" fill="black"/>
<path d="M1313.07 65.0383C1313.65 64.4481 1313.64 63.4984 1313.05 62.917L1303.44 53.4426C1302.85 52.8612 1301.9 52.8683 1301.31 53.4584C1300.73 54.0486 1300.74 54.9983 1301.33 55.5797L1309.88 64.0014L1301.46 72.5498C1300.88 73.1399 1300.88 74.0896 1301.47 74.671C1302.06 75.2524 1303.01 75.2453 1303.59 74.6552L1313.07 65.0383ZM1176.01 66.5004L1312.01 65.4855L1311.99 62.4856L1175.99 63.5005L1176.01 66.5004Z" fill="black"/>
<path d="M1442.07 65.0485C1442.65 64.4558 1442.64 63.5061 1442.05 62.9273L1432.39 53.4957C1431.8 52.9169 1430.85 52.9282 1430.27 53.5209C1429.69 54.1136 1429.7 55.0633 1430.29 55.6421L1438.88 64.0258L1430.5 72.6115C1429.92 73.2042 1429.93 74.1539 1430.52 74.7326C1431.11 75.3114 1432.06 75.3001 1432.64 74.7074L1442.07 65.0485ZM1357.02 66.5004L1441.02 65.5004L1440.98 62.5006L1356.98 63.5006L1357.02 66.5004Z" fill="black"/>
<path d="M67.1953 105.187C67.1953 106.098 66.9609 106.924 66.4922 107.664C66.0182 108.398 65.3229 108.981 64.4062 109.414C63.4844 109.841 62.3542 110.054 61.0156 110.054C59.6406 110.054 58.4974 109.833 57.5859 109.39C56.6693 108.947 55.9844 108.359 55.5313 107.625C55.0729 106.885 54.8438 106.075 54.8438 105.195C54.8438 104.523 54.9583 103.963 55.1875 103.515C55.4115 103.062 55.6927 102.697 56.0312 102.421C56.3646 102.14 56.6927 101.927 57.0156 101.781L57.0156 101.679L51 101.679L51 98.3589L67 98.3589L67 101.64L65.0781 101.64L65.0781 101.781C65.4115 101.937 65.7422 102.158 66.0703 102.445C66.3932 102.726 66.6615 103.093 66.875 103.546C67.0885 103.994 67.1953 104.541 67.1953 105.187ZM64.5469 104.132C64.5469 103.596 64.401 103.143 64.1094 102.773C63.8125 102.398 63.3984 102.111 62.8672 101.914C62.3359 101.71 61.7135 101.609 61 101.609C60.2865 101.609 59.6667 101.708 59.1406 101.906C58.6146 102.104 58.2083 102.39 57.9219 102.765C57.6354 103.14 57.4922 103.596 57.4922 104.132C57.4922 104.679 57.6406 105.14 57.9375 105.515C58.2344 105.89 58.6458 106.174 59.1719 106.367C59.6979 106.559 60.3073 106.656 61 106.656C61.6979 106.656 62.3151 106.559 62.8516 106.367C63.3828 106.169 63.7995 105.885 64.1016 105.515C64.3984 105.14 64.5469 104.679 64.5469 104.132ZM67.2344 90.1538C67.2344 91.3882 66.9844 92.4507 66.4844 93.3413C65.9792 94.2267 65.2656 94.909 64.3438 95.3882C63.4167 95.8674 62.3203 96.1069 61.0547 96.1069C59.8203 96.1069 58.737 95.8674 57.8047 95.3882C56.8724 94.909 56.1458 94.2345 55.625 93.3647C55.1042 92.4897 54.8438 91.4637 54.8438 90.2866C54.8438 89.495 54.9714 88.758 55.2266 88.0757C55.4766 87.3882 55.8542 86.7892 56.3594 86.2788C56.8646 85.7632 57.5 85.3621 58.2656 85.0757C59.026 84.7892 59.9167 84.646 60.9375 84.646L61.8516 84.646L61.8516 94.7788L59.7891 94.7788L59.7891 87.7788C59.3099 87.7788 58.8854 87.883 58.5156 88.0913C58.1458 88.2996 57.8568 88.5887 57.6484 88.9585C57.4349 89.3231 57.3281 89.7476 57.3281 90.2319C57.3281 90.7371 57.4453 91.1851 57.6797 91.5757C57.9089 91.9611 58.2187 92.2632 58.6094 92.4819C58.9948 92.7007 59.4245 92.8127 59.8984 92.8179L61.8594 92.8179C62.4531 92.8179 62.9661 92.7085 63.3984 92.4897C63.8307 92.2658 64.1641 91.9507 64.3984 91.5444C64.6328 91.1382 64.75 90.6564 64.75 90.0991C64.75 89.7293 64.6979 89.3908 64.5938 89.0835C64.4896 88.7762 64.3333 88.5132 64.125 88.2944C63.9167 88.0757 63.6615 87.909 63.3594 87.7944L63.5625 84.7163C64.3021 84.8726 64.9479 85.1929 65.5 85.6772C66.0469 86.1564 66.474 86.7762 66.7813 87.5366C67.0833 88.2918 67.2344 89.1642 67.2344 90.1538ZM55 71.6089L67 75.8042L67 79.5542L55 83.7495L55 80.2339L63.5859 77.7417L63.5859 77.6167L55 75.1323L55 71.6089ZM67.2344 64.8237C67.2344 66.0581 66.9844 67.1206 66.4844 68.0112C65.9792 68.8966 65.2656 69.5789 64.3438 70.0581C63.4167 70.5373 62.3203 70.7769 61.0547 70.7769C59.8203 70.7769 58.737 70.5373 57.8047 70.0581C56.8724 69.5789 56.1458 68.9045 55.625 68.0347C55.1042 67.1597 54.8438 66.1336 54.8438 64.9565C54.8438 64.1649 54.9714 63.4279 55.2266 62.7456C55.4766 62.0581 55.8542 61.4591 56.3594 60.9487C56.8646 60.4331 57.5 60.0321 58.2656 59.7456C59.026 59.4591 59.9167 59.3159 60.9375 59.3159L61.8516 59.3159L61.8516 69.4487L59.7891 69.4487L59.7891 62.4487C59.3099 62.4487 58.8854 62.5529 58.5156 62.7612C58.1458 62.9696 57.8568 63.2586 57.6484 63.6284C57.4349 63.993 57.3281 64.4175 57.3281 64.9019C57.3281 65.4071 57.4453 65.855 57.6797 66.2456C57.9089 66.631 58.2188 66.9331 58.6094 67.1519C58.9948 67.3706 59.4245 67.4826 59.8984 67.4878L61.8594 67.4878C62.4531 67.4878 62.9661 67.3784 63.3984 67.1597C63.8307 66.9357 64.1641 66.6206 64.3984 66.2144C64.6328 65.8081 64.75 65.3263 64.75 64.769C64.75 64.3993 64.6979 64.0607 64.5938 63.7534C64.4896 63.4461 64.3333 63.1831 64.125 62.9644C63.9167 62.7456 63.6615 62.5789 63.3594 62.4644L63.5625 59.3862C64.3021 59.5425 64.9479 59.8628 65.5 60.3472C66.0469 60.8263 66.474 61.4461 66.7813 62.2065C67.0833 62.9618 67.2344 63.8341 67.2344 64.8237ZM51 53.8159L67 53.8159L67 57.144L51 57.144L51 53.8159ZM67.2344 45.728C67.2344 46.9416 66.9766 47.991 66.4609 48.8765C65.9401 49.7567 65.2161 50.4364 64.2891 50.9155C63.3568 51.3947 62.276 51.6343 61.0469 51.6343C59.8073 51.6343 58.724 51.3947 57.7969 50.9155C56.8646 50.4364 56.1406 49.7567 55.625 48.8765C55.1042 47.991 54.8438 46.9416 54.8438 45.728C54.8438 44.5145 55.1042 43.4676 55.625 42.5874C56.1406 41.702 56.8646 41.0197 57.7969 40.5405C58.724 40.0614 59.8073 39.8218 61.0469 39.8218C62.276 39.8218 63.3568 40.0614 64.2891 40.5405C65.2161 41.0197 65.9401 41.702 66.4609 42.5874C66.9766 43.4676 67.2344 44.5145 67.2344 45.728ZM64.6563 45.7124C64.6563 45.1603 64.5 44.6994 64.1875 44.3296C63.8698 43.9598 63.4375 43.6812 62.8906 43.4937C62.3438 43.3009 61.7214 43.2046 61.0234 43.2046C60.3255 43.2046 59.7031 43.3009 59.1563 43.4937C58.6094 43.6812 58.1771 43.9598 57.8594 44.3296C57.5417 44.6994 57.3828 45.1603 57.3828 45.7124C57.3828 46.2697 57.5417 46.7384 57.8594 47.1187C58.1771 47.4937 58.6094 47.7775 59.1563 47.9702C59.7031 48.1577 60.3255 48.2515 61.0234 48.2515C61.7214 48.2515 62.3438 48.1577 62.8906 47.9702C63.4375 47.7775 63.8698 47.4937 64.1875 47.1187C64.5 46.7384 64.6563 46.2697 64.6563 45.7124ZM71.5 37.6577L55 37.6577L55 34.3765L57.0156 34.3765L57.0156 34.228C56.6927 34.0822 56.3646 33.8713 56.0313 33.5952C55.6927 33.314 55.4115 32.9494 55.1875 32.5015C54.9583 32.0483 54.8438 31.4858 54.8438 30.814C54.8438 29.939 55.0729 29.1317 55.5313 28.3921C55.9844 27.6525 56.6693 27.0614 57.5859 26.6187C58.4974 26.1759 59.6406 25.9546 61.0156 25.9546C62.3542 25.9546 63.4844 26.1707 64.4063 26.603C65.3229 27.0301 66.0182 27.6134 66.4922 28.353C66.9609 29.0874 67.1953 29.9103 67.1953 30.8218C67.1953 31.4676 67.0885 32.0171 66.875 32.4702C66.6615 32.9181 66.3932 33.2853 66.0703 33.5718C65.7422 33.8582 65.4115 34.077 65.0781 34.228L65.0781 34.3296L71.5 34.3296L71.5 37.6577ZM61 34.3999C61.7135 34.3999 62.3359 34.3009 62.8672 34.103C63.3984 33.9051 63.8125 33.6187 64.1094 33.2437C64.401 32.8687 64.5469 32.4129 64.5469 31.8765C64.5469 31.3348 64.3984 30.8765 64.1016 30.5015C63.7995 30.1265 63.3828 29.8426 62.8516 29.6499C62.3151 29.452 61.6979 29.353 61 29.353C60.3073 29.353 59.6979 29.4494 59.1719 29.6421C58.6458 29.8348 58.2344 30.1187 57.9375 30.4937C57.6406 30.8687 57.4922 31.3296 57.4922 31.8765C57.4922 32.4181 57.6354 32.8765 57.9219 33.2515C58.2083 33.6213 58.6146 33.9051 59.1406 34.103C59.6667 34.3009 60.2865 34.3999 61 34.3999Z" fill="black"/>
</g>
<defs>
<linearGradient id="paint0_linear_120_2" x1="383" y1="133" x2="383" y2="250" gradientUnits="userSpaceOnUse">
<stop stop-color="#D9D9D9"/>
<stop offset="0.471875" stop-color="white"/>
</linearGradient>
<clipPath id="clip0_120_2">
<rect width="315" height="1524" fill="white" transform="translate(0 315) rotate(-90)"/>
</clipPath>
</defs>
</svg>
