<svg width="882" height="315" viewBox="0 0 882 315" fill="none" xmlns="http://www.w3.org/2000/svg">
<g clip-path="url(#clip0_120_2)">
<rect width="315" height="882" transform="translate(0 315) rotate(-90)" fill="white"/>
<line x1="107" y1="192" x2="822" y2="192" stroke="black" stroke-opacity="0.3" stroke-width="6"/>
<circle cx="475" cy="193" r="18" transform="rotate(-90 475 193)" fill="#FB3DB5" stroke="black" stroke-width="6"/>
<circle cx="575" cy="193" r="18" transform="rotate(-90 575 193)" fill="#FB3DB5" stroke="black" stroke-width="6"/>
<circle cx="675" cy="193" r="18" transform="rotate(-90 675 193)" fill="#FB3DB5" stroke="black" stroke-width="6"/>
<path d="M460.526 178.424C461.312 178.685 462.161 178.261 462.423 177.475L466.692 164.668C466.954 163.882 466.529 163.032 465.743 162.77C464.958 162.508 464.108 162.933 463.846 163.719L460.051 175.103L448.667 171.308C447.881 171.046 447.032 171.471 446.77 172.257C446.508 173.043 446.933 173.892 447.718 174.154L460.526 178.424ZM410.658 79.6708L459.658 177.671L462.342 176.33L413.342 78.3292L410.658 79.6708Z" fill="black"/>
<path d="M555.043 194.078C555.638 193.503 555.654 192.553 555.078 191.957L545.696 182.251C545.12 181.655 544.17 181.639 543.575 182.215C542.979 182.791 542.963 183.741 543.539 184.336L551.879 192.964L543.251 201.304C542.655 201.88 542.639 202.83 543.215 203.425C543.791 204.021 544.741 204.037 545.336 203.461L555.043 194.078ZM494.975 193.5L553.975 194.5L554.025 191.5L495.025 190.5L494.975 193.5Z" fill="black"/>
<path d="M655.061 195.061C655.646 194.475 655.646 193.525 655.061 192.939L645.515 183.393C644.929 182.808 643.979 182.808 643.393 183.393C642.808 183.979 642.808 184.929 643.393 185.515L651.879 194L643.393 202.485C642.808 203.071 642.808 204.021 643.393 204.607C643.979 205.192 644.929 205.192 645.515 204.607L655.061 195.061ZM596 195.5L654 195.5L654 192.5L596 192.5L596 195.5Z" fill="black"/>
<path d="M735.425 86.5318C735.167 85.7448 734.319 85.3164 733.532 85.5749L720.706 89.7884C719.919 90.047 719.491 90.8946 719.749 91.6817C720.008 92.4687 720.856 92.8971 721.643 92.6386L733.043 88.8932L736.788 100.294C737.047 101.081 737.895 101.509 738.682 101.251C739.469 100.992 739.897 100.144 739.639 99.3574L735.425 86.5318ZM688.839 179.677L735.339 87.6766L732.661 86.3234L686.161 178.324L688.839 179.677Z" fill="black"/>
<path d="M24 223.486L25.5625 223.486L25.5625 229.955L24 229.955L24 223.486ZM36 228.018L22.3438 228.018C21.6562 228.018 21.0833 227.856 20.625 227.533C20.1667 227.21 19.8229 226.791 19.5937 226.275C19.3646 225.76 19.25 225.215 19.25 224.643C19.25 224.189 19.2865 223.82 19.3594 223.533C19.4323 223.247 19.5 223.033 19.5625 222.893L21.1562 223.424C21.125 223.518 21.0859 223.648 21.0391 223.814C20.9922 223.976 20.9687 224.189 20.9687 224.455C20.9687 225.064 21.1224 225.505 21.4297 225.775C21.737 226.041 22.1875 226.174 22.7812 226.174L36 226.174L36 228.018ZM36.25 216.365C36.25 217.521 35.9948 218.519 35.4844 219.357C34.9688 220.191 34.25 220.834 33.3281 221.287C32.401 221.735 31.3229 221.959 30.0938 221.959C28.8646 221.959 27.7812 221.735 26.8438 221.287C25.901 220.834 25.1667 220.204 24.6406 219.396C24.1094 218.584 23.8438 217.636 23.8438 216.553C23.8438 215.928 23.9479 215.311 24.1562 214.701C24.3646 214.092 24.7031 213.537 25.1719 213.037C25.6354 212.537 26.25 212.139 27.0156 211.842C27.7813 211.545 28.724 211.396 29.8438 211.396L30.625 211.396L30.625 220.646L29.0313 220.646L29.0313 213.271C28.3542 213.271 27.75 213.407 27.2187 213.678C26.6875 213.943 26.2682 214.324 25.9609 214.818C25.6536 215.308 25.5 215.886 25.5 216.553C25.5 217.287 25.6823 217.923 26.0469 218.459C26.4063 218.99 26.875 219.399 27.4531 219.686C28.0312 219.972 28.651 220.115 29.3125 220.115L30.375 220.115C31.2813 220.115 32.0495 219.959 32.6797 219.646C33.3047 219.329 33.7813 218.889 34.1094 218.326C34.4323 217.764 34.5938 217.11 34.5938 216.365C34.5938 215.881 34.526 215.443 34.3906 215.053C34.25 214.657 34.0417 214.316 33.7656 214.029C33.4844 213.743 33.1354 213.521 32.7188 213.365L33.2188 211.584C33.8229 211.771 34.3542 212.087 34.8125 212.529C35.2656 212.972 35.6198 213.519 35.875 214.17C36.125 214.821 36.25 215.553 36.25 216.365ZM36.2813 205.061C36.2813 205.821 36.138 206.511 35.8516 207.131C35.5599 207.751 35.1406 208.243 34.5938 208.607C34.0417 208.972 33.375 209.154 32.5938 209.154C31.9063 209.154 31.349 209.019 30.9219 208.748C30.4896 208.477 30.151 208.115 29.9062 207.662C29.6615 207.209 29.4792 206.709 29.3594 206.162C29.2344 205.61 29.1354 205.055 29.0625 204.498C28.9688 203.769 28.8984 203.178 28.8516 202.725C28.7995 202.266 28.7135 201.933 28.5938 201.725C28.474 201.511 28.2656 201.404 27.9687 201.404L27.9063 201.404C27.1354 201.404 26.5365 201.615 26.1094 202.037C25.6823 202.454 25.4688 203.087 25.4688 203.936C25.4688 204.816 25.6615 205.506 26.0469 206.006C26.4323 206.506 26.8438 206.857 27.2812 207.061L26.6562 208.811C25.9271 208.498 25.3594 208.081 24.9531 207.561C24.5417 207.035 24.2552 206.462 24.0938 205.842C23.9271 205.217 23.8438 204.602 23.8438 203.998C23.8438 203.613 23.8906 203.17 23.9844 202.67C24.0729 202.165 24.2578 201.678 24.5391 201.209C24.8203 200.735 25.2448 200.342 25.8125 200.029C26.3802 199.717 27.1406 199.561 28.0938 199.561L36 199.561L36 201.404L34.375 201.404L34.375 201.498C34.6354 201.623 34.9141 201.831 35.2109 202.123C35.5078 202.415 35.7604 202.803 35.9688 203.287C36.1771 203.771 36.2813 204.363 36.2813 205.061ZM34.625 204.779C34.625 204.05 34.4818 203.436 34.1953 202.936C33.9089 202.43 33.5391 202.05 33.0859 201.795C32.6328 201.535 32.1563 201.404 31.6563 201.404L29.9688 201.404C30.0625 201.482 30.1484 201.654 30.2266 201.92C30.2995 202.18 30.3646 202.482 30.4219 202.826C30.474 203.165 30.5208 203.495 30.5625 203.818C30.599 204.136 30.6302 204.394 30.6563 204.592C30.7188 205.071 30.8203 205.519 30.9609 205.936C31.0964 206.347 31.3021 206.68 31.5781 206.936C31.849 207.186 32.2188 207.311 32.6875 207.311C33.3281 207.311 33.8125 207.074 34.1406 206.6C34.4635 206.12 34.625 205.514 34.625 204.779ZM24 190.977L25.5625 190.977L25.5625 197.195L24 197.195L24 190.977ZM21.125 195.383L21.125 193.539L32.5625 193.539C33.0833 193.539 33.474 193.464 33.7344 193.313C33.9896 193.156 34.1615 192.958 34.25 192.719C34.3333 192.474 34.375 192.216 34.375 191.945C34.375 191.742 34.3646 191.576 34.3438 191.445C34.3177 191.315 34.2969 191.211 34.2813 191.133L35.9375 190.758C35.9844 190.883 36.0313 191.057 36.0781 191.281C36.1302 191.505 36.1563 191.789 36.1563 192.133C36.1563 192.654 36.0443 193.164 35.8203 193.664C35.5964 194.159 35.2552 194.57 34.7969 194.898C34.3385 195.221 33.7604 195.383 33.0625 195.383L21.125 195.383ZM31.0938 180.641L24 180.641L24 178.797L36 178.797L36 180.641L33.9688 180.641L33.9688 180.766C34.5781 181.047 35.0964 181.484 35.5234 182.078C35.9453 182.672 36.1563 183.422 36.1563 184.328C36.1563 185.078 35.9922 185.745 35.6641 186.328C35.3307 186.911 34.8307 187.37 34.1641 187.703C33.4922 188.036 32.6458 188.203 31.625 188.203L24 188.203L24 186.359L31.5 186.359C32.375 186.359 33.0729 186.115 33.5938 185.625C34.1146 185.13 34.375 184.5 34.375 183.734C34.375 183.276 34.2578 182.81 34.0234 182.336C33.7891 181.857 33.4297 181.456 32.9453 181.133C32.4609 180.805 31.8438 180.641 31.0938 180.641ZM36 175.42L24 175.42L24 173.639L25.8125 173.639L25.8125 173.514C25.2188 173.295 24.737 172.899 24.3672 172.326C23.9974 171.753 23.8125 171.107 23.8125 170.389C23.8125 170.253 23.8151 170.084 23.8203 169.881C23.8255 169.678 23.8333 169.524 23.8438 169.42L25.7188 169.42C25.7031 169.482 25.6797 169.626 25.6484 169.85C25.612 170.068 25.5938 170.3 25.5938 170.545C25.5938 171.128 25.7161 171.649 25.9609 172.107C26.2005 172.561 26.5339 172.92 26.9609 173.186C27.3828 173.446 27.8646 173.576 28.4063 173.576L36 173.576L36 175.42ZM36.25 162.568C36.25 163.725 35.9948 164.722 35.4844 165.561C34.9688 166.394 34.25 167.037 33.3281 167.49C32.401 167.938 31.3229 168.162 30.0938 168.162C28.8646 168.162 27.7813 167.938 26.8438 167.49C25.901 167.037 25.1667 166.407 24.6406 165.6C24.1094 164.787 23.8438 163.839 23.8438 162.756C23.8438 162.131 23.9479 161.514 24.1563 160.904C24.3646 160.295 24.7031 159.74 25.1719 159.24C25.6354 158.74 26.25 158.342 27.0156 158.045C27.7813 157.748 28.724 157.6 29.8438 157.6L30.625 157.6L30.625 166.85L29.0313 166.85L29.0313 159.475C28.3542 159.475 27.75 159.61 27.2188 159.881C26.6875 160.146 26.2682 160.527 25.9609 161.021C25.6536 161.511 25.5 162.089 25.5 162.756C25.5 163.49 25.6823 164.126 26.0469 164.662C26.4063 165.193 26.875 165.602 27.4531 165.889C28.0313 166.175 28.651 166.318 29.3125 166.318L30.375 166.318C31.2813 166.318 32.0495 166.162 32.6797 165.85C33.3047 165.532 33.7813 165.092 34.1094 164.529C34.4323 163.967 34.5938 163.313 34.5938 162.568C34.5938 162.084 34.526 161.646 34.3906 161.256C34.25 160.86 34.0417 160.519 33.7656 160.232C33.4844 159.946 33.1354 159.725 32.7188 159.568L33.2188 157.787C33.8229 157.975 34.3542 158.29 34.8125 158.732C35.2656 159.175 35.6198 159.722 35.875 160.373C36.125 161.024 36.25 161.756 36.25 162.568ZM67 239.913L51 239.913L51 238.069L56.9062 238.069L56.9062 237.913C56.6979 237.778 56.4323 237.59 56.1094 237.351C55.7812 237.106 55.4896 236.757 55.2344 236.304C54.974 235.845 54.8438 235.226 54.8438 234.444C54.8438 233.434 55.0964 232.543 55.6016 231.772C56.1068 231.002 56.8229 230.4 57.75 229.968C58.6771 229.535 59.7708 229.319 61.0313 229.319C62.3021 229.319 63.4036 229.535 64.3359 229.968C65.263 230.4 65.9818 230.999 66.4922 231.765C66.9974 232.53 67.25 233.413 67.25 234.413C67.25 235.184 67.1224 235.801 66.8672 236.265C66.6068 236.728 66.3125 237.085 65.9844 237.335C65.651 237.585 65.375 237.778 65.1563 237.913L65.1563 238.132L67 238.132L67 239.913ZM61 238.101C61.9062 238.101 62.7057 237.968 63.3984 237.702C64.0859 237.437 64.625 237.049 65.0156 236.538C65.401 236.028 65.5938 235.403 65.5938 234.663C65.5938 233.892 65.3906 233.249 64.9844 232.733C64.5729 232.213 64.0208 231.822 63.3281 231.562C62.6302 231.296 61.8542 231.163 61 231.163C60.1562 231.163 59.3958 231.293 58.7187 231.554C58.0365 231.809 57.4974 232.197 57.1016 232.718C56.7005 233.233 56.5 233.882 56.5 234.663C56.5 235.413 56.6901 236.043 57.0703 236.554C57.4453 237.064 57.9714 237.45 58.6484 237.71C59.3203 237.97 60.1042 238.101 61 238.101ZM67 226.499L55 226.499L55 224.718L56.8125 224.718L56.8125 224.593C56.2188 224.374 55.737 223.978 55.3672 223.405C54.9974 222.832 54.8125 222.187 54.8125 221.468C54.8125 221.332 54.8151 221.163 54.8203 220.96C54.8255 220.757 54.8333 220.603 54.8438 220.499L56.7187 220.499C56.7031 220.562 56.6797 220.705 56.6484 220.929C56.612 221.147 56.5938 221.379 56.5938 221.624C56.5937 222.207 56.7161 222.728 56.9609 223.187C57.2005 223.64 57.5339 223.999 57.9609 224.265C58.3828 224.525 58.8646 224.655 59.4062 224.655L67 224.655L67 226.499ZM67.2813 214.782C67.2813 215.543 67.138 216.233 66.8516 216.853C66.5599 217.472 66.1406 217.965 65.5938 218.329C65.0417 218.694 64.375 218.876 63.5938 218.876C62.9063 218.876 62.349 218.741 61.9219 218.47C61.4896 218.199 61.151 217.837 60.9062 217.384C60.6615 216.931 60.4792 216.431 60.3594 215.884C60.2344 215.332 60.1354 214.777 60.0625 214.22C59.9688 213.491 59.8984 212.899 59.8516 212.446C59.7995 211.988 59.7135 211.655 59.5937 211.446C59.474 211.233 59.2656 211.126 58.9687 211.126L58.9062 211.126C58.1354 211.126 57.5365 211.337 57.1094 211.759C56.6823 212.175 56.4688 212.808 56.4688 213.657C56.4688 214.537 56.6615 215.228 57.0469 215.728C57.4323 216.228 57.8437 216.579 58.2812 216.782L57.6562 218.532C56.9271 218.22 56.3594 217.803 55.9531 217.282C55.5417 216.756 55.2552 216.183 55.0938 215.563C54.9271 214.938 54.8438 214.324 54.8438 213.72C54.8438 213.334 54.8906 212.892 54.9844 212.392C55.0729 211.886 55.2578 211.399 55.5391 210.931C55.8203 210.457 56.2448 210.063 56.8125 209.751C57.3802 209.438 58.1406 209.282 59.0938 209.282L67 209.282L67 211.126L65.375 211.126L65.375 211.22C65.6354 211.345 65.9141 211.553 66.2109 211.845C66.5078 212.136 66.7604 212.524 66.9688 213.009C67.1771 213.493 67.2813 214.084 67.2813 214.782ZM65.625 214.501C65.625 213.772 65.4818 213.157 65.1953 212.657C64.9089 212.152 64.5391 211.772 64.0859 211.517C63.6328 211.256 63.1563 211.126 62.6563 211.126L60.9687 211.126C61.0625 211.204 61.1484 211.376 61.2266 211.642C61.2995 211.902 61.3646 212.204 61.4219 212.548C61.474 212.886 61.5208 213.217 61.5625 213.54C61.599 213.858 61.6302 214.116 61.6563 214.313C61.7188 214.793 61.8203 215.241 61.9609 215.657C62.0964 216.069 62.3021 216.402 62.5781 216.657C62.849 216.907 63.2188 217.032 63.6875 217.032C64.3281 217.032 64.8125 216.795 65.1406 216.321C65.4635 215.842 65.625 215.235 65.625 214.501ZM59.7813 204.073L67 204.073L67 205.917L55 205.917L55 204.136L56.875 204.136L56.875 203.979C56.2656 203.698 55.776 203.271 55.4063 202.698C55.0313 202.125 54.8438 201.386 54.8438 200.479C54.8438 199.667 55.0104 198.956 55.3438 198.347C55.6719 197.737 56.1719 197.263 56.8438 196.925C57.5104 196.586 58.3542 196.417 59.375 196.417L67 196.417L67 198.261L59.5 198.261C58.5573 198.261 57.8229 198.506 57.2969 198.995C56.7656 199.485 56.5 200.157 56.5 201.011C56.5 201.599 56.6276 202.125 56.8828 202.589C57.138 203.047 57.5104 203.409 58 203.675C58.4896 203.94 59.0833 204.073 59.7813 204.073ZM67.25 188.173C67.25 189.298 66.9844 190.267 66.4531 191.079C65.9219 191.892 65.1901 192.517 64.2578 192.954C63.3255 193.392 62.2604 193.61 61.0625 193.61C59.8438 193.61 58.7682 193.386 57.8359 192.938C56.8984 192.485 56.1667 191.855 55.6406 191.048C55.1094 190.235 54.8438 189.287 54.8438 188.204C54.8438 187.36 55 186.6 55.3125 185.923C55.625 185.246 56.0625 184.691 56.625 184.259C57.1875 183.826 57.8438 183.558 58.5938 183.454L58.5938 185.298C58.0469 185.438 57.5625 185.751 57.1406 186.235C56.7135 186.715 56.5 187.36 56.5 188.173C56.5 188.892 56.6875 189.522 57.0625 190.063C57.4323 190.6 57.9557 191.019 58.6328 191.321C59.3047 191.618 60.0938 191.767 61 191.767C61.9271 191.767 62.7344 191.621 63.4219 191.329C64.1094 191.032 64.6432 190.616 65.0234 190.079C65.4036 189.537 65.5938 188.902 65.5938 188.173C65.5938 187.694 65.5104 187.259 65.3438 186.868C65.1771 186.478 64.9375 186.147 64.625 185.876C64.3125 185.605 63.9375 185.412 63.5 185.298L63.5 183.454C64.2083 183.558 64.8464 183.816 65.4141 184.228C65.9766 184.634 66.4245 185.173 66.7578 185.845C67.0859 186.511 67.25 187.287 67.25 188.173ZM59.7813 178.915L67 178.915L67 180.759L51 180.759L51 178.915L56.875 178.915L56.875 178.759C56.2552 178.478 55.763 178.056 55.3984 177.493C55.0286 176.925 54.8438 176.17 54.8438 175.228C54.8438 174.41 55.0078 173.694 55.3359 173.079C55.6589 172.465 56.1563 171.988 56.8281 171.649C57.4948 171.306 58.3438 171.134 59.375 171.134L67 171.134L67 172.978L59.5 172.978C58.5469 172.978 57.8099 173.225 57.2891 173.72C56.763 174.209 56.5 174.889 56.5 175.759C56.5 176.363 56.6276 176.905 56.8828 177.384C57.138 177.858 57.5104 178.233 58 178.509C58.4896 178.78 59.0833 178.915 59.7813 178.915ZM67.25 162.729C67.25 163.886 66.9948 164.883 66.4844 165.722C65.9688 166.555 65.25 167.198 64.3281 167.651C63.401 168.099 62.3229 168.323 61.0938 168.323C59.8646 168.323 58.7813 168.099 57.8438 167.651C56.901 167.198 56.1667 166.568 55.6406 165.761C55.1094 164.948 54.8438 164 54.8438 162.917C54.8438 162.292 54.9479 161.675 55.1563 161.065C55.3646 160.456 55.7031 159.901 56.1719 159.401C56.6354 158.901 57.25 158.503 58.0156 158.206C58.7813 157.909 59.724 157.761 60.8438 157.761L61.625 157.761L61.625 167.011L60.0313 167.011L60.0313 159.636C59.3542 159.636 58.75 159.771 58.2188 160.042C57.6875 160.308 57.2682 160.688 56.9609 161.183C56.6536 161.672 56.5 162.25 56.5 162.917C56.5 163.651 56.6823 164.287 57.0469 164.823C57.4063 165.354 57.875 165.763 58.4531 166.05C59.0313 166.336 59.651 166.479 60.3125 166.479L61.375 166.479C62.2813 166.479 63.0495 166.323 63.6797 166.011C64.3047 165.693 64.7813 165.253 65.1094 164.69C65.4323 164.128 65.5938 163.474 65.5938 162.729C65.5938 162.245 65.526 161.808 65.3906 161.417C65.25 161.021 65.0417 160.68 64.7656 160.394C64.4844 160.107 64.1354 159.886 63.7188 159.729L64.2188 157.948C64.8229 158.136 65.3542 158.451 65.8125 158.894C66.2656 159.336 66.6198 159.883 66.875 160.534C67.125 161.185 67.25 161.917 67.25 162.729ZM57.6875 146.456L58.1563 148.112C57.8802 148.216 57.612 148.37 57.3516 148.573C57.0859 148.771 56.8672 149.042 56.6953 149.386C56.5234 149.729 56.4375 150.17 56.4375 150.706C56.4375 151.44 56.6068 152.052 56.9453 152.542C57.2786 153.026 57.7031 153.269 58.2188 153.269C58.6771 153.269 59.0391 153.102 59.3047 152.769C59.5703 152.435 59.7917 151.914 59.9688 151.206L60.4063 149.425C60.6667 148.352 61.0651 147.552 61.6016 147.026C62.1328 146.5 62.8177 146.237 63.6563 146.237C64.3438 146.237 64.9583 146.435 65.5 146.831C66.0417 147.222 66.4688 147.769 66.7813 148.472C67.0938 149.175 67.25 149.993 67.25 150.925C67.25 152.149 66.9844 153.162 66.4531 153.964C65.9219 154.766 65.1458 155.274 64.125 155.487L63.6875 153.737C64.3333 153.571 64.8177 153.256 65.1406 152.792C65.4635 152.323 65.625 151.711 65.625 150.956C65.625 150.097 65.4427 149.414 65.0781 148.909C64.7083 148.399 64.2656 148.144 63.75 148.144C63.3333 148.144 62.9844 148.289 62.7031 148.581C62.4167 148.873 62.2031 149.321 62.0625 149.925L61.5938 151.925C61.3333 153.024 60.9297 153.831 60.3828 154.347C59.8307 154.857 59.1406 155.112 58.3125 155.112C57.6354 155.112 57.0365 154.922 56.5156 154.542C55.9948 154.157 55.5859 153.633 55.2891 152.972C54.9922 152.305 54.8438 151.55 54.8438 150.706C54.8438 149.519 55.1042 148.586 55.625 147.909C56.1458 147.227 56.8333 146.743 57.6875 146.456Z" fill="black"/>
<line x1="109" y1="65" x2="822" y2="65" stroke="black" stroke-opacity="0.3" stroke-width="6"/>
<circle cx="235" cy="65.0005" r="18" transform="rotate(-90 235 65.0005)" fill="#FFE333" stroke="black" stroke-width="6"/>
<circle cx="319" cy="65.0005" r="18" transform="rotate(-90 319 65.0005)" fill="#FFE333" stroke="black" stroke-width="6"/>
<circle cx="403" cy="65.0005" r="18" transform="rotate(-90 403 65.0005)" fill="#FFE333" stroke="black" stroke-width="6"/>
<circle cx="487" cy="65.0005" r="18" transform="rotate(-90 487 65.0005)" fill="#FFE333" stroke="black" stroke-width="6"/>
<circle cx="613" cy="65.0005" r="18" transform="rotate(-90 613 65.0005)" fill="#FFE333" stroke="black" stroke-width="6"/>
<circle cx="739" cy="65.0005" r="18" transform="rotate(-90 739 65.0005)" fill="#FFE333" stroke="black" stroke-width="6"/>
<path d="M299.086 66.0356C299.657 65.436 299.635 64.4866 299.035 63.9149L289.265 54.5989C288.665 54.0272 287.716 54.0498 287.144 54.6494C286.572 55.2489 286.595 56.1984 287.194 56.7701L295.879 65.051L287.598 73.7358C287.027 74.3354 287.049 75.2849 287.649 75.8566C288.248 76.4282 289.198 76.4056 289.77 75.8061L299.086 66.0356ZM256.036 67.5001L298.036 66.5001L297.964 63.5009L255.964 64.5009L256.036 67.5001Z" fill="black"/>
<path d="M383.086 66.0356C383.657 65.436 383.635 64.4866 383.035 63.9149L373.265 54.5989C372.665 54.0272 371.716 54.0498 371.144 54.6494C370.572 55.2489 370.595 56.1984 371.194 56.7701L379.879 65.051L371.598 73.7358C371.027 74.3354 371.049 75.2849 371.649 75.8566C372.248 76.4282 373.198 76.4056 373.77 75.8061L383.086 66.0356ZM340.036 67.5001L382.036 66.5001L381.964 63.5009L339.964 64.5009L340.036 67.5001Z" fill="black"/>
<path d="M467.061 66.0611C467.646 65.4754 467.646 64.5256 467.061 63.9398L457.515 54.3939C456.929 53.8081 455.979 53.8081 455.393 54.3939C454.808 54.9797 454.808 55.9294 455.393 56.5152L463.879 65.0005L455.393 73.4858C454.808 74.0716 454.808 75.0213 455.393 75.6071C455.979 76.1929 456.929 76.1929 457.515 75.6071L467.061 66.0611ZM422 66.5005L466 66.5005L466 63.5005L422 63.5005L422 66.5005Z" fill="black"/>
<path d="M593.048 66.0737C593.641 65.4949 593.652 64.5452 593.073 63.9525L583.642 54.2936C583.063 53.7009 582.113 53.6896 581.52 54.2684C580.928 54.8472 580.916 55.7968 581.495 56.3895L589.879 64.9752L581.293 73.3589C580.7 73.9377 580.689 74.8874 581.268 75.4801C581.847 76.0728 582.796 76.0841 583.389 75.5053L593.048 66.0737ZM507.982 65.5004L591.982 66.5004L592.018 63.5006L508.018 62.5006L507.982 65.5004Z" fill="black"/>
<path d="M719.061 66.0611C719.646 65.4754 719.646 64.5256 719.061 63.9398L709.515 54.3939C708.929 53.8081 707.979 53.8081 707.393 54.3939C706.808 54.9797 706.808 55.9294 707.393 56.5152L715.879 65.0005L707.393 73.4858C706.808 74.0716 706.808 75.0213 707.393 75.6071C707.979 76.1929 708.929 76.1929 709.515 75.6071L719.061 66.0611ZM632 66.5005L718 66.5005L718 63.5005L632 63.5005L632 66.5005Z" fill="black"/>
<path d="M67.1953 105.187C67.1953 106.098 66.9609 106.924 66.4922 107.664C66.0182 108.398 65.3229 108.981 64.4062 109.414C63.4844 109.841 62.3542 110.054 61.0156 110.054C59.6406 110.054 58.4974 109.833 57.5859 109.39C56.6693 108.947 55.9844 108.359 55.5313 107.625C55.0729 106.885 54.8438 106.075 54.8438 105.195C54.8438 104.523 54.9583 103.963 55.1875 103.515C55.4115 103.062 55.6927 102.697 56.0312 102.421C56.3646 102.14 56.6927 101.927 57.0156 101.781L57.0156 101.679L51 101.679L51 98.3589L67 98.3589L67 101.64L65.0781 101.64L65.0781 101.781C65.4115 101.937 65.7422 102.158 66.0703 102.445C66.3932 102.726 66.6615 103.093 66.875 103.546C67.0885 103.994 67.1953 104.541 67.1953 105.187ZM64.5469 104.132C64.5469 103.596 64.401 103.143 64.1094 102.773C63.8125 102.398 63.3984 102.111 62.8672 101.914C62.3359 101.71 61.7135 101.609 61 101.609C60.2865 101.609 59.6667 101.708 59.1406 101.906C58.6146 102.104 58.2083 102.39 57.9219 102.765C57.6354 103.14 57.4922 103.596 57.4922 104.132C57.4922 104.679 57.6406 105.14 57.9375 105.515C58.2344 105.89 58.6458 106.174 59.1719 106.367C59.6979 106.559 60.3073 106.656 61 106.656C61.6979 106.656 62.3151 106.559 62.8516 106.367C63.3828 106.169 63.7995 105.885 64.1016 105.515C64.3984 105.14 64.5469 104.679 64.5469 104.132ZM67.2344 90.1538C67.2344 91.3882 66.9844 92.4507 66.4844 93.3413C65.9792 94.2267 65.2656 94.909 64.3438 95.3882C63.4167 95.8674 62.3203 96.1069 61.0547 96.1069C59.8203 96.1069 58.737 95.8674 57.8047 95.3882C56.8724 94.909 56.1458 94.2345 55.625 93.3647C55.1042 92.4897 54.8438 91.4637 54.8438 90.2866C54.8438 89.495 54.9714 88.758 55.2266 88.0757C55.4766 87.3882 55.8542 86.7892 56.3594 86.2788C56.8646 85.7632 57.5 85.3621 58.2656 85.0757C59.026 84.7892 59.9167 84.646 60.9375 84.646L61.8516 84.646L61.8516 94.7788L59.7891 94.7788L59.7891 87.7788C59.3099 87.7788 58.8854 87.883 58.5156 88.0913C58.1458 88.2996 57.8568 88.5887 57.6484 88.9585C57.4349 89.3231 57.3281 89.7476 57.3281 90.2319C57.3281 90.7371 57.4453 91.1851 57.6797 91.5757C57.9089 91.9611 58.2187 92.2632 58.6094 92.4819C58.9948 92.7007 59.4245 92.8127 59.8984 92.8179L61.8594 92.8179C62.4531 92.8179 62.9661 92.7085 63.3984 92.4897C63.8307 92.2658 64.1641 91.9507 64.3984 91.5444C64.6328 91.1382 64.75 90.6564 64.75 90.0991C64.75 89.7293 64.6979 89.3908 64.5938 89.0835C64.4896 88.7762 64.3333 88.5132 64.125 88.2944C63.9167 88.0757 63.6615 87.909 63.3594 87.7944L63.5625 84.7163C64.3021 84.8726 64.9479 85.1929 65.5 85.6772C66.0469 86.1564 66.474 86.7762 66.7813 87.5366C67.0833 88.2918 67.2344 89.1642 67.2344 90.1538ZM55 71.6089L67 75.8042L67 79.5542L55 83.7495L55 80.2339L63.5859 77.7417L63.5859 77.6167L55 75.1323L55 71.6089ZM67.2344 64.8237C67.2344 66.0581 66.9844 67.1206 66.4844 68.0112C65.9792 68.8966 65.2656 69.5789 64.3438 70.0581C63.4167 70.5373 62.3203 70.7769 61.0547 70.7769C59.8203 70.7769 58.737 70.5373 57.8047 70.0581C56.8724 69.5789 56.1458 68.9045 55.625 68.0347C55.1042 67.1597 54.8438 66.1336 54.8438 64.9565C54.8438 64.1649 54.9714 63.4279 55.2266 62.7456C55.4766 62.0581 55.8542 61.4591 56.3594 60.9487C56.8646 60.4331 57.5 60.0321 58.2656 59.7456C59.026 59.4591 59.9167 59.3159 60.9375 59.3159L61.8516 59.3159L61.8516 69.4487L59.7891 69.4487L59.7891 62.4487C59.3099 62.4487 58.8854 62.5529 58.5156 62.7612C58.1458 62.9696 57.8568 63.2586 57.6484 63.6284C57.4349 63.993 57.3281 64.4175 57.3281 64.9019C57.3281 65.4071 57.4453 65.855 57.6797 66.2456C57.9089 66.631 58.2188 66.9331 58.6094 67.1519C58.9948 67.3706 59.4245 67.4826 59.8984 67.4878L61.8594 67.4878C62.4531 67.4878 62.9661 67.3784 63.3984 67.1597C63.8307 66.9357 64.1641 66.6206 64.3984 66.2144C64.6328 65.8081 64.75 65.3263 64.75 64.769C64.75 64.3993 64.6979 64.0607 64.5938 63.7534C64.4896 63.4461 64.3333 63.1831 64.125 62.9644C63.9167 62.7456 63.6615 62.5789 63.3594 62.4644L63.5625 59.3862C64.3021 59.5425 64.9479 59.8628 65.5 60.3472C66.0469 60.8263 66.474 61.4461 66.7813 62.2065C67.0833 62.9618 67.2344 63.8341 67.2344 64.8237ZM51 53.8159L67 53.8159L67 57.144L51 57.144L51 53.8159ZM67.2344 45.728C67.2344 46.9416 66.9766 47.991 66.4609 48.8765C65.9401 49.7567 65.2161 50.4364 64.2891 50.9155C63.3568 51.3947 62.276 51.6343 61.0469 51.6343C59.8073 51.6343 58.724 51.3947 57.7969 50.9155C56.8646 50.4364 56.1406 49.7567 55.625 48.8765C55.1042 47.991 54.8438 46.9416 54.8438 45.728C54.8438 44.5145 55.1042 43.4676 55.625 42.5874C56.1406 41.702 56.8646 41.0197 57.7969 40.5405C58.724 40.0614 59.8073 39.8218 61.0469 39.8218C62.276 39.8218 63.3568 40.0614 64.2891 40.5405C65.2161 41.0197 65.9401 41.702 66.4609 42.5874C66.9766 43.4676 67.2344 44.5145 67.2344 45.728ZM64.6563 45.7124C64.6563 45.1603 64.5 44.6994 64.1875 44.3296C63.8698 43.9598 63.4375 43.6812 62.8906 43.4937C62.3438 43.3009 61.7214 43.2046 61.0234 43.2046C60.3255 43.2046 59.7031 43.3009 59.1563 43.4937C58.6094 43.6812 58.1771 43.9598 57.8594 44.3296C57.5417 44.6994 57.3828 45.1603 57.3828 45.7124C57.3828 46.2697 57.5417 46.7384 57.8594 47.1187C58.1771 47.4937 58.6094 47.7775 59.1563 47.9702C59.7031 48.1577 60.3255 48.2515 61.0234 48.2515C61.7214 48.2515 62.3438 48.1577 62.8906 47.9702C63.4375 47.7775 63.8698 47.4937 64.1875 47.1187C64.5 46.7384 64.6563 46.2697 64.6563 45.7124ZM71.5 37.6577L55 37.6577L55 34.3765L57.0156 34.3765L57.0156 34.228C56.6927 34.0822 56.3646 33.8713 56.0313 33.5952C55.6927 33.314 55.4115 32.9494 55.1875 32.5015C54.9583 32.0483 54.8438 31.4858 54.8438 30.814C54.8438 29.939 55.0729 29.1317 55.5313 28.3921C55.9844 27.6525 56.6693 27.0614 57.5859 26.6187C58.4974 26.1759 59.6406 25.9546 61.0156 25.9546C62.3542 25.9546 63.4844 26.1707 64.4063 26.603C65.3229 27.0301 66.0182 27.6134 66.4922 28.353C66.9609 29.0874 67.1953 29.9103 67.1953 30.8218C67.1953 31.4676 67.0885 32.0171 66.875 32.4702C66.6615 32.9181 66.3932 33.2853 66.0703 33.5718C65.7422 33.8582 65.4115 34.077 65.0781 34.228L65.0781 34.3296L71.5 34.3296L71.5 37.6577ZM61 34.3999C61.7135 34.3999 62.3359 34.3009 62.8672 34.103C63.3984 33.9051 63.8125 33.6187 64.1094 33.2437C64.401 32.8687 64.5469 32.4129 64.5469 31.8765C64.5469 31.3348 64.3984 30.8765 64.1016 30.5015C63.7995 30.1265 63.3828 29.8426 62.8516 29.6499C62.3151 29.452 61.6979 29.353 61 29.353C60.3073 29.353 59.6979 29.4494 59.1719 29.6421C58.6458 29.8348 58.2344 30.1187 57.9375 30.4937C57.6406 30.8687 57.4922 31.3296 57.4922 31.8765C57.4922 32.4181 57.6354 32.8765 57.9219 33.2515C58.2083 33.6213 58.6146 33.9051 59.1406 34.103C59.6667 34.3009 60.2865 34.3999 61 34.3999Z" fill="black"/>
</g>
<defs>
<clipPath id="clip0_120_2">
<rect width="315" height="882" fill="white" transform="translate(0 315) rotate(-90)"/>
</clipPath>
</defs>
</svg>
