<svg width="882" height="362" viewBox="0 0 882 362" fill="none" xmlns="http://www.w3.org/2000/svg">
<g clip-path="url(#clip0_4_270)">
<rect width="362" height="882" transform="translate(0 362) rotate(-90)" fill="white"/>
<line x1="129" y1="60" x2="819" y2="60" stroke="black" stroke-opacity="0.3" stroke-width="6"/>
<path d="M67 99.5488L55 99.5488L55 96.377L57.1172 96.377L57.1172 96.2363C56.4141 95.9863 55.8594 95.5697 55.4531 94.9863C55.0469 94.403 54.8438 93.7051 54.8438 92.8926C54.8438 92.0697 55.0495 91.3691 55.4609 90.791C55.8672 90.2129 56.4193 89.8275 57.1172 89.6348L57.1172 89.5098C56.4297 89.265 55.8802 88.8223 55.4687 88.1816C55.0521 87.5358 54.8438 86.7728 54.8438 85.8926C54.8438 84.7728 55.2005 83.8639 55.9141 83.166C56.6224 82.4629 57.6276 82.1113 58.9297 82.1113L67 82.1113L67 85.4316L59.5859 85.4316C58.9193 85.4316 58.4193 85.6087 58.0859 85.9629C57.7526 86.3171 57.5859 86.7598 57.5859 87.291C57.5859 87.8952 57.7786 88.3665 58.1641 88.7051C58.5443 89.0436 59.0469 89.2129 59.6719 89.2129L67 89.2129L67 92.4395L59.5156 92.4395C58.9271 92.4395 58.4583 92.6087 58.1094 92.9473C57.7604 93.2806 57.5859 93.7207 57.5859 94.2676C57.5859 94.6374 57.6797 94.9707 57.8672 95.2676C58.0495 95.5592 58.3073 95.791 58.6406 95.9629C58.9687 96.1348 59.3542 96.2207 59.7969 96.2207L67 96.2207L67 99.5488ZM67.2266 76.0605C67.2266 76.8262 67.0938 77.5085 66.8281 78.1074C66.5573 78.7064 66.1589 79.1803 65.6328 79.5293C65.1016 79.873 64.4401 80.0449 63.6484 80.0449C62.9818 80.0449 62.4219 79.9225 61.9688 79.6777C61.5156 79.4329 61.151 79.0996 60.875 78.6777C60.599 78.2559 60.3906 77.7767 60.25 77.2402C60.1094 76.6986 60.0104 76.1309 59.9531 75.5371C59.8802 74.8392 59.8125 74.2767 59.75 73.8496C59.6823 73.4225 59.5833 73.1126 59.4531 72.9199C59.3229 72.7272 59.1302 72.6309 58.875 72.6309L58.8281 72.6309C58.3333 72.6309 57.9505 72.7871 57.6797 73.0996C57.4089 73.4069 57.2734 73.8444 57.2734 74.4121C57.2734 75.0111 57.4062 75.4876 57.6719 75.8418C57.9323 76.196 58.2604 76.4303 58.6563 76.5449L58.4063 79.623C57.6771 79.4668 57.0469 79.1595 56.5156 78.7012C55.9792 78.2428 55.5677 77.6517 55.2812 76.9277C54.9896 76.1986 54.8438 75.3548 54.8438 74.3965C54.8438 73.7298 54.9219 73.0918 55.0781 72.4824C55.2344 71.8678 55.4766 71.3236 55.8047 70.8496C56.1328 70.3704 56.5547 69.9928 57.0703 69.7168C57.5807 69.4408 58.1927 69.3027 58.9062 69.3027L67 69.3027L67 72.459L65.3359 72.459L65.3359 72.5527C65.7109 72.7454 66.0417 73.0033 66.3281 73.3262C66.6094 73.6491 66.8307 74.0371 66.9922 74.4902C67.1484 74.9434 67.2266 75.4668 67.2266 76.0605ZM64.9297 75.1074C64.9297 74.6178 64.8333 74.1855 64.6406 73.8105C64.4427 73.4355 64.1771 73.1413 63.8438 72.9277C63.5104 72.7142 63.1328 72.6074 62.7109 72.6074L61.4375 72.6074C61.5052 72.7116 61.5677 72.8548 61.625 73.0371C61.6771 73.2142 61.7266 73.4147 61.7734 73.6387C61.8151 73.8626 61.8542 74.0866 61.8906 74.3105C61.9219 74.5345 61.9505 74.7376 61.9766 74.9199C62.0339 75.3105 62.125 75.6517 62.25 75.9434C62.375 76.235 62.5443 76.4616 62.7578 76.623C62.9661 76.7845 63.2266 76.8652 63.5391 76.8652C63.9922 76.8652 64.3385 76.7012 64.5781 76.373C64.8125 76.0397 64.9297 75.6178 64.9297 75.1074ZM58.4219 56.7363L58.6094 59.7832C58.349 59.8353 58.1146 59.9473 57.9063 60.1191C57.6927 60.291 57.5234 60.5176 57.3984 60.7988C57.2682 61.0749 57.2031 61.4056 57.2031 61.791C57.2031 62.3066 57.3125 62.7415 57.5312 63.0957C57.7448 63.4499 58.0312 63.627 58.3906 63.627C58.6771 63.627 58.9193 63.5124 59.1172 63.2832C59.3151 63.054 59.474 62.6608 59.5937 62.1035L60.0313 59.9316C60.2708 58.765 60.6563 57.8952 61.1875 57.3223C61.7188 56.7493 62.4167 56.4629 63.2813 56.4629C64.0677 56.4629 64.7578 56.6947 65.3516 57.1582C65.9453 57.6165 66.4089 58.2467 66.7422 59.0488C67.0703 59.8457 67.2344 60.765 67.2344 61.8066C67.2344 63.3952 66.9036 64.6608 66.2422 65.6035C65.5755 66.541 64.6693 67.0905 63.5234 67.252L63.3516 63.9785C63.8359 63.8796 64.2057 63.64 64.4609 63.2598C64.7109 62.8796 64.8359 62.3926 64.8359 61.7988C64.8359 61.2155 64.724 60.7467 64.5 60.3926C64.2708 60.0332 63.9766 59.8509 63.6172 59.8457C63.3151 59.8509 63.0677 59.9785 62.875 60.2285C62.6771 60.4785 62.526 60.8639 62.4219 61.3848L62.0078 63.4629C61.7734 64.6348 61.3672 65.5072 60.7891 66.0801C60.2109 66.6478 59.474 66.9316 58.5781 66.9316C57.8073 66.9316 57.1432 66.7233 56.5859 66.3066C56.0286 65.8848 55.599 65.2936 55.2969 64.5332C54.9948 63.7676 54.8438 62.8717 54.8438 61.8457C54.8438 60.3301 55.1641 59.1374 55.8047 58.2676C56.4453 57.3926 57.3177 56.8822 58.4219 56.7363ZM55 47.9844L57.5 47.9844L57.5 55.2109L55 55.2109L55 47.9844ZM52.125 53.5703L52.125 50.2422L63.3125 50.2422C63.6198 50.2422 63.8594 50.1953 64.0313 50.1016C64.1979 50.0078 64.3151 49.8776 64.3828 49.7109C64.4505 49.5391 64.4844 49.3411 64.4844 49.1172C64.4844 48.9609 64.4714 48.8047 64.4453 48.6484C64.4141 48.4922 64.3906 48.3724 64.375 48.2891L66.8516 47.7656C66.9036 47.9323 66.9635 48.1667 67.0313 48.4688C67.1042 48.7708 67.1484 49.138 67.1641 49.5703C67.1953 50.3724 67.0885 51.0755 66.8438 51.6797C66.599 52.2786 66.2188 52.7448 65.7031 53.0781C65.1875 53.4115 64.5365 53.5755 63.75 53.5703L52.125 53.5703ZM67.2344 40.4766C67.2344 41.7109 66.9844 42.7734 66.4844 43.6641C65.9792 44.5495 65.2656 45.2318 64.3438 45.7109C63.4167 46.1901 62.3203 46.4297 61.0547 46.4297C59.8203 46.4297 58.737 46.1901 57.8047 45.7109C56.8724 45.2318 56.1458 44.5573 55.625 43.6875C55.1042 42.8125 54.8438 41.7865 54.8438 40.6094C54.8438 39.8177 54.9714 39.0807 55.2266 38.3984C55.4766 37.7109 55.8542 37.112 56.3594 36.6016C56.8646 36.0859 57.5 35.6849 58.2656 35.3984C59.026 35.112 59.9167 34.9687 60.9375 34.9687L61.8516 34.9687L61.8516 45.1016L59.7891 45.1016L59.7891 38.1016C59.3099 38.1016 58.8854 38.2057 58.5156 38.4141C58.1458 38.6224 57.8568 38.9115 57.6484 39.2813C57.4349 39.6458 57.3281 40.0703 57.3281 40.5547C57.3281 41.0599 57.4453 41.5078 57.6797 41.8984C57.9089 42.2839 58.2188 42.5859 58.6094 42.8047C58.9948 43.0234 59.4245 43.1354 59.8984 43.1406L61.8594 43.1406C62.4531 43.1406 62.9661 43.0313 63.3984 42.8125C63.8307 42.5885 64.1641 42.2734 64.3984 41.8672C64.6328 41.4609 64.75 40.9792 64.75 40.4219C64.75 40.0521 64.6979 39.7135 64.5938 39.4063C64.4896 39.099 64.3333 38.8359 64.125 38.6172C63.9167 38.3984 63.6615 38.2318 63.3594 38.1172L63.5625 35.0391C64.3021 35.1953 64.9479 35.5156 65.5 36C66.0469 36.4792 66.474 37.099 66.7813 37.8594C67.0833 38.6146 67.2344 39.487 67.2344 40.4766ZM67 32.7969L55 32.7969L55 29.5703L57.0938 29.5703L57.0938 29.4453C56.349 29.2266 55.7865 28.8594 55.4063 28.3438C55.0208 27.8281 54.8281 27.2344 54.8281 26.5625C54.8281 26.3958 54.8385 26.2161 54.8594 26.0234C54.8802 25.8307 54.9089 25.6615 54.9453 25.5156L57.8984 25.5156C57.8516 25.6719 57.8099 25.888 57.7734 26.1641C57.737 26.4401 57.7188 26.6927 57.7188 26.9219C57.7188 27.4115 57.8255 27.849 58.0391 28.2344C58.2474 28.6146 58.5391 28.9167 58.9141 29.1406C59.2891 29.3594 59.7214 29.4688 60.2109 29.4688L67 29.4688L67 32.7969Z" fill="black"/>
<path d="M210 43C219.941 43 228 51.0589 228 61C228 70.9411 219.941 79 210 79C200.059 79 192 70.9411 192 61C192 51.0589 200.059 43 210 43Z" fill="#27E4F9" stroke="black" stroke-width="6"/>
<circle cx="678" cy="61" r="18" transform="rotate(-90 678 61)" fill="#27E4F9" stroke="black" stroke-width="6"/>
<line x1="130" y1="165" x2="819" y2="165" stroke="black" stroke-opacity="0.3" stroke-width="6"/>
<path d="M59.7813 206.444L67 206.444L67 208.288L51 208.288L51 206.444L56.875 206.444L56.875 206.288C56.2552 206.007 55.763 205.585 55.3984 205.023C55.0286 204.455 54.8438 203.7 54.8438 202.757C54.8438 201.939 55.0078 201.223 55.3359 200.608C55.6589 199.994 56.1562 199.517 56.8281 199.179C57.4948 198.835 58.3437 198.663 59.375 198.663L67 198.663L67 200.507L59.5 200.507C58.5469 200.507 57.8099 200.754 57.2891 201.249C56.763 201.739 56.5 202.418 56.5 203.288C56.5 203.892 56.6276 204.434 56.8828 204.913C57.138 205.387 57.5104 205.762 58 206.038C58.4896 206.309 59.0833 206.444 59.7813 206.444ZM67.25 190.415C67.25 191.498 66.9922 192.449 66.4766 193.267C65.9609 194.079 65.2396 194.715 64.3125 195.173C63.3854 195.626 62.3021 195.853 61.0625 195.853C59.8125 195.853 58.7214 195.626 57.7891 195.173C56.8568 194.715 56.1328 194.079 55.6172 193.267C55.1016 192.449 54.8438 191.498 54.8438 190.415C54.8438 189.332 55.1016 188.384 55.6172 187.571C56.1328 186.754 56.8568 186.118 57.7891 185.665C58.7214 185.207 59.8125 184.978 61.0625 184.978C62.3021 184.978 63.3854 185.207 64.3125 185.665C65.2396 186.118 65.9609 186.754 66.4766 187.571C66.9922 188.384 67.25 189.332 67.25 190.415ZM65.5938 190.415C65.5938 189.592 65.3828 188.915 64.9609 188.384C64.5391 187.853 63.9844 187.459 63.2969 187.204C62.6094 186.949 61.8646 186.821 61.0625 186.821C60.2604 186.821 59.513 186.949 58.8203 187.204C58.1276 187.459 57.5677 187.853 57.1406 188.384C56.7135 188.915 56.5 189.592 56.5 190.415C56.5 191.238 56.7135 191.915 57.1406 192.446C57.5677 192.978 58.1276 193.371 58.8203 193.626C59.513 193.881 60.2604 194.009 61.0625 194.009C61.8646 194.009 62.6094 193.881 63.2969 193.626C63.9844 193.371 64.5391 192.978 64.9609 192.446C65.3828 191.915 65.5938 191.238 65.5938 190.415ZM55 176.944L56.5625 176.944L56.5625 183.163L55 183.163L55 176.944ZM52.125 181.351L52.125 179.507L63.5625 179.507C64.0833 179.507 64.474 179.431 64.7344 179.28C64.9896 179.124 65.1615 178.926 65.25 178.687C65.3333 178.442 65.375 178.184 65.375 177.913C65.375 177.71 65.3646 177.543 65.3438 177.413C65.3177 177.283 65.2969 177.179 65.2813 177.101L66.9375 176.726C66.9844 176.851 67.0313 177.025 67.0781 177.249C67.1302 177.473 67.1563 177.757 67.1563 178.101C67.1563 178.621 67.0443 179.132 66.8203 179.632C66.5964 180.127 66.2552 180.538 65.7969 180.866C65.3385 181.189 64.7604 181.351 64.0625 181.351L52.125 181.351ZM55 168.827L56.5625 168.827L56.5625 175.296L55 175.296L55 168.827ZM67 173.358L53.3438 173.358C52.6562 173.358 52.0833 173.197 51.625 172.874C51.1667 172.551 50.8229 172.132 50.5937 171.616C50.3646 171.101 50.25 170.556 50.25 169.983C50.25 169.53 50.2865 169.161 50.3594 168.874C50.4323 168.588 50.5 168.374 50.5625 168.233L52.1562 168.765C52.125 168.858 52.0859 168.989 52.0391 169.155C51.9922 169.317 51.9687 169.53 51.9687 169.796C51.9687 170.405 52.1224 170.845 52.4297 171.116C52.737 171.382 53.1875 171.515 53.7812 171.515L67 171.515L67 173.358ZM67 166.243L55 166.243L55 164.399L67 164.399L67 166.243ZM53 165.306C53 165.665 52.8776 165.975 52.6328 166.235C52.388 166.491 52.0938 166.618 51.75 166.618C51.4063 166.618 51.112 166.491 50.8672 166.235C50.6224 165.975 50.5 165.665 50.5 165.306C50.5 164.946 50.6224 164.639 50.8672 164.384C51.112 164.123 51.4063 163.993 51.75 163.993C52.0938 163.993 52.388 164.123 52.6328 164.384C52.8776 164.639 53 164.946 53 165.306ZM55 159.648L59.9063 156.773L55 153.898L55 151.773L61 155.648L67 151.773L67 153.898L62.3438 156.773L67 159.648L67 161.773L61 157.96L55 161.773L55 159.648ZM67.25 144.605C67.25 145.761 66.9948 146.758 66.4844 147.597C65.9688 148.43 65.25 149.073 64.3281 149.526C63.401 149.974 62.3229 150.198 61.0938 150.198C59.8646 150.198 58.7813 149.974 57.8438 149.526C56.901 149.073 56.1667 148.443 55.6406 147.636C55.1094 146.823 54.8438 145.875 54.8438 144.792C54.8438 144.167 54.9479 143.55 55.1562 142.94C55.3646 142.331 55.7031 141.776 56.1719 141.276C56.6354 140.776 57.25 140.378 58.0156 140.081C58.7813 139.784 59.724 139.636 60.8438 139.636L61.625 139.636L61.625 148.886L60.0313 148.886L60.0313 141.511C59.3542 141.511 58.75 141.646 58.2188 141.917C57.6875 142.183 57.2682 142.563 56.9609 143.058C56.6536 143.547 56.5 144.125 56.5 144.792C56.5 145.526 56.6823 146.162 57.0469 146.698C57.4063 147.23 57.875 147.638 58.4531 147.925C59.0313 148.211 59.651 148.355 60.3125 148.355L61.375 148.355C62.2813 148.355 63.0495 148.198 63.6797 147.886C64.3047 147.568 64.7813 147.128 65.1094 146.565C65.4323 146.003 65.5938 145.349 65.5938 144.605C65.5938 144.12 65.526 143.683 65.3906 143.292C65.25 142.896 65.0417 142.555 64.7656 142.269C64.4844 141.982 64.1354 141.761 63.7188 141.605L64.2188 139.823C64.8229 140.011 65.3542 140.326 65.8125 140.769C66.2656 141.211 66.6198 141.758 66.875 142.409C67.125 143.06 67.25 143.792 67.25 144.605ZM57.6875 128.331L58.1563 129.987C57.8802 130.092 57.612 130.245 57.3516 130.448C57.0859 130.646 56.8672 130.917 56.6953 131.261C56.5234 131.605 56.4375 132.045 56.4375 132.581C56.4375 133.315 56.6068 133.927 56.9453 134.417C57.2786 134.901 57.7031 135.144 58.2188 135.144C58.6771 135.144 59.0391 134.977 59.3047 134.644C59.5703 134.31 59.7917 133.789 59.9688 133.081L60.4063 131.3C60.6667 130.227 61.0651 129.427 61.6016 128.901C62.1328 128.375 62.8177 128.112 63.6563 128.112C64.3438 128.112 64.9583 128.31 65.5 128.706C66.0417 129.097 66.4688 129.644 66.7813 130.347C67.0938 131.05 67.25 131.868 67.25 132.8C67.25 134.024 66.9844 135.037 66.4531 135.839C65.9219 136.641 65.1458 137.149 64.125 137.362L63.6875 135.612C64.3333 135.446 64.8177 135.131 65.1406 134.667C65.4635 134.198 65.625 133.586 65.625 132.831C65.625 131.972 65.4427 131.289 65.0781 130.784C64.7083 130.274 64.2656 130.019 63.75 130.019C63.3333 130.019 62.9844 130.164 62.7031 130.456C62.4167 130.748 62.2031 131.196 62.0625 131.8L61.5938 133.8C61.3333 134.899 60.9297 135.706 60.3828 136.222C59.8307 136.732 59.1406 136.987 58.3125 136.987C57.6354 136.987 57.0365 136.797 56.5156 136.417C55.9948 136.032 55.5859 135.508 55.2891 134.847C54.9922 134.18 54.8438 133.425 54.8438 132.581C54.8438 131.394 55.1042 130.461 55.625 129.784C56.1458 129.102 56.8333 128.618 57.6875 128.331Z" fill="black"/>
<path d="M660.492 73.1575C660.579 72.3337 659.981 71.5953 659.158 71.5083L645.732 70.0907C644.908 70.0037 644.17 70.6011 644.083 71.4249C643.996 72.2488 644.593 72.9871 645.417 73.0741L657.351 74.3342L656.091 86.2679C656.004 87.0917 656.601 87.8301 657.425 87.9171C658.249 88.0041 658.987 87.4067 659.074 86.5829L660.492 73.1575ZM570.943 146.166L659.943 74.1662L658.057 71.8338L569.057 143.834L570.943 146.166Z" fill="black"/>
<path d="M629.802 271.487C630.623 271.596 631.377 271.019 631.487 270.198L633.271 256.817C633.381 255.996 632.804 255.241 631.982 255.132C631.161 255.022 630.407 255.599 630.297 256.42L628.711 268.315L616.817 266.729C615.996 266.619 615.241 267.196 615.132 268.018C615.022 268.839 615.599 269.593 616.42 269.703L629.802 271.487ZM563.808 185.911L628.808 270.911L631.192 269.089L566.192 184.089L563.808 185.911Z" fill="black"/>
<path d="M543.698 165.328C544.431 164.943 544.713 164.036 544.328 163.302L538.049 151.352C537.663 150.618 536.756 150.336 536.023 150.721C535.29 151.107 535.008 152.014 535.393 152.747L540.974 163.37L530.352 168.951C529.618 169.337 529.336 170.244 529.721 170.977C530.107 171.71 531.014 171.992 531.747 171.607L543.698 165.328ZM227.554 67.4323L542.554 165.432L543.446 162.568L228.446 64.5678L227.554 67.4323Z" fill="black"/>
<circle cx="564" cy="164" r="18" transform="rotate(-90 564 164)" fill="#FD5965" stroke="black" stroke-width="6"/>
<line x1="129" y1="291" x2="819" y2="291" stroke="black" stroke-opacity="0.3" stroke-width="6"/>
<circle cx="255" cy="291" r="18" transform="rotate(-90 255 291)" fill="#FFE333" stroke="black" stroke-width="6"/>
<circle cx="339" cy="291" r="18" transform="rotate(-90 339 291)" fill="#FFE333" stroke="black" stroke-width="6"/>
<circle cx="423" cy="291" r="18" transform="rotate(-90 423 291)" fill="#FFE333" stroke="black" stroke-width="6"/>
<circle cx="507" cy="291" r="18" transform="rotate(-90 507 291)" fill="#FFE333" stroke="black" stroke-width="6"/>
<circle cx="633" cy="291" r="18" transform="rotate(-90 633 291)" fill="#FFE333" stroke="black" stroke-width="6"/>
<circle cx="759" cy="291" r="18" transform="rotate(-90 759 291)" fill="#FFE333" stroke="black" stroke-width="6"/>
<path d="M319.086 292.035C319.657 291.436 319.635 290.486 319.035 289.914L309.265 280.598C308.665 280.027 307.716 280.049 307.144 280.649C306.572 281.248 306.595 282.198 307.194 282.77L315.879 291.05L307.598 299.735C307.027 300.335 307.049 301.284 307.649 301.856C308.248 302.428 309.198 302.405 309.77 301.806L319.086 292.035ZM276.036 293.5L318.036 292.5L317.964 289.5L275.964 290.5L276.036 293.5Z" fill="black"/>
<path d="M403.086 292.035C403.657 291.436 403.635 290.486 403.035 289.914L393.265 280.598C392.665 280.027 391.716 280.049 391.144 280.649C390.572 281.248 390.595 282.198 391.194 282.77L399.879 291.05L391.598 299.735C391.027 300.335 391.049 301.284 391.649 301.856C392.248 302.428 393.198 302.405 393.77 301.806L403.086 292.035ZM360.036 293.5L402.036 292.5L401.964 289.5L359.964 290.5L360.036 293.5Z" fill="black"/>
<path d="M487.061 292.061C487.646 291.475 487.646 290.525 487.061 289.939L477.515 280.393C476.929 279.808 475.979 279.808 475.393 280.393C474.808 280.979 474.808 281.929 475.393 282.515L483.879 291L475.393 299.485C474.808 300.071 474.808 301.021 475.393 301.607C475.979 302.192 476.929 302.192 477.515 301.607L487.061 292.061ZM442 292.5L486 292.5L486 289.5L442 289.5L442 292.5Z" fill="black"/>
<path d="M613.048 292.073C613.641 291.494 613.652 290.545 613.073 289.952L603.642 280.293C603.063 279.7 602.113 279.689 601.52 280.268C600.928 280.847 600.916 281.796 601.495 282.389L609.879 290.975L601.293 299.358C600.7 299.937 600.689 300.887 601.268 301.48C601.847 302.072 602.796 302.084 603.389 301.505L613.048 292.073ZM527.982 291.5L611.982 292.5L612.018 289.5L528.018 288.5L527.982 291.5Z" fill="black"/>
<path d="M739.061 292.061C739.646 291.475 739.646 290.525 739.061 289.939L729.515 280.393C728.929 279.808 727.979 279.808 727.393 280.393C726.808 280.979 726.808 281.929 727.393 282.515L735.879 291L727.393 299.485C726.808 300.071 726.808 301.021 727.393 301.607C727.979 302.192 728.929 302.192 729.515 301.607L739.061 292.061ZM652 292.5L738 292.5L738 289.5L652 289.5L652 292.5Z" fill="black"/>
<path d="M67.1953 331.187C67.1953 332.098 66.9609 332.924 66.4922 333.663C66.0182 334.397 65.3229 334.981 64.4062 335.413C63.4844 335.84 62.3542 336.054 61.0156 336.054C59.6406 336.054 58.4974 335.832 57.5859 335.39C56.6693 334.947 55.9844 334.358 55.5313 333.624C55.0729 332.884 54.8438 332.075 54.8438 331.194C54.8438 330.522 54.9583 329.963 55.1875 329.515C55.4115 329.062 55.6927 328.697 56.0312 328.421C56.3646 328.14 56.6927 327.926 57.0156 327.78L57.0156 327.679L51 327.679L51 324.358L67 324.358L67 327.64L65.0781 327.64L65.0781 327.78C65.4115 327.937 65.7422 328.158 66.0703 328.444C66.3932 328.726 66.6615 329.093 66.875 329.546C67.0885 329.994 67.1953 330.541 67.1953 331.187ZM64.5469 330.132C64.5469 329.595 64.401 329.142 64.1094 328.772C63.8125 328.397 63.3984 328.111 62.8672 327.913C62.3359 327.71 61.7135 327.608 61 327.608C60.2865 327.608 59.6667 327.707 59.1406 327.905C58.6146 328.103 58.2083 328.39 57.9219 328.765C57.6354 329.14 57.4922 329.595 57.4922 330.132C57.4922 330.679 57.6406 331.14 57.9375 331.515C58.2344 331.89 58.6458 332.174 59.1719 332.366C59.6979 332.559 60.3073 332.655 61 332.655C61.6979 332.655 62.3151 332.559 62.8516 332.366C63.3828 332.168 63.7995 331.884 64.1016 331.515C64.3984 331.14 64.5469 330.679 64.5469 330.132ZM67.2344 316.153C67.2344 317.388 66.9844 318.45 66.4844 319.341C65.9792 320.226 65.2656 320.909 64.3438 321.388C63.4167 321.867 62.3203 322.106 61.0547 322.106C59.8203 322.106 58.737 321.867 57.8047 321.388C56.8724 320.909 56.1458 320.234 55.625 319.364C55.1042 318.489 54.8438 317.463 54.8438 316.286C54.8438 315.494 54.9714 314.757 55.2266 314.075C55.4766 313.388 55.8542 312.789 56.3594 312.278C56.8646 311.763 57.5 311.362 58.2656 311.075C59.026 310.789 59.9167 310.646 60.9375 310.646L61.8516 310.646L61.8516 320.778L59.7891 320.778L59.7891 313.778C59.3099 313.778 58.8854 313.882 58.5156 314.091C58.1458 314.299 57.8568 314.588 57.6484 314.958C57.4349 315.323 57.3281 315.747 57.3281 316.231C57.3281 316.737 57.4453 317.185 57.6797 317.575C57.9089 317.961 58.2187 318.263 58.6094 318.481C58.9948 318.7 59.4245 318.812 59.8984 318.817L61.8594 318.817C62.4531 318.817 62.9661 318.708 63.3984 318.489C63.8307 318.265 64.1641 317.95 64.3984 317.544C64.6328 317.138 64.75 316.656 64.75 316.099C64.75 315.729 64.6979 315.39 64.5938 315.083C64.4896 314.776 64.3333 314.513 64.125 314.294C63.9167 314.075 63.6615 313.909 63.3594 313.794L63.5625 310.716C64.3021 310.872 64.9479 311.192 65.5 311.677C66.0469 312.156 66.474 312.776 66.7813 313.536C67.0833 314.291 67.2344 315.164 67.2344 316.153ZM55 297.608L67 301.804L67 305.554L55 309.749L55 306.233L63.5859 303.741L63.5859 303.616L55 301.132L55 297.608ZM67.2344 290.823C67.2344 292.058 66.9844 293.12 66.4844 294.011C65.9792 294.896 65.2656 295.578 64.3438 296.058C63.4167 296.537 62.3203 296.776 61.0547 296.776C59.8203 296.776 58.737 296.537 57.8047 296.058C56.8724 295.578 56.1458 294.904 55.625 294.034C55.1042 293.159 54.8438 292.133 54.8438 290.956C54.8438 290.164 54.9714 289.427 55.2266 288.745C55.4766 288.058 55.8542 287.459 56.3594 286.948C56.8646 286.433 57.5 286.032 58.2656 285.745C59.026 285.459 59.9167 285.315 60.9375 285.315L61.8516 285.315L61.8516 295.448L59.7891 295.448L59.7891 288.448C59.3099 288.448 58.8854 288.552 58.5156 288.761C58.1458 288.969 57.8568 289.258 57.6484 289.628C57.4349 289.993 57.3281 290.417 57.3281 290.901C57.3281 291.407 57.4453 291.854 57.6797 292.245C57.9089 292.631 58.2188 292.933 58.6094 293.151C58.9948 293.37 59.4245 293.482 59.8984 293.487L61.8594 293.487C62.4531 293.487 62.9661 293.378 63.3984 293.159C63.8307 292.935 64.1641 292.62 64.3984 292.214C64.6328 291.808 64.75 291.326 64.75 290.769C64.75 290.399 64.6979 290.06 64.5938 289.753C64.4896 289.446 64.3333 289.183 64.125 288.964C63.9167 288.745 63.6615 288.578 63.3594 288.464L63.5625 285.386C64.3021 285.542 64.9479 285.862 65.5 286.347C66.0469 286.826 66.474 287.446 66.7813 288.206C67.0833 288.961 67.2344 289.834 67.2344 290.823ZM51 279.815L67 279.815L67 283.144L51 283.144L51 279.815ZM67.2344 271.728C67.2344 272.941 66.9766 273.991 66.4609 274.876C65.9401 275.756 65.2161 276.436 64.2891 276.915C63.3568 277.394 62.276 277.634 61.0469 277.634C59.8073 277.634 58.724 277.394 57.7969 276.915C56.8646 276.436 56.1406 275.756 55.625 274.876C55.1042 273.991 54.8438 272.941 54.8438 271.728C54.8438 270.514 55.1042 269.467 55.625 268.587C56.1406 267.701 56.8646 267.019 57.7969 266.54C58.724 266.061 59.8073 265.821 61.0469 265.821C62.276 265.821 63.3568 266.061 64.2891 266.54C65.2161 267.019 65.9401 267.701 66.4609 268.587C66.9766 269.467 67.2344 270.514 67.2344 271.728ZM64.6563 271.712C64.6563 271.16 64.5 270.699 64.1875 270.329C63.8698 269.959 63.4375 269.681 62.8906 269.493C62.3438 269.3 61.7214 269.204 61.0234 269.204C60.3255 269.204 59.7031 269.3 59.1563 269.493C58.6094 269.681 58.1771 269.959 57.8594 270.329C57.5417 270.699 57.3828 271.16 57.3828 271.712C57.3828 272.269 57.5417 272.738 57.8594 273.118C58.1771 273.493 58.6094 273.777 59.1563 273.97C59.7031 274.157 60.3255 274.251 61.0234 274.251C61.7214 274.251 62.3438 274.157 62.8906 273.97C63.4375 273.777 63.8698 273.493 64.1875 273.118C64.5 272.738 64.6563 272.269 64.6563 271.712ZM71.5 263.657L55 263.657L55 260.376L57.0156 260.376L57.0156 260.228C56.6927 260.082 56.3646 259.871 56.0313 259.595C55.6927 259.313 55.4115 258.949 55.1875 258.501C54.9583 258.048 54.8438 257.485 54.8438 256.813C54.8438 255.938 55.0729 255.131 55.5313 254.392C55.9844 253.652 56.6693 253.061 57.5859 252.618C58.4974 252.175 59.6406 251.954 61.0156 251.954C62.3542 251.954 63.4844 252.17 64.4063 252.603C65.3229 253.03 66.0182 253.613 66.4922 254.353C66.9609 255.087 67.1953 255.91 67.1953 256.821C67.1953 257.467 67.0885 258.017 66.875 258.47C66.6615 258.918 66.3932 259.285 66.0703 259.571C65.7422 259.858 65.4115 260.076 65.0781 260.228L65.0781 260.329L71.5 260.329L71.5 263.657ZM61 260.399C61.7135 260.399 62.3359 260.3 62.8672 260.103C63.3984 259.905 63.8125 259.618 64.1094 259.243C64.401 258.868 64.5469 258.412 64.5469 257.876C64.5469 257.334 64.3984 256.876 64.1016 256.501C63.7995 256.126 63.3828 255.842 62.8516 255.649C62.3151 255.451 61.6979 255.353 61 255.353C60.3073 255.353 59.6979 255.449 59.1719 255.642C58.6458 255.834 58.2344 256.118 57.9375 256.493C57.6406 256.868 57.4922 257.329 57.4922 257.876C57.4922 258.418 57.6354 258.876 57.9219 259.251C58.2083 259.621 58.6146 259.905 59.1406 260.103C59.6667 260.3 60.2865 260.399 61 260.399Z" fill="black"/>
</g>
<defs>
<clipPath id="clip0_4_270">
<rect width="362" height="882" fill="white" transform="translate(0 362) rotate(-90)"/>
</clipPath>
</defs>
</svg>
