<svg width="862" height="548" viewBox="0 0 862 548" fill="none" xmlns="http://www.w3.org/2000/svg">
<g clip-path="url(#clip0_5_678)">
<rect width="548" height="862" transform="translate(0 548) rotate(-90)" fill="white"/>
<line x1="127" y1="502" x2="799" y2="502.04" stroke="black" stroke-opacity="0.3" stroke-width="6" stroke-dasharray="12 12"/>
<path d="M61.4375 511.452L61.4375 508.577L63.2969 507.132L64.9531 505.71L68.3125 503.03L68.3125 506.187L66.0469 508.03L64.7031 508.976L61.4375 511.452ZM59 502.788C60.7448 502.788 62.2292 503.119 63.4531 503.78C64.6771 504.437 65.612 505.332 66.2578 506.468C66.8984 507.598 67.2187 508.869 67.2187 510.28C67.2187 511.702 66.8958 512.978 66.25 514.108C65.6042 515.239 64.6693 516.132 63.4453 516.788C62.2214 517.444 60.7396 517.772 59 517.772C57.2552 517.772 55.7708 517.444 54.5469 516.788C53.3229 516.132 52.3906 515.239 51.75 514.108C51.1042 512.978 50.7812 511.702 50.7812 510.28C50.7812 508.869 51.1042 507.598 51.75 506.468C52.3906 505.332 53.3229 504.437 54.5469 503.78C55.7708 503.119 57.2552 502.788 59 502.788ZM59 506.218C57.8698 506.218 56.9167 506.387 56.1406 506.726C55.3646 507.059 54.776 507.53 54.375 508.14C53.974 508.749 53.7734 509.463 53.7734 510.28C53.7734 511.098 53.974 511.812 54.375 512.421C54.776 513.03 55.3646 513.504 56.1406 513.843C56.9167 514.176 57.8698 514.343 59 514.343C60.1302 514.343 61.0833 514.176 61.8594 513.843C62.6354 513.504 63.224 513.03 63.625 512.421C64.026 511.812 64.2266 511.098 64.2266 510.28C64.2266 509.463 64.026 508.749 63.625 508.14C63.224 507.53 62.6354 507.059 61.8594 506.726C61.0833 506.387 60.1302 506.218 59 506.218ZM67 498.427L67 502.052L51 496.528L51 492.169L67 486.653L67 490.278L54.6562 494.286L54.6562 494.411L67 498.427ZM60.7109 498.653L60.7109 490.091L63.3516 490.091L63.3516 498.653L60.7109 498.653Z" fill="black"/>
<circle cx="476" cy="502" r="18" transform="rotate(-90 476 502)" fill="#648FFF" stroke="black" stroke-width="6"/>
<path d="M127 391L799 391" stroke="black" stroke-opacity="0.3" stroke-width="6" stroke-dasharray="12 12"/>
<path d="M40 431.123L28 431.123L28 429.342L29.875 429.342L29.875 429.186C29.2344 428.936 28.737 428.532 28.3828 427.975C28.0234 427.417 27.8437 426.748 27.8437 425.967C27.8437 425.175 28.0234 424.516 28.3828 423.99C28.737 423.459 29.2344 423.045 29.875 422.748L29.875 422.623C29.2552 422.316 28.763 421.855 28.3984 421.24C28.0286 420.626 27.8437 419.889 27.8437 419.029C27.8437 417.956 28.1797 417.079 28.8516 416.396C29.5182 415.714 30.5573 415.373 31.9687 415.373L40 415.373L40 417.217L31.9687 417.217C31.0833 417.217 30.4505 417.459 30.0703 417.943C29.6901 418.428 29.5 418.998 29.5 419.654C29.5 420.498 29.7552 421.152 30.2656 421.615C30.7708 422.079 31.4115 422.311 32.1875 422.311L40 422.311L40 424.186L31.7812 424.186C31.099 424.186 30.5495 424.407 30.1328 424.85C29.7109 425.292 29.5 425.863 29.5 426.561C29.5 427.04 29.6276 427.488 29.8828 427.904C30.138 428.316 30.4922 428.649 30.9453 428.904C31.3932 429.154 31.9115 429.279 32.5 429.279L40 429.279L40 431.123ZM40.25 406.971C40.25 408.127 39.9948 409.124 39.4844 409.963C38.9687 410.796 38.25 411.439 37.3281 411.893C36.401 412.34 35.3229 412.564 34.0937 412.564C32.8646 412.564 31.7812 412.34 30.8437 411.893C29.901 411.439 29.1667 410.809 28.6406 410.002C28.1094 409.189 27.8437 408.242 27.8437 407.158C27.8437 406.533 27.9479 405.916 28.1562 405.307C28.3646 404.697 28.7031 404.143 29.1719 403.643C29.6354 403.143 30.25 402.744 31.0156 402.447C31.7812 402.15 32.724 402.002 33.8437 402.002L34.625 402.002L34.625 411.252L33.0312 411.252L33.0312 403.877C32.3542 403.877 31.75 404.012 31.2187 404.283C30.6875 404.549 30.2682 404.929 29.9609 405.424C29.6536 405.913 29.5 406.492 29.5 407.158C29.5 407.893 29.6823 408.528 30.0469 409.064C30.4062 409.596 30.875 410.005 31.4531 410.291C32.0312 410.577 32.651 410.721 33.3125 410.721L34.375 410.721C35.2812 410.721 36.0495 410.564 36.6797 410.252C37.3047 409.934 37.7812 409.494 38.1094 408.932C38.4323 408.369 38.5937 407.715 38.5937 406.971C38.5937 406.486 38.526 406.049 38.3906 405.658C38.25 405.262 38.0417 404.921 37.7656 404.635C37.4844 404.348 37.1354 404.127 36.7187 403.971L37.2187 402.189C37.8229 402.377 38.3542 402.692 38.8125 403.135C39.2656 403.577 39.6198 404.124 39.875 404.775C40.125 405.426 40.25 406.158 40.25 406.971ZM40 399.197L28 399.197L28 397.416L29.8125 397.416L29.8125 397.291C29.2187 397.072 28.737 396.676 28.3672 396.104C27.9974 395.531 27.8125 394.885 27.8125 394.166C27.8125 394.031 27.8151 393.861 27.8203 393.658C27.8255 393.455 27.8333 393.301 27.8437 393.197L29.7187 393.197C29.7031 393.26 29.6797 393.403 29.6484 393.627C29.612 393.846 29.5937 394.077 29.5937 394.322C29.5937 394.906 29.7161 395.426 29.9609 395.885C30.2005 396.338 30.5339 396.697 30.9609 396.963C31.3828 397.223 31.8646 397.354 32.4062 397.354L40 397.354L40 399.197ZM44.75 386.533C44.75 387.424 44.6354 388.189 44.4062 388.83C44.1823 389.471 43.8854 390.005 43.5156 390.432C43.151 390.854 42.7604 391.189 42.3437 391.439L41.3125 389.971C41.5312 389.804 41.7812 389.593 42.0625 389.338C42.349 389.083 42.5964 388.734 42.8047 388.291C43.0182 387.843 43.125 387.257 43.125 386.533C43.125 385.564 42.8906 384.765 42.4219 384.135C41.9531 383.505 41.2187 383.189 40.2187 383.189L37.7812 383.189L37.7812 383.346C38 383.481 38.2708 383.674 38.5937 383.924C38.9115 384.169 39.1953 384.523 39.4453 384.986C39.6901 385.445 39.8125 386.064 39.8125 386.846C39.8125 387.814 39.5833 388.684 39.125 389.455C38.6667 390.221 38 390.827 37.125 391.275C36.25 391.718 35.1875 391.939 33.9375 391.939C32.7083 391.939 31.638 391.723 30.7266 391.291C29.8099 390.859 29.1016 390.257 28.6016 389.486C28.0964 388.715 27.8437 387.825 27.8437 386.814C27.8437 386.033 27.974 385.413 28.2344 384.955C28.4896 384.492 28.7812 384.137 29.1094 383.893C29.4323 383.643 29.6979 383.45 29.9062 383.314L29.9062 383.127L28 383.127L28 381.346L40.3437 381.346C41.375 381.346 42.2135 381.58 42.8594 382.049C43.5104 382.512 43.987 383.137 44.2891 383.924C44.5964 384.705 44.75 385.575 44.75 386.533ZM38.1562 386.596C38.1562 385.856 37.987 385.231 37.6484 384.721C37.3099 384.21 36.8229 383.822 36.1875 383.557C35.5521 383.291 34.7917 383.158 33.9062 383.158C33.0417 383.158 32.2786 383.288 31.6172 383.549C30.9557 383.809 30.4375 384.195 30.0625 384.705C29.6875 385.215 29.5 385.846 29.5 386.596C29.5 387.377 29.6979 388.028 30.0937 388.549C30.4896 389.064 31.0208 389.452 31.6875 389.713C32.3542 389.968 33.0937 390.096 33.9062 390.096C34.7396 390.096 35.4766 389.965 36.1172 389.705C36.7526 389.439 37.2526 389.049 37.6172 388.533C37.9766 388.012 38.1562 387.367 38.1562 386.596ZM40.25 372.939C40.25 374.096 39.9948 375.093 39.4844 375.932C38.9687 376.765 38.25 377.408 37.3281 377.861C36.401 378.309 35.3229 378.533 34.0937 378.533C32.8646 378.533 31.7812 378.309 30.8437 377.861C29.901 377.408 29.1667 376.778 28.6406 375.971C28.1094 375.158 27.8437 374.21 27.8437 373.127C27.8437 372.502 27.9479 371.885 28.1562 371.275C28.3646 370.666 28.7031 370.111 29.1719 369.611C29.6354 369.111 30.25 368.713 31.0156 368.416C31.7812 368.119 32.724 367.971 33.8437 367.971L34.625 367.971L34.625 377.221L33.0312 377.221L33.0312 369.846C32.3542 369.846 31.75 369.981 31.2187 370.252C30.6875 370.518 30.2682 370.898 29.9609 371.393C29.6536 371.882 29.5 372.46 29.5 373.127C29.5 373.861 29.6823 374.497 30.0469 375.033C30.4062 375.564 30.875 375.973 31.4531 376.26C32.0312 376.546 32.651 376.689 33.3125 376.689L34.375 376.689C35.2812 376.689 36.0495 376.533 36.6797 376.221C37.3047 375.903 37.7812 375.463 38.1094 374.9C38.4323 374.338 38.5937 373.684 38.5937 372.939C38.5937 372.455 38.526 372.018 38.3906 371.627C38.25 371.231 38.0417 370.89 37.7656 370.604C37.4844 370.317 37.1354 370.096 36.7187 369.939L37.2187 368.158C37.8229 368.346 38.3542 368.661 38.8125 369.104C39.2656 369.546 39.6198 370.093 39.875 370.744C40.125 371.395 40.25 372.127 40.25 372.939ZM40.25 360.635C40.25 361.635 39.9974 362.518 39.4922 363.283C38.9818 364.049 38.263 364.648 37.3359 365.08C36.4036 365.512 35.3021 365.729 34.0312 365.729C32.7708 365.729 31.6771 365.512 30.75 365.08C29.8229 364.648 29.1068 364.046 28.6016 363.275C28.0964 362.505 27.8437 361.614 27.8437 360.604C27.8437 359.822 27.974 359.205 28.2344 358.752C28.4896 358.294 28.7812 357.945 29.1094 357.705C29.4323 357.46 29.6979 357.27 29.9062 357.135L29.9062 356.979L24 356.979L24 355.135L40 355.135L40 356.916L38.1562 356.916L38.1562 357.135C38.375 357.27 38.651 357.463 38.9844 357.713C39.3125 357.963 39.6068 358.32 39.8672 358.783C40.1224 359.247 40.25 359.864 40.25 360.635ZM38.5937 360.385C38.5937 359.645 38.401 359.02 38.0156 358.51C37.625 357.999 37.0859 357.611 36.3984 357.346C35.7057 357.08 34.9062 356.947 34 356.947C33.1042 356.947 32.3203 357.077 31.6484 357.338C30.9714 357.598 30.4453 357.984 30.0703 358.494C29.6901 359.005 29.5 359.635 29.5 360.385C29.5 361.166 29.7005 361.817 30.1016 362.338C30.4974 362.854 31.0365 363.242 31.7187 363.502C32.3958 363.757 33.1562 363.885 34 363.885C34.8542 363.885 35.6302 363.755 36.3281 363.494C37.0208 363.229 37.5729 362.838 37.9844 362.322C38.3906 361.801 38.5937 361.156 38.5937 360.385ZM67 427.264L51 427.264L51 425.42L56.9062 425.42L56.9062 425.264C56.6979 425.128 56.4323 424.941 56.1094 424.701C55.7812 424.456 55.4896 424.107 55.2344 423.654C54.974 423.196 54.8437 422.576 54.8437 421.795C54.8437 420.785 55.0964 419.894 55.6016 419.123C56.1068 418.352 56.8229 417.751 57.75 417.318C58.6771 416.886 59.7708 416.67 61.0312 416.67C62.3021 416.67 63.4036 416.886 64.3359 417.318C65.263 417.751 65.9818 418.35 66.4922 419.115C66.9974 419.881 67.25 420.764 67.25 421.764C67.25 422.535 67.1224 423.152 66.8672 423.615C66.6068 424.079 66.3125 424.436 65.9844 424.686C65.651 424.936 65.375 425.128 65.1562 425.264L65.1562 425.482L67 425.482L67 427.264ZM61 425.451C61.9062 425.451 62.7057 425.318 63.3984 425.053C64.0859 424.787 64.625 424.399 65.0156 423.889C65.401 423.378 65.5937 422.753 65.5937 422.014C65.5937 421.243 65.3906 420.6 64.9844 420.084C64.5729 419.563 64.0208 419.173 63.3281 418.912C62.6302 418.646 61.8542 418.514 61 418.514C60.1562 418.514 59.3958 418.644 58.7187 418.904C58.0365 419.16 57.4974 419.548 57.1016 420.068C56.7005 420.584 56.5 421.232 56.5 422.014C56.5 422.764 56.6901 423.394 57.0703 423.904C57.4453 424.415 57.9714 424.8 58.6484 425.061C59.3203 425.321 60.1042 425.451 61 425.451ZM67 413.85L55 413.85L55 412.068L56.8125 412.068L56.8125 411.943C56.2187 411.725 55.737 411.329 55.3672 410.756C54.9974 410.183 54.8125 409.537 54.8125 408.818C54.8125 408.683 54.8151 408.514 54.8203 408.311C54.8255 408.107 54.8333 407.954 54.8437 407.85L56.7187 407.85C56.7031 407.912 56.6797 408.055 56.6484 408.279C56.612 408.498 56.5937 408.73 56.5937 408.975C56.5937 409.558 56.7161 410.079 56.9609 410.537C57.2005 410.99 57.5339 411.35 57.9609 411.615C58.3828 411.876 58.8646 412.006 59.4062 412.006L67 412.006L67 413.85ZM67.2812 402.133C67.2812 402.893 67.138 403.583 66.8516 404.203C66.5599 404.823 66.1406 405.315 65.5937 405.68C65.0417 406.044 64.375 406.227 63.5937 406.227C62.9062 406.227 62.349 406.091 61.9219 405.82C61.4896 405.549 61.151 405.187 60.9062 404.734C60.6615 404.281 60.4792 403.781 60.3594 403.234C60.2344 402.682 60.1354 402.128 60.0625 401.57C59.9687 400.841 59.8984 400.25 59.8516 399.797C59.7995 399.339 59.7135 399.005 59.5937 398.797C59.474 398.583 59.2656 398.477 58.9687 398.477L58.9062 398.477C58.1354 398.477 57.5365 398.687 57.1094 399.109C56.6823 399.526 56.4687 400.159 56.4687 401.008C56.4687 401.888 56.6615 402.578 57.0469 403.078C57.4323 403.578 57.8437 403.93 58.2812 404.133L57.6562 405.883C56.9271 405.57 56.3594 405.154 55.9531 404.633C55.5417 404.107 55.2552 403.534 55.0937 402.914C54.9271 402.289 54.8437 401.674 54.8437 401.07C54.8437 400.685 54.8906 400.242 54.9844 399.742C55.0729 399.237 55.2578 398.75 55.5391 398.281C55.8203 397.807 56.2448 397.414 56.8125 397.102C57.3802 396.789 58.1406 396.633 59.0937 396.633L67 396.633L67 398.477L65.375 398.477L65.375 398.57C65.6354 398.695 65.9141 398.904 66.2109 399.195C66.5078 399.487 66.7604 399.875 66.9687 400.359C67.1771 400.844 67.2812 401.435 67.2812 402.133ZM65.625 401.852C65.625 401.122 65.4818 400.508 65.1953 400.008C64.9089 399.503 64.5391 399.122 64.0859 398.867C63.6328 398.607 63.1562 398.477 62.6562 398.477L60.9687 398.477C61.0625 398.555 61.1484 398.727 61.2266 398.992C61.2995 399.253 61.3646 399.555 61.4219 399.898C61.474 400.237 61.5208 400.568 61.5625 400.891C61.599 401.208 61.6302 401.466 61.6562 401.664C61.7187 402.143 61.8203 402.591 61.9609 403.008C62.0964 403.419 62.3021 403.753 62.5781 404.008C62.849 404.258 63.2187 404.383 63.6875 404.383C64.3281 404.383 64.8125 404.146 65.1406 403.672C65.4635 403.193 65.625 402.586 65.625 401.852ZM59.7812 391.424L67 391.424L67 393.268L55 393.268L55 391.486L56.875 391.486L56.875 391.33C56.2656 391.049 55.776 390.622 55.4062 390.049C55.0312 389.476 54.8437 388.736 54.8437 387.83C54.8437 387.018 55.0104 386.307 55.3437 385.697C55.6719 385.088 56.1719 384.614 56.8437 384.275C57.5104 383.937 58.3542 383.768 59.375 383.768L67 383.768L67 385.611L59.5 385.611C58.5573 385.611 57.8229 385.856 57.2969 386.346C56.7656 386.835 56.5 387.507 56.5 388.361C56.5 388.95 56.6276 389.476 56.8828 389.939C57.138 390.398 57.5104 390.76 58 391.025C58.4896 391.291 59.0833 391.424 59.7812 391.424ZM67.25 375.523C67.25 376.648 66.9844 377.617 66.4531 378.43C65.9219 379.242 65.1901 379.867 64.2578 380.305C63.3255 380.742 62.2604 380.961 61.0625 380.961C59.8437 380.961 58.7682 380.737 57.8359 380.289C56.8984 379.836 56.1667 379.206 55.6406 378.398C55.1094 377.586 54.8437 376.638 54.8437 375.555C54.8437 374.711 55 373.951 55.3125 373.273C55.625 372.596 56.0625 372.042 56.625 371.609C57.1875 371.177 57.8437 370.909 58.5937 370.805L58.5937 372.648C58.0469 372.789 57.5625 373.102 57.1406 373.586C56.7135 374.065 56.5 374.711 56.5 375.523C56.5 376.242 56.6875 376.872 57.0625 377.414C57.4323 377.951 57.9557 378.37 58.6328 378.672C59.3047 378.969 60.0937 379.117 61 379.117C61.9271 379.117 62.7344 378.971 63.4219 378.68C64.1094 378.383 64.6432 377.966 65.0234 377.43C65.4036 376.888 65.5937 376.253 65.5937 375.523C65.5937 375.044 65.5104 374.609 65.3437 374.219C65.1771 373.828 64.9375 373.497 64.625 373.227C64.3125 372.956 63.9375 372.763 63.5 372.648L63.5 370.805C64.2083 370.909 64.8464 371.167 65.4141 371.578C65.9766 371.984 66.4245 372.523 66.7578 373.195C67.0859 373.862 67.25 374.638 67.25 375.523ZM59.7812 366.266L67 366.266L67 368.109L51 368.109L51 366.266L56.875 366.266L56.875 366.109C56.2552 365.828 55.763 365.406 55.3984 364.844C55.0286 364.276 54.8437 363.521 54.8437 362.578C54.8437 361.76 55.0078 361.044 55.3359 360.43C55.6589 359.815 56.1562 359.339 56.8281 359C57.4948 358.656 58.3437 358.484 59.375 358.484L67 358.484L67 360.328L59.5 360.328C58.5469 360.328 57.8099 360.576 57.2891 361.07C56.763 361.56 56.5 362.24 56.5 363.109C56.5 363.714 56.6276 364.255 56.8828 364.734C57.138 365.208 57.5104 365.583 58 365.859C58.4896 366.13 59.0833 366.266 59.7812 366.266Z" fill="black"/>
<circle cx="542" cy="392" r="18" transform="rotate(-90 542 392)" fill="#FB8D3D" stroke="black" stroke-width="6"/>
<circle cx="468" cy="392" r="18" transform="rotate(-90 468 392)" fill="#FB8D3D" stroke="black" stroke-width="6"/>
<path d="M469.907 481.017C470.486 481.61 471.435 481.621 472.028 481.042L481.685 471.609C482.278 471.03 482.289 470.08 481.71 469.488C481.131 468.895 480.182 468.884 479.589 469.463L471.005 477.848L462.62 469.263C462.041 468.671 461.091 468.66 460.499 469.239C459.906 469.817 459.895 470.767 460.474 471.36L469.907 481.017ZM470.229 416.167L469.48 479.951L472.48 479.987L473.229 416.202L470.229 416.167Z" fill="black"/>
<path d="M472.962 415.144C472.386 414.549 471.437 414.533 470.841 415.109L461.138 424.495C460.543 425.071 460.527 426.021 461.103 426.616C461.679 427.211 462.628 427.227 463.224 426.651L471.849 418.308L480.192 426.933C480.768 427.528 481.718 427.544 482.313 426.968C482.909 426.392 482.924 425.442 482.348 424.847L472.962 415.144ZM472.325 479.992L473.384 416.212L470.384 416.162L469.325 479.942L472.325 479.992Z" fill="black"/>
<path d="M534.281 412.422C534.026 411.729 533.128 411.421 532.274 411.734L518.359 416.838C517.505 417.151 517.019 417.967 517.273 418.66C517.528 419.354 518.426 419.662 519.28 419.349L531.649 414.812L535.332 424.855C535.587 425.548 536.485 425.856 537.339 425.543C538.193 425.23 538.679 424.414 538.425 423.721L534.281 412.422ZM493.684 481.407L534.153 413.476L531.316 412.503L490.847 480.434L493.684 481.407Z" fill="black"/>
<path d="M490.452 481.389C490.702 482.082 491.599 482.395 492.456 482.086L506.413 477.057C507.27 476.748 507.761 475.935 507.511 475.242C507.261 474.548 506.364 474.236 505.508 474.544L493.101 479.015L489.48 468.966C489.23 468.272 488.333 467.96 487.477 468.269C486.62 468.577 486.129 469.39 486.379 470.084L490.452 481.389ZM531.58 412.587L490.587 480.337L493.42 481.323L534.413 413.573L531.58 412.587Z" fill="black"/>
<line x1="129" y1="272" x2="799" y2="272" stroke="black" stroke-opacity="0.3" stroke-width="6"/>
<line x1="127" y1="192" x2="799" y2="192" stroke="black" stroke-opacity="0.3" stroke-width="6"/>
<circle cx="368" cy="193" r="18" transform="rotate(-90 368 193)" fill="#FB3DB5" stroke="black" stroke-width="6"/>
<circle cx="468" cy="193" r="18" transform="rotate(-90 468 193)" fill="#FB3DB5" stroke="black" stroke-width="6"/>
<circle cx="568" cy="193" r="18" transform="rotate(-90 568 193)" fill="#FB3DB5" stroke="black" stroke-width="6"/>
<path d="M361.917 173.498C362.744 173.544 363.452 172.91 363.498 172.083L364.247 158.604C364.292 157.777 363.659 157.069 362.832 157.023C362.005 156.977 361.297 157.61 361.251 158.438L360.586 170.419L348.604 169.753C347.777 169.708 347.069 170.341 347.023 171.168C346.977 171.995 347.61 172.703 348.438 172.749L361.917 173.498ZM275.882 78.0002L360.882 173L363.118 171L278.118 75.9998L275.882 78.0002Z" fill="black"/>
<path d="M448.043 194.078C448.638 193.503 448.654 192.553 448.078 191.957L438.696 182.251C438.12 181.655 437.17 181.639 436.575 182.215C435.979 182.791 435.963 183.741 436.539 184.336L444.879 192.964L436.251 201.304C435.655 201.88 435.639 202.83 436.215 203.425C436.791 204.021 437.741 204.037 438.336 203.461L448.043 194.078ZM387.975 193.5L446.975 194.5L447.025 191.5L388.025 190.5L387.975 193.5Z" fill="black"/>
<path d="M548.061 195.061C548.646 194.475 548.646 193.525 548.061 192.939L538.515 183.393C537.929 182.808 536.979 182.808 536.393 183.393C535.808 183.979 535.808 184.929 536.393 185.515L544.879 194L536.393 202.485C535.808 203.071 535.808 204.021 536.393 204.607C536.979 205.192 537.929 205.192 538.515 204.607L548.061 195.061ZM489 195.5H547V192.5H489V195.5Z" fill="black"/>
<path d="M616.399 85.4585C616.1 84.6859 615.231 84.3021 614.459 84.6011L601.869 89.4746C601.096 89.7736 600.712 90.6423 601.011 91.4149C601.311 92.1875 602.179 92.5713 602.952 92.2723L614.143 87.9403L618.475 99.1312C618.774 99.9037 619.642 100.288 620.415 99.9885C621.187 99.6895 621.571 98.8207 621.272 98.0482L616.399 85.4585ZM578.372 172.606L616.372 86.6062L613.628 85.3938L575.628 171.394L578.372 172.606Z" fill="black"/>
<path d="M720.464 85.6746C720.285 84.8659 719.483 84.356 718.675 84.5357L705.496 87.4643C704.687 87.644 704.177 88.4453 704.357 89.254C704.537 90.0627 705.338 90.5726 706.147 90.3928L717.861 87.7897L720.464 99.5039C720.644 100.313 721.445 100.823 722.254 100.643C723.063 100.463 723.573 99.6618 723.393 98.8531L720.464 85.6746ZM608.265 262.805L720.265 86.8053L717.735 85.1947L605.735 261.195L608.265 262.805Z" fill="black"/>
<path d="M446.479 381.406C447.255 381.694 448.119 381.298 448.406 380.521L453.099 367.863C453.387 367.086 452.99 366.223 452.214 365.935C451.437 365.647 450.574 366.044 450.286 366.82L446.115 378.072L434.863 373.901C434.086 373.613 433.223 374.01 432.935 374.786C432.647 375.563 433.044 376.426 433.82 376.714L446.479 381.406ZM372.637 221.626L445.637 380.626L448.363 379.374L375.363 220.374L372.637 221.626Z" fill="black"/>
<line x1="367.374" y1="225.637" x2="381.917" y2="218.965" stroke="black" stroke-width="3"/>
<path d="M466.939 364.061C467.525 364.646 468.475 364.646 469.061 364.061L478.607 354.515C479.192 353.929 479.192 352.979 478.607 352.393C478.021 351.808 477.071 351.808 476.485 352.393L468 360.879L459.515 352.393C458.929 351.808 457.979 351.808 457.393 352.393C456.808 352.979 456.808 353.929 457.393 354.515L466.939 364.061ZM466.5 224L466.5 363L469.5 363L469.5 224L466.5 224Z" fill="black"/>
<line x1="460" y1="223.5" x2="476" y2="223.5" stroke="black" stroke-width="3"/>
<path d="M483.578 375.478C483.842 376.263 484.693 376.686 485.478 376.422L498.274 372.119C499.059 371.855 499.482 371.004 499.218 370.219C498.954 369.434 498.103 369.011 497.318 369.275L485.944 373.1L482.119 361.726C481.855 360.941 481.004 360.518 480.219 360.782C479.434 361.046 479.011 361.897 479.275 362.682L483.578 375.478ZM558.657 223.333L483.657 374.333L486.343 375.667L561.343 224.667L558.657 223.333Z" fill="black"/>
<line x1="552.671" y1="221.658" x2="566.982" y2="228.814" stroke="black" stroke-width="3"/>
<circle cx="353" cy="273" r="18" transform="rotate(-90 353 273)" fill="#FB3DB5" stroke="black" stroke-width="6"/>
<circle cx="594" cy="273" r="18" transform="rotate(-90 594 273)" fill="#FB3DB5" stroke="black" stroke-width="6"/>
<path d="M574.061 274.061C574.646 273.475 574.646 272.525 574.061 271.939L564.515 262.393C563.929 261.808 562.979 261.808 562.393 262.393C561.808 262.979 561.808 263.929 562.393 264.515L570.879 273L562.393 281.485C561.808 282.071 561.808 283.021 562.393 283.607C562.979 284.192 563.929 284.192 564.515 283.607L574.061 274.061ZM368 274.5L573 274.5L573 271.5L368 271.5L368 274.5Z" fill="black"/>
<path d="M345.481 253.408C346.259 253.694 347.121 253.296 347.408 252.519L352.075 239.851C352.361 239.074 351.963 238.211 351.186 237.925C350.408 237.638 349.546 238.036 349.26 238.814L345.111 250.074L333.851 245.925C333.074 245.639 332.211 246.037 331.925 246.814C331.638 247.592 332.036 248.454 332.814 248.74L345.481 253.408ZM266.638 83.6286L344.638 252.629L347.362 251.371L269.362 82.3714L266.638 83.6286Z" fill="black"/>
<path d="M451.72 487.412C452.5 487.692 453.359 487.287 453.639 486.507L458.202 473.802C458.482 473.022 458.077 472.163 457.298 471.883C456.518 471.603 455.659 472.008 455.379 472.788L451.323 484.081L440.029 480.025C439.249 479.745 438.39 480.15 438.11 480.93C437.83 481.709 438.235 482.568 439.015 482.848L451.72 487.412ZM363.643 301.64L450.87 486.64L453.584 485.36L366.357 300.36L363.643 301.64Z" fill="black"/>
<line x1="358.34" y1="305.653" x2="372.71" y2="298.617" stroke="black" stroke-width="3"/>
<path d="M549.566 371.441C549.81 372.233 550.649 372.677 551.441 372.434L564.344 368.464C565.136 368.22 565.58 367.381 565.337 366.589C565.093 365.797 564.254 365.353 563.462 365.596L551.993 369.125L548.464 357.656C548.22 356.864 547.381 356.42 546.589 356.663C545.797 356.907 545.353 357.746 545.596 358.538L549.566 371.441ZM585.674 302.298L549.674 370.298L552.326 371.702L588.326 303.702L585.674 302.298Z" fill="black"/>
<line x1="593.329" y1="307.342" x2="579.018" y2="300.186" stroke="black" stroke-width="3"/>
<path d="M24 257.486L25.5625 257.486L25.5625 263.955L24 263.955L24 257.486ZM36 262.018L22.3437 262.018C21.6562 262.018 21.0833 261.856 20.625 261.533C20.1667 261.21 19.8229 260.791 19.5937 260.275C19.3646 259.76 19.25 259.215 19.25 258.643C19.25 258.189 19.2865 257.82 19.3594 257.533C19.4323 257.247 19.5 257.033 19.5625 256.893L21.1562 257.424C21.125 257.518 21.0859 257.648 21.0391 257.814C20.9922 257.976 20.9687 258.189 20.9687 258.455C20.9687 259.064 21.1224 259.505 21.4297 259.775C21.737 260.041 22.1875 260.174 22.7812 260.174L36 260.174L36 262.018ZM36.25 250.365C36.25 251.521 35.9948 252.519 35.4844 253.357C34.9687 254.191 34.25 254.834 33.3281 255.287C32.401 255.735 31.3229 255.959 30.0937 255.959C28.8646 255.959 27.7812 255.735 26.8437 255.287C25.901 254.834 25.1667 254.204 24.6406 253.396C24.1094 252.584 23.8437 251.636 23.8437 250.553C23.8437 249.928 23.9479 249.311 24.1562 248.701C24.3646 248.092 24.7031 247.537 25.1719 247.037C25.6354 246.537 26.25 246.139 27.0156 245.842C27.7812 245.545 28.724 245.396 29.8437 245.396L30.625 245.396L30.625 254.646L29.0312 254.646L29.0312 247.271C28.3542 247.271 27.75 247.407 27.2187 247.678C26.6875 247.943 26.2682 248.324 25.9609 248.818C25.6536 249.308 25.5 249.886 25.5 250.553C25.5 251.287 25.6823 251.923 26.0469 252.459C26.4062 252.99 26.875 253.399 27.4531 253.686C28.0312 253.972 28.651 254.115 29.3125 254.115L30.375 254.115C31.2812 254.115 32.0495 253.959 32.6797 253.646C33.3047 253.329 33.7812 252.889 34.1094 252.326C34.4323 251.764 34.5937 251.11 34.5937 250.365C34.5937 249.881 34.526 249.443 34.3906 249.053C34.25 248.657 34.0417 248.316 33.7656 248.029C33.4844 247.743 33.1354 247.521 32.7187 247.365L33.2187 245.584C33.8229 245.771 34.3542 246.087 34.8125 246.529C35.2656 246.972 35.6198 247.519 35.875 248.17C36.125 248.821 36.25 249.553 36.25 250.365ZM36.2812 239.061C36.2812 239.821 36.138 240.511 35.8516 241.131C35.5599 241.751 35.1406 242.243 34.5937 242.607C34.0417 242.972 33.375 243.154 32.5937 243.154C31.9062 243.154 31.349 243.019 30.9219 242.748C30.4896 242.477 30.151 242.115 29.9062 241.662C29.6615 241.209 29.4792 240.709 29.3594 240.162C29.2344 239.61 29.1354 239.055 29.0625 238.498C28.9687 237.769 28.8984 237.178 28.8516 236.725C28.7995 236.266 28.7135 235.933 28.5937 235.725C28.474 235.511 28.2656 235.404 27.9687 235.404L27.9062 235.404C27.1354 235.404 26.5365 235.615 26.1094 236.037C25.6823 236.454 25.4687 237.087 25.4687 237.936C25.4687 238.816 25.6615 239.506 26.0469 240.006C26.4323 240.506 26.8437 240.857 27.2812 241.061L26.6562 242.811C25.9271 242.498 25.3594 242.081 24.9531 241.561C24.5417 241.035 24.2552 240.462 24.0937 239.842C23.9271 239.217 23.8437 238.602 23.8437 237.998C23.8437 237.613 23.8906 237.17 23.9844 236.67C24.0729 236.165 24.2578 235.678 24.5391 235.209C24.8203 234.735 25.2448 234.342 25.8125 234.029C26.3802 233.717 27.1406 233.561 28.0937 233.561L36 233.561L36 235.404L34.375 235.404L34.375 235.498C34.6354 235.623 34.9141 235.831 35.2109 236.123C35.5078 236.415 35.7604 236.803 35.9687 237.287C36.1771 237.771 36.2812 238.363 36.2812 239.061ZM34.625 238.779C34.625 238.05 34.4818 237.436 34.1953 236.936C33.9089 236.43 33.5391 236.05 33.0859 235.795C32.6328 235.535 32.1562 235.404 31.6562 235.404L29.9687 235.404C30.0625 235.482 30.1484 235.654 30.2266 235.92C30.2995 236.18 30.3646 236.482 30.4219 236.826C30.474 237.165 30.5208 237.495 30.5625 237.818C30.599 238.136 30.6302 238.394 30.6562 238.592C30.7187 239.071 30.8203 239.519 30.9609 239.936C31.0964 240.347 31.3021 240.68 31.5781 240.936C31.849 241.186 32.2187 241.311 32.6875 241.311C33.3281 241.311 33.8125 241.074 34.1406 240.6C34.4635 240.12 34.625 239.514 34.625 238.779ZM24 224.977L25.5625 224.977L25.5625 231.195L24 231.195L24 224.977ZM21.125 229.383L21.125 227.539L32.5625 227.539C33.0833 227.539 33.474 227.464 33.7344 227.312C33.9896 227.156 34.1615 226.958 34.25 226.719C34.3333 226.474 34.375 226.216 34.375 225.945C34.375 225.742 34.3646 225.576 34.3437 225.445C34.3177 225.315 34.2969 225.211 34.2812 225.133L35.9375 224.758C35.9844 224.883 36.0312 225.057 36.0781 225.281C36.1302 225.505 36.1562 225.789 36.1562 226.133C36.1562 226.654 36.0443 227.164 35.8203 227.664C35.5964 228.159 35.2552 228.57 34.7969 228.898C34.3385 229.221 33.7604 229.383 33.0625 229.383L21.125 229.383ZM31.0937 214.641L24 214.641L24 212.797L36 212.797L36 214.641L33.9687 214.641L33.9687 214.766C34.5781 215.047 35.0964 215.484 35.5234 216.078C35.9453 216.672 36.1562 217.422 36.1562 218.328C36.1562 219.078 35.9922 219.745 35.6641 220.328C35.3307 220.911 34.8307 221.37 34.1641 221.703C33.4922 222.036 32.6458 222.203 31.625 222.203L24 222.203L24 220.359L31.5 220.359C32.375 220.359 33.0729 220.115 33.5937 219.625C34.1146 219.13 34.375 218.5 34.375 217.734C34.375 217.276 34.2578 216.81 34.0234 216.336C33.7891 215.857 33.4297 215.456 32.9453 215.133C32.4609 214.805 31.8437 214.641 31.0937 214.641ZM36 209.42L24 209.42L24 207.639L25.8125 207.639L25.8125 207.514C25.2187 207.295 24.737 206.899 24.3672 206.326C23.9974 205.753 23.8125 205.107 23.8125 204.389C23.8125 204.253 23.8151 204.084 23.8203 203.881C23.8255 203.678 23.8333 203.524 23.8437 203.42L25.7187 203.42C25.7031 203.482 25.6797 203.626 25.6484 203.85C25.612 204.068 25.5937 204.3 25.5937 204.545C25.5937 205.128 25.7161 205.649 25.9609 206.107C26.2005 206.561 26.5339 206.92 26.9609 207.186C27.3828 207.446 27.8646 207.576 28.4062 207.576L36 207.576L36 209.42ZM36.25 196.568C36.25 197.725 35.9948 198.722 35.4844 199.561C34.9687 200.394 34.25 201.037 33.3281 201.49C32.401 201.938 31.3229 202.162 30.0937 202.162C28.8646 202.162 27.7812 201.938 26.8437 201.49C25.901 201.037 25.1667 200.407 24.6406 199.6C24.1094 198.787 23.8437 197.839 23.8437 196.756C23.8437 196.131 23.9479 195.514 24.1562 194.904C24.3646 194.295 24.7031 193.74 25.1719 193.24C25.6354 192.74 26.25 192.342 27.0156 192.045C27.7812 191.748 28.724 191.6 29.8437 191.6L30.625 191.6L30.625 200.85L29.0312 200.85L29.0312 193.475C28.3542 193.475 27.75 193.61 27.2187 193.881C26.6875 194.146 26.2682 194.527 25.9609 195.021C25.6536 195.511 25.5 196.089 25.5 196.756C25.5 197.49 25.6823 198.126 26.0469 198.662C26.4062 199.193 26.875 199.602 27.4531 199.889C28.0312 200.175 28.651 200.318 29.3125 200.318L30.375 200.318C31.2812 200.318 32.0495 200.162 32.6797 199.85C33.3047 199.532 33.7812 199.092 34.1094 198.529C34.4323 197.967 34.5937 197.313 34.5937 196.568C34.5937 196.084 34.526 195.646 34.3906 195.256C34.25 194.86 34.0417 194.519 33.7656 194.232C33.4844 193.946 33.1354 193.725 32.7187 193.568L33.2187 191.787C33.8229 191.975 34.3542 192.29 34.8125 192.732C35.2656 193.175 35.6198 193.722 35.875 194.373C36.125 195.024 36.25 195.756 36.25 196.568ZM67 273.913L51 273.913L51 272.069L56.9062 272.069L56.9062 271.913C56.6979 271.778 56.4323 271.59 56.1094 271.351C55.7812 271.106 55.4896 270.757 55.2344 270.304C54.974 269.845 54.8437 269.226 54.8437 268.444C54.8437 267.434 55.0964 266.543 55.6016 265.772C56.1068 265.002 56.8229 264.4 57.75 263.968C58.6771 263.535 59.7708 263.319 61.0312 263.319C62.3021 263.319 63.4036 263.535 64.3359 263.968C65.263 264.4 65.9818 264.999 66.4922 265.765C66.9974 266.53 67.25 267.413 67.25 268.413C67.25 269.184 67.1224 269.801 66.8672 270.265C66.6068 270.728 66.3125 271.085 65.9844 271.335C65.651 271.585 65.375 271.778 65.1562 271.913L65.1562 272.132L67 272.132L67 273.913ZM61 272.101C61.9062 272.101 62.7057 271.968 63.3984 271.702C64.0859 271.437 64.625 271.049 65.0156 270.538C65.401 270.028 65.5937 269.403 65.5937 268.663C65.5937 267.892 65.3906 267.249 64.9844 266.733C64.5729 266.213 64.0208 265.822 63.3281 265.562C62.6302 265.296 61.8542 265.163 61 265.163C60.1562 265.163 59.3958 265.293 58.7187 265.554C58.0365 265.809 57.4974 266.197 57.1016 266.718C56.7005 267.233 56.5 267.882 56.5 268.663C56.5 269.413 56.6901 270.043 57.0703 270.554C57.4453 271.064 57.9714 271.45 58.6484 271.71C59.3203 271.97 60.1042 272.101 61 272.101ZM67 260.499L55 260.499L55 258.718L56.8125 258.718L56.8125 258.593C56.2187 258.374 55.737 257.978 55.3672 257.405C54.9974 256.832 54.8125 256.187 54.8125 255.468C54.8125 255.332 54.8151 255.163 54.8203 254.96C54.8255 254.757 54.8333 254.603 54.8437 254.499L56.7187 254.499C56.7031 254.562 56.6797 254.705 56.6484 254.929C56.612 255.147 56.5937 255.379 56.5937 255.624C56.5937 256.207 56.7161 256.728 56.9609 257.187C57.2005 257.64 57.5339 257.999 57.9609 258.265C58.3828 258.525 58.8646 258.655 59.4062 258.655L67 258.655L67 260.499ZM67.2812 248.782C67.2812 249.543 67.138 250.233 66.8516 250.853C66.5599 251.472 66.1406 251.965 65.5937 252.329C65.0417 252.694 64.375 252.876 63.5937 252.876C62.9062 252.876 62.349 252.741 61.9219 252.47C61.4896 252.199 61.151 251.837 60.9062 251.384C60.6615 250.931 60.4792 250.431 60.3594 249.884C60.2344 249.332 60.1354 248.777 60.0625 248.22C59.9687 247.491 59.8984 246.899 59.8516 246.446C59.7995 245.988 59.7135 245.655 59.5937 245.446C59.474 245.233 59.2656 245.126 58.9687 245.126L58.9062 245.126C58.1354 245.126 57.5365 245.337 57.1094 245.759C56.6823 246.175 56.4687 246.808 56.4687 247.657C56.4687 248.537 56.6615 249.228 57.0469 249.728C57.4323 250.228 57.8437 250.579 58.2812 250.782L57.6562 252.532C56.9271 252.22 56.3594 251.803 55.9531 251.282C55.5417 250.756 55.2552 250.183 55.0937 249.563C54.9271 248.938 54.8437 248.324 54.8437 247.72C54.8437 247.334 54.8906 246.892 54.9844 246.392C55.0729 245.886 55.2578 245.399 55.5391 244.931C55.8203 244.457 56.2448 244.063 56.8125 243.751C57.3802 243.438 58.1406 243.282 59.0937 243.282L67 243.282L67 245.126L65.375 245.126L65.375 245.22C65.6354 245.345 65.9141 245.553 66.2109 245.845C66.5078 246.136 66.7604 246.524 66.9687 247.009C67.1771 247.493 67.2812 248.084 67.2812 248.782ZM65.625 248.501C65.625 247.772 65.4818 247.157 65.1953 246.657C64.9089 246.152 64.5391 245.772 64.0859 245.517C63.6328 245.256 63.1562 245.126 62.6562 245.126L60.9687 245.126C61.0625 245.204 61.1484 245.376 61.2266 245.642C61.2995 245.902 61.3646 246.204 61.4219 246.548C61.474 246.886 61.5208 247.217 61.5625 247.54C61.599 247.858 61.6302 248.116 61.6562 248.313C61.7187 248.793 61.8203 249.241 61.9609 249.657C62.0964 250.069 62.3021 250.402 62.5781 250.657C62.849 250.907 63.2187 251.032 63.6875 251.032C64.3281 251.032 64.8125 250.795 65.1406 250.321C65.4635 249.842 65.625 249.235 65.625 248.501ZM59.7812 238.073L67 238.073L67 239.917L55 239.917L55 238.136L56.875 238.136L56.875 237.979C56.2656 237.698 55.776 237.271 55.4062 236.698C55.0312 236.125 54.8437 235.386 54.8437 234.479C54.8437 233.667 55.0104 232.956 55.3437 232.347C55.6719 231.737 56.1719 231.263 56.8437 230.925C57.5104 230.586 58.3542 230.417 59.375 230.417L67 230.417L67 232.261L59.5 232.261C58.5573 232.261 57.8229 232.506 57.2969 232.995C56.7656 233.485 56.5 234.157 56.5 235.011C56.5 235.599 56.6276 236.125 56.8828 236.589C57.138 237.047 57.5104 237.409 58 237.675C58.4896 237.94 59.0833 238.073 59.7812 238.073ZM67.25 222.173C67.25 223.298 66.9844 224.267 66.4531 225.079C65.9219 225.892 65.1901 226.517 64.2578 226.954C63.3255 227.392 62.2604 227.61 61.0625 227.61C59.8437 227.61 58.7682 227.386 57.8359 226.938C56.8984 226.485 56.1667 225.855 55.6406 225.048C55.1094 224.235 54.8437 223.287 54.8437 222.204C54.8437 221.36 55 220.6 55.3125 219.923C55.625 219.246 56.0625 218.691 56.625 218.259C57.1875 217.826 57.8437 217.558 58.5937 217.454L58.5937 219.298C58.0469 219.438 57.5625 219.751 57.1406 220.235C56.7135 220.715 56.5 221.36 56.5 222.173C56.5 222.892 56.6875 223.522 57.0625 224.063C57.4323 224.6 57.9557 225.019 58.6328 225.321C59.3047 225.618 60.0937 225.767 61 225.767C61.9271 225.767 62.7344 225.621 63.4219 225.329C64.1094 225.032 64.6432 224.616 65.0234 224.079C65.4036 223.537 65.5937 222.902 65.5937 222.173C65.5937 221.694 65.5104 221.259 65.3437 220.868C65.1771 220.478 64.9375 220.147 64.625 219.876C64.3125 219.605 63.9375 219.412 63.5 219.298L63.5 217.454C64.2083 217.558 64.8464 217.816 65.4141 218.228C65.9766 218.634 66.4245 219.173 66.7578 219.845C67.0859 220.511 67.25 221.287 67.25 222.173ZM59.7812 212.915L67 212.915L67 214.759L51 214.759L51 212.915L56.875 212.915L56.875 212.759C56.2552 212.478 55.763 212.056 55.3984 211.493C55.0286 210.925 54.8437 210.17 54.8437 209.228C54.8437 208.41 55.0078 207.694 55.3359 207.079C55.6589 206.465 56.1562 205.988 56.8281 205.649C57.4948 205.306 58.3437 205.134 59.375 205.134L67 205.134L67 206.978L59.5 206.978C58.5469 206.978 57.8099 207.225 57.2891 207.72C56.763 208.209 56.5 208.889 56.5 209.759C56.5 210.363 56.6276 210.905 56.8828 211.384C57.138 211.858 57.5104 212.233 58 212.509C58.4896 212.78 59.0833 212.915 59.7812 212.915ZM67.25 196.729C67.25 197.886 66.9948 198.883 66.4844 199.722C65.9687 200.555 65.25 201.198 64.3281 201.651C63.401 202.099 62.3229 202.323 61.0937 202.323C59.8646 202.323 58.7812 202.099 57.8437 201.651C56.901 201.198 56.1667 200.568 55.6406 199.761C55.1094 198.948 54.8437 198 54.8437 196.917C54.8437 196.292 54.9479 195.675 55.1562 195.065C55.3646 194.456 55.7031 193.901 56.1719 193.401C56.6354 192.901 57.25 192.503 58.0156 192.206C58.7812 191.909 59.724 191.761 60.8437 191.761L61.625 191.761L61.625 201.011L60.0312 201.011L60.0312 193.636C59.3542 193.636 58.75 193.771 58.2187 194.042C57.6875 194.308 57.2682 194.688 56.9609 195.183C56.6536 195.672 56.5 196.25 56.5 196.917C56.5 197.651 56.6823 198.287 57.0469 198.823C57.4062 199.354 57.875 199.763 58.4531 200.05C59.0312 200.336 59.651 200.479 60.3125 200.479L61.375 200.479C62.2812 200.479 63.0495 200.323 63.6797 200.011C64.3047 199.693 64.7812 199.253 65.1094 198.69C65.4323 198.128 65.5937 197.474 65.5937 196.729C65.5937 196.245 65.526 195.808 65.3906 195.417C65.25 195.021 65.0417 194.68 64.7656 194.394C64.4844 194.107 64.1354 193.886 63.7187 193.729L64.2187 191.948C64.8229 192.136 65.3542 192.451 65.8125 192.894C66.2656 193.336 66.6198 193.883 66.875 194.534C67.125 195.185 67.25 195.917 67.25 196.729ZM57.6875 180.456L58.1562 182.112C57.8802 182.216 57.612 182.37 57.3516 182.573C57.0859 182.771 56.8672 183.042 56.6953 183.386C56.5234 183.729 56.4375 184.17 56.4375 184.706C56.4375 185.44 56.6068 186.052 56.9453 186.542C57.2786 187.026 57.7031 187.269 58.2187 187.269C58.6771 187.269 59.0391 187.102 59.3047 186.769C59.5703 186.435 59.7917 185.914 59.9687 185.206L60.4062 183.425C60.6667 182.352 61.0651 181.552 61.6016 181.026C62.1328 180.5 62.8177 180.237 63.6562 180.237C64.3437 180.237 64.9583 180.435 65.5 180.831C66.0417 181.222 66.4687 181.769 66.7812 182.472C67.0937 183.175 67.25 183.993 67.25 184.925C67.25 186.149 66.9844 187.162 66.4531 187.964C65.9219 188.766 65.1458 189.274 64.125 189.487L63.6875 187.737C64.3333 187.571 64.8177 187.256 65.1406 186.792C65.4635 186.323 65.625 185.711 65.625 184.956C65.625 184.097 65.4427 183.414 65.0781 182.909C64.7083 182.399 64.2656 182.144 63.75 182.144C63.3333 182.144 62.9844 182.289 62.7031 182.581C62.4167 182.873 62.2031 183.321 62.0625 183.925L61.5937 185.925C61.3333 187.024 60.9297 187.831 60.3828 188.347C59.8307 188.857 59.1406 189.112 58.3125 189.112C57.6354 189.112 57.0365 188.922 56.5156 188.542C55.9948 188.157 55.5859 187.633 55.2891 186.972C54.9922 186.305 54.8437 185.55 54.8437 184.706C54.8437 183.519 55.1042 182.586 55.625 181.909C56.1458 181.227 56.8333 180.743 57.6875 180.456Z" fill="black"/>
<line x1="129" y1="65" x2="799" y2="65" stroke="black" stroke-opacity="0.3" stroke-width="6"/>
<circle cx="175" cy="65" r="18" transform="rotate(-90 175 65)" fill="#FFE333" stroke="black" stroke-width="6"/>
<circle cx="263" cy="65" r="18" transform="rotate(-90 263 65)" fill="#FFE333" stroke="black" stroke-width="6"/>
<circle cx="619" cy="65" r="18" transform="rotate(-90 619 65)" fill="#FFE333" stroke="black" stroke-width="6"/>
<circle cx="728" cy="65" r="18" transform="rotate(-90 728 65)" fill="#FFE333" stroke="black" stroke-width="6"/>
<path d="M243.061 65.0607C243.646 64.4749 243.646 63.5251 243.061 62.9393L233.515 53.3934C232.929 52.8076 231.979 52.8076 231.393 53.3934C230.808 53.9792 230.808 54.9289 231.393 55.5147L239.879 64L231.393 72.4853C230.808 73.0711 230.808 74.0208 231.393 74.6066C231.979 75.1924 232.929 75.1924 233.515 74.6066L243.061 65.0607ZM194 65.5L242 65.5L242 62.5L194 62.5L194 65.5Z" fill="black"/>
<path d="M599.061 66.0607C599.646 65.4749 599.646 64.5251 599.061 63.9393L589.515 54.3934C588.929 53.8076 587.979 53.8076 587.393 54.3934C586.808 54.9792 586.808 55.9289 587.393 56.5147L595.879 65L587.393 73.4853C586.808 74.0711 586.808 75.0208 587.393 75.6066C587.979 76.1924 588.929 76.1924 589.515 75.6066L599.061 66.0607ZM282 66.5H598V63.5H282V66.5Z" fill="black"/>
<path d="M708.061 65.0607C708.646 64.4749 708.646 63.5251 708.061 62.9393L698.515 53.3934C697.929 52.8076 696.979 52.8076 696.393 53.3934C695.808 53.9792 695.808 54.9289 696.393 55.5147L704.879 64L696.393 72.4853C695.808 73.0711 695.808 74.0208 696.393 74.6066C696.979 75.1924 697.929 75.1924 698.515 74.6066L708.061 65.0607ZM639 65.5H707V62.5H639V65.5Z" fill="black"/>
<path d="M67.1953 105.187C67.1953 106.098 66.9609 106.924 66.4922 107.663C66.0182 108.397 65.3229 108.981 64.4062 109.413C63.4844 109.84 62.3542 110.054 61.0156 110.054C59.6406 110.054 58.4974 109.832 57.5859 109.39C56.6693 108.947 55.9844 108.358 55.5312 107.624C55.0729 106.884 54.8437 106.075 54.8437 105.194C54.8437 104.522 54.9583 103.963 55.1875 103.515C55.4115 103.062 55.6927 102.697 56.0312 102.421C56.3646 102.14 56.6927 101.926 57.0156 101.78L57.0156 101.679L51 101.679L51 98.3584L67 98.3584L67 101.64L65.0781 101.64L65.0781 101.78C65.4115 101.937 65.7422 102.158 66.0703 102.444C66.3932 102.726 66.6615 103.093 66.875 103.546C67.0885 103.994 67.1953 104.541 67.1953 105.187ZM64.5469 104.132C64.5469 103.595 64.401 103.142 64.1094 102.772C63.8125 102.397 63.3984 102.111 62.8672 101.913C62.3359 101.71 61.7135 101.608 61 101.608C60.2865 101.608 59.6667 101.707 59.1406 101.905C58.6146 102.103 58.2083 102.39 57.9219 102.765C57.6354 103.14 57.4922 103.595 57.4922 104.132C57.4922 104.679 57.6406 105.14 57.9375 105.515C58.2344 105.89 58.6458 106.174 59.1719 106.366C59.6979 106.559 60.3073 106.655 61 106.655C61.6979 106.655 62.3151 106.559 62.8516 106.366C63.3828 106.168 63.7995 105.884 64.1016 105.515C64.3984 105.14 64.5469 104.679 64.5469 104.132ZM67.2344 90.1533C67.2344 91.3877 66.9844 92.4502 66.4844 93.3408C65.9792 94.2262 65.2656 94.9085 64.3437 95.3877C63.4167 95.8669 62.3203 96.1064 61.0547 96.1064C59.8203 96.1064 58.737 95.8669 57.8047 95.3877C56.8724 94.9085 56.1458 94.234 55.625 93.3643C55.1042 92.4893 54.8437 91.4632 54.8437 90.2861C54.8437 89.4945 54.9714 88.7575 55.2266 88.0752C55.4766 87.3877 55.8542 86.7887 56.3594 86.2783C56.8646 85.7627 57.5 85.3617 58.2656 85.0752C59.026 84.7887 59.9167 84.6455 60.9375 84.6455L61.8516 84.6455L61.8516 94.7783L59.7891 94.7783L59.7891 87.7783C59.3099 87.7783 58.8854 87.8825 58.5156 88.0908C58.1458 88.2992 57.8568 88.5882 57.6484 88.958C57.4349 89.3226 57.3281 89.7471 57.3281 90.2314C57.3281 90.7367 57.4453 91.1846 57.6797 91.5752C57.9089 91.9606 58.2187 92.2627 58.6094 92.4814C58.9948 92.7002 59.4245 92.8122 59.8984 92.8174L61.8594 92.8174C62.4531 92.8174 62.9661 92.708 63.3984 92.4893C63.8307 92.2653 64.1641 91.9502 64.3984 91.5439C64.6328 91.1377 64.75 90.6559 64.75 90.0986C64.75 89.7288 64.6979 89.3903 64.5937 89.083C64.4896 88.7757 64.3333 88.5127 64.125 88.2939C63.9167 88.0752 63.6615 87.9085 63.3594 87.7939L63.5625 84.7158C64.3021 84.8721 64.9479 85.1924 65.5 85.6768C66.0469 86.1559 66.474 86.7757 66.7812 87.5361C67.0833 88.2913 67.2344 89.1637 67.2344 90.1533ZM55 71.6084L67 75.8037L67 79.5537L55 83.749L55 80.2334L63.5859 77.7412L63.5859 77.6162L55 75.1318L55 71.6084ZM67.2344 64.8232C67.2344 66.0576 66.9844 67.1201 66.4844 68.0107C65.9792 68.8962 65.2656 69.5784 64.3437 70.0576C63.4167 70.5368 62.3203 70.7764 61.0547 70.7764C59.8203 70.7764 58.737 70.5368 57.8047 70.0576C56.8724 69.5784 56.1458 68.904 55.625 68.0342C55.1042 67.1592 54.8437 66.1331 54.8437 64.9561C54.8437 64.1644 54.9714 63.4274 55.2266 62.7451C55.4766 62.0576 55.8542 61.4587 56.3594 60.9482C56.8646 60.4326 57.5 60.0316 58.2656 59.7451C59.026 59.4587 59.9167 59.3154 60.9375 59.3154L61.8516 59.3154L61.8516 69.4482L59.7891 69.4482L59.7891 62.4482C59.3099 62.4482 58.8854 62.5524 58.5156 62.7607C58.1458 62.9691 57.8568 63.2581 57.6484 63.6279C57.4349 63.9925 57.3281 64.417 57.3281 64.9014C57.3281 65.4066 57.4453 65.8545 57.6797 66.2451C57.9089 66.6305 58.2187 66.9326 58.6094 67.1514C58.9948 67.3701 59.4245 67.4821 59.8984 67.4873L61.8594 67.4873C62.4531 67.4873 62.9661 67.3779 63.3984 67.1592C63.8307 66.9352 64.1641 66.6201 64.3984 66.2139C64.6328 65.8076 64.75 65.3258 64.75 64.7686C64.75 64.3988 64.6979 64.0602 64.5937 63.7529C64.4896 63.4456 64.3333 63.1826 64.125 62.9639C63.9167 62.7451 63.6615 62.5784 63.3594 62.4639L63.5625 59.3857C64.3021 59.542 64.9479 59.8623 65.5 60.3467C66.0469 60.8258 66.474 61.4456 66.7812 62.2061C67.0833 62.9613 67.2344 63.8337 67.2344 64.8232ZM51 53.8154L67 53.8154L67 57.1436L51 57.1436L51 53.8154ZM67.2344 45.7275C67.2344 46.9411 66.9766 47.9906 66.4609 48.876C65.9401 49.7562 65.2161 50.4359 64.2891 50.915C63.3568 51.3942 62.276 51.6338 61.0469 51.6338C59.8073 51.6338 58.724 51.3942 57.7969 50.915C56.8646 50.4359 56.1406 49.7562 55.625 48.876C55.1042 47.9906 54.8437 46.9411 54.8437 45.7275C54.8437 44.514 55.1042 43.4671 55.625 42.5869C56.1406 41.7015 56.8646 41.0192 57.7969 40.54C58.724 40.0609 59.8073 39.8213 61.0469 39.8213C62.276 39.8213 63.3568 40.0609 64.2891 40.54C65.2161 41.0192 65.9401 41.7015 66.4609 42.5869C66.9766 43.4671 67.2344 44.514 67.2344 45.7275ZM64.6562 45.7119C64.6562 45.1598 64.5 44.6989 64.1875 44.3291C63.8698 43.9593 63.4375 43.6807 62.8906 43.4932C62.3437 43.3005 61.7214 43.2041 61.0234 43.2041C60.3255 43.2041 59.7031 43.3005 59.1562 43.4932C58.6094 43.6807 58.1771 43.9593 57.8594 44.3291C57.5417 44.6989 57.3828 45.1598 57.3828 45.7119C57.3828 46.2692 57.5417 46.738 57.8594 47.1182C58.1771 47.4932 58.6094 47.777 59.1562 47.9697C59.7031 48.1572 60.3255 48.251 61.0234 48.251C61.7214 48.251 62.3437 48.1572 62.8906 47.9697C63.4375 47.777 63.8698 47.4932 64.1875 47.1182C64.5 46.738 64.6562 46.2692 64.6562 45.7119ZM71.5 37.6572L55 37.6572L55 34.376L57.0156 34.376L57.0156 34.2275C56.6927 34.0817 56.3646 33.8708 56.0312 33.5947C55.6927 33.3135 55.4115 32.9489 55.1875 32.501C54.9583 32.0479 54.8437 31.4854 54.8437 30.8135C54.8437 29.9385 55.0729 29.1312 55.5312 28.3916C55.9844 27.652 56.6693 27.0609 57.5859 26.6182C58.4974 26.1755 59.6406 25.9541 61.0156 25.9541C62.3542 25.9541 63.4844 26.1702 64.4062 26.6025C65.3229 27.0296 66.0182 27.613 66.4922 28.3525C66.9609 29.0869 67.1953 29.9098 67.1953 30.8213C67.1953 31.4671 67.0885 32.0166 66.875 32.4697C66.6615 32.9176 66.3932 33.2848 66.0703 33.5713C65.7422 33.8577 65.4115 34.0765 65.0781 34.2275L65.0781 34.3291L71.5 34.3291L71.5 37.6572ZM61 34.3994C61.7135 34.3994 62.3359 34.3005 62.8672 34.1025C63.3984 33.9046 63.8125 33.6182 64.1094 33.2432C64.401 32.8682 64.5469 32.4124 64.5469 31.876C64.5469 31.3343 64.3984 30.876 64.1016 30.501C63.7995 30.126 63.3828 29.8421 62.8516 29.6494C62.3151 29.4515 61.6979 29.3525 61 29.3525C60.3073 29.3525 59.6979 29.4489 59.1719 29.6416C58.6458 29.8343 58.2344 30.1182 57.9375 30.4932C57.6406 30.8682 57.4922 31.3291 57.4922 31.876C57.4922 32.4176 57.6354 32.876 57.9219 33.251C58.2083 33.6208 58.6146 33.9046 59.1406 34.1025C59.6667 34.3005 60.2865 34.3994 61 34.3994Z" fill="black"/>
</g>
<defs>
<clipPath id="clip0_5_678">
<rect width="548" height="862" fill="white" transform="translate(0 548) rotate(-90)"/>
</clipPath>
</defs>
</svg>
